  0
SECTION
  2
HEADER
  9
$ACADVER
  1
AC1032
  9
$ACADMAINTVER
 90
      197
  9
$DWGCODEPAGE
  3
ANSI_1252
  9
$REQUIREDVERSIONS
160
                 0
  9
$INSBASE
 10
0.0
 20
0.0
 30
0.0
  9
$EXTMIN
 10
1.000000000000000E+20
 20
1.000000000000000E+20
 30
1.000000000000000E+20
  9
$EXTMAX
 10
-1.000000000000000E+20
 20
-1.000000000000000E+20
 30
-1.000000000000000E+20
  9
$LIMMIN
 10
0.0
 20
0.0
  9
$LIMMAX
 10
12.0
 20
9.0
  9
$ORTHOMODE
 70
     0
  9
$REGENMODE
 70
     1
  9
$FILLMODE
 70
     1
  9
$QTEXTMODE
 70
     0
  9
$MIRRTEXT
 70
     0
  9
$LTSCALE
 40
1.0
  9
$ATTMODE
 70
     1
  9
$TEXTSIZE
 40
0.2
  9
$TRACEWID
 40
0.05
  9
$TEXTSTYLE
  7
Standard
  9
$CLAYER
  8
0
  9
$CELTYPE
  6
ByLayer
  9
$CECOLOR
 62
   256
  9
$CELTSCALE
 40
1.0
  9
$DISPSILH
 70
     0
  9
$DIMSCALE
 40
1.0
  9
$DIMASZ
 40
0.18
  9
$DIMEXO
 40
0.0625
  9
$DIMDLI
 40
0.38
  9
$DIMRND
 40
0.0
  9
$DIMDLE
 40
0.0
  9
$DIMEXE
 40
0.18
  9
$DIMTP
 40
0.0
  9
$DIMTM
 40
0.0
  9
$DIMTXT
 40
0.18
  9
$DIMCEN
 40
0.09
  9
$DIMTSZ
 40
0.0
  9
$DIMTOL
 70
     0
  9
$DIMLIM
 70
     0
  9
$DIMTIH
 70
     1
  9
$DIMTOH
 70
     1
  9
$DIMSE1
 70
     0
  9
$DIMSE2
 70
     0
  9
$DIMTAD
 70
     0
  9
$DIMZIN
 70
     0
  9
$DIMBLK
  1

  9
$DIMASO
 70
     1
  9
$DIMSHO
 70
     1
  9
$DIMPOST
  1

  9
$DIMAPOST
  1

  9
$DIMALT
 70
     0
  9
$DIMALTD
 70
     2
  9
$DIMALTF
 40
25.4
  9
$DIMLFAC
 40
1.0
  9
$DIMTOFL
 70
     0
  9
$DIMTVP
 40
0.0
  9
$DIMTIX
 70
     0
  9
$DIMSOXD
 70
     0
  9
$DIMSAH
 70
     0
  9
$DIMBLK1
  1

  9
$DIMBLK2
  1

  9
$DIMSTYLE
  2
Standard
  9
$DIMCLRD
 70
     0
  9
$DIMCLRE
 70
     0
  9
$DIMCLRT
 70
     0
  9
$DIMTFAC
 40
1.0
  9
$DIMGAP
 40
0.09
  9
$DIMJUST
 70
     0
  9
$DIMSD1
 70
     0
  9
$DIMSD2
 70
     0
  9
$DIMTOLJ
 70
     1
  9
$DIMTZIN
 70
     0
  9
$DIMALTZ
 70
     0
  9
$DIMALTTZ
 70
     0
  9
$DIMUPT
 70
     0
  9
$DIMDEC
 70
     4
  9
$DIMTDEC
 70
     4
  9
$DIMALTU
 70
     2
  9
$DIMALTTD
 70
     2
  9
$DIMTXSTY
  7
Standard
  9
$DIMAUNIT
 70
     0
  9
$DIMADEC
 70
     0
  9
$DIMALTRND
 40
0.0
  9
$DIMAZIN
 70
     0
  9
$DIMDSEP
 70
    46
  9
$DIMATFIT
 70
     3
  9
$DIMFRAC
 70
     0
  9
$DIMLDRBLK
  1

  9
$DIMLUNIT
 70
     2
  9
$DIMLWD
 70
    -2
  9
$DIMLWE
 70
    -2
  9
$DIMTMOVE
 70
     0
  9
$DIMFXL
 40
1.0
  9
$DIMFXLON
 70
     0
  9
$DIMJOGANG
 40
0.7853981633974483
  9
$DIMTFILL
 70
     0
  9
$DIMTFILLCLR
 70
     0
  9
$DIMARCSYM
 70
     0
  9
$DIMLTYPE
  6

  9
$DIMLTEX1
  6

  9
$DIMLTEX2
  6

  9
$DIMTXTDIRECTION
 70
     0
  9
$LUNITS
 70
     2
  9
$LUPREC
 70
     4
  9
$SKETCHINC
 40
0.1
  9
$FILLETRAD
 40
0.0
  9
$AUNITS
 70
     0
  9
$AUPREC
 70
     0
  9
$MENU
  1
.
  9
$ELEVATION
 40
0.0
  9
$PELEVATION
 40
0.0
  9
$THICKNESS
 40
0.0
  9
$LIMCHECK
 70
     0
  9
$CHAMFERA
 40
0.0
  9
$CHAMFERB
 40
0.0
  9
$CHAMFERC
 40
0.0
  9
$CHAMFERD
 40
0.0
  9
$SKPOLY
 70
     0
  9
$TDCREATE
 40
2459712.800312500
  9
$TDUCREATE
 40
2459712.716979166
  9
$TDUPDATE
 40
2459712.800312500
  9
$TDUUPDATE
 40
2459712.716979166
  9
$TDINDWG
 40
0.0000000000
  9
$TDUSRTIMER
 40
0.0000000000
  9
$USRTIMER
 70
     1
  9
$ANGBASE
 50
0.0
  9
$ANGDIR
 70
     0
  9
$PDMODE
 70
     0
  9
$PDSIZE
 40
0.0
  9
$PLINEWID
 40
0.0
  9
$SPLFRAME
 70
     0
  9
$SPLINETYPE
 70
     6
  9
$SPLINESEGS
 70
     8
  9
$HANDSEED
  5
1AA
  9
$SURFTAB1
 70
     6
  9
$SURFTAB2
 70
     6
  9
$SURFTYPE
 70
     6
  9
$SURFU
 70
     6
  9
$SURFV
 70
     6
  9
$UCSBASE
  2

  9
$UCSNAME
  2

  9
$UCSORG
 10
0.0
 20
0.0
 30
0.0
  9
$UCSXDIR
 10
1.0
 20
0.0
 30
0.0
  9
$UCSYDIR
 10
0.0
 20
1.0
 30
0.0
  9
$UCSORTHOREF
  2

  9
$UCSORTHOVIEW
 70
     0
  9
$UCSORGTOP
 10
0.0
 20
0.0
 30
0.0
  9
$UCSORGBOTTOM
 10
0.0
 20
0.0
 30
0.0
  9
$UCSORGLEFT
 10
0.0
 20
0.0
 30
0.0
  9
$UCSORGRIGHT
 10
0.0
 20
0.0
 30
0.0
  9
$UCSORGFRONT
 10
0.0
 20
0.0
 30
0.0
  9
$UCSORGBACK
 10
0.0
 20
0.0
 30
0.0
  9
$PUCSBASE
  2

  9
$PUCSNAME
  2

  9
$PUCSORG
 10
0.0
 20
0.0
 30
0.0
  9
$PUCSXDIR
 10
1.0
 20
0.0
 30
0.0
  9
$PUCSYDIR
 10
0.0
 20
1.0
 30
0.0
  9
$PUCSORTHOREF
  2

  9
$PUCSORTHOVIEW
 70
     0
  9
$PUCSORGTOP
 10
0.0
 20
0.0
 30
0.0
  9
$PUCSORGBOTTOM
 10
0.0
 20
0.0
 30
0.0
  9
$PUCSORGLEFT
 10
0.0
 20
0.0
 30
0.0
  9
$PUCSORGRIGHT
 10
0.0
 20
0.0
 30
0.0
  9
$PUCSORGFRONT
 10
0.0
 20
0.0
 30
0.0
  9
$PUCSORGBACK
 10
0.0
 20
0.0
 30
0.0
  9
$USERI1
 70
     0
  9
$USERI2
 70
     0
  9
$USERI3
 70
     0
  9
$USERI4
 70
     0
  9
$USERI5
 70
     0
  9
$USERR1
 40
0.0
  9
$USERR2
 40
0.0
  9
$USERR3
 40
0.0
  9
$USERR4
 40
0.0
  9
$USERR5
 40
0.0
  9
$WORLDVIEW
 70
     1
  9
$SHADEDGE
 70
     3
  9
$SHADEDIF
 70
    70
  9
$TILEMODE
 70
     1
  9
$MAXACTVP
 70
    64
  9
$PINSBASE
 10
0.0
 20
0.0
 30
0.0
  9
$PLIMCHECK
 70
     0
  9
$PEXTMIN
 10
1.000000000000000E+20
 20
1.000000000000000E+20
 30
1.000000000000000E+20
  9
$PEXTMAX
 10
-1.000000000000000E+20
 20
-1.000000000000000E+20
 30
-1.000000000000000E+20
  9
$PLIMMIN
 10
0.0
 20
0.0
  9
$PLIMMAX
 10
12.0
 20
9.0
  9
$UNITMODE
 70
     0
  9
$VISRETAIN
 70
     1
  9
$PLINEGEN
 70
     0
  9
$PSLTSCALE
 70
     1
  9
$TREEDEPTH
 70
  3020
  9
$CMLSTYLE
  2
Standard
  9
$CMLJUST
 70
     0
  9
$CMLSCALE
 40
1.0
  9
$PROXYGRAPHICS
 70
     1
  9
$MEASUREMENT
 70
     0
  9
$CELWEIGHT
370
    -1
  9
$ENDCAPS
280
     0
  9
$JOINSTYLE
280
     0
  9
$LWDISPLAY
290
     1
  9
$INSUNITS
 70
     0
  9
$HYPERLINKBASE
  1

  9
$STYLESHEET
  1

  9
$XEDIT
290
     1
  9
$CEPSNTYPE
380
     0
  9
$PSTYLEMODE
290
     1
  9
$FINGERPRINTGUID
  2
{87241184-9450-0744-8F86-19FDDB6E547A}
  9
$VERSIONGUID
  2
{356D3C38-53F6-8444-9F5F-CAB59A67F6B3}
  9
$EXTNAMES
290
     1
  9
$PSVPSCALE
 40
0.0
  9
$OLESTARTUP
290
     0
  9
$SORTENTS
280
   127
  9
$INDEXCTL
280
     0
  9
$HIDETEXT
280
     1
  9
$XCLIPFRAME
280
     2
  9
$HALOGAP
280
     0
  9
$OBSCOLOR
 70
   257
  9
$OBSLTYPE
280
     0
  9
$INTERSECTIONDISPLAY
280
     0
  9
$INTERSECTIONCOLOR
 70
   257
  9
$DIMASSOC
280
     2
  9
$PROJECTNAME
  1

  9
$CAMERADISPLAY
290
     0
  9
$LENSLENGTH
 40
50.0
  9
$CAMERAHEIGHT
 40
0.0
  9
$STEPSPERSEC
 40
2.0
  9
$STEPSIZE
 40
6.0
  9
$3DDWFPREC
 40
2.0
  9
$PSOLWIDTH
 40
0.25
  9
$PSOLHEIGHT
 40
4.0
  9
$LOFTANG1
 40
1.570796326794896
  9
$LOFTANG2
 40
1.570796326794896
  9
$LOFTMAG1
 40
0.0
  9
$LOFTMAG2
 40
0.0
  9
$LOFTPARAM
 70
     7
  9
$LOFTNORMALS
280
     1
  9
$LATITUDE
 40
37.795
  9
$LONGITUDE
 40
-122.394
  9
$NORTHDIRECTION
 40
0.0
  9
$TIMEZONE
 70
 -8000
  9
$LIGHTGLYPHDISPLAY
280
     1
  9
$TILEMODELIGHTSYNCH
280
     1
  9
$CMATERIAL
347
11
  9
$SOLIDHIST
280
     0
  9
$SHOWHIST
280
     1
  9
$DWFFRAME
280
     2
  9
$DGNFRAME
280
     0
  9
$REALWORLDSCALE
290
     1
  9
$INTERFERECOLOR
 62
     1
  9
$INTERFEREOBJVS
345
33
  9
$INTERFEREVPVS
346
30
  9
$CSHADOW
280
     0
  9
$SHADOWPLANELOCATION
 40
0.0
  0
ENDSEC
  0
SECTION
  2
CLASSES
  0
CLASS
  1
ACDBDICTIONARYWDFLT
  2
AcDbDictionaryWithDefault
  3
ObjectDBX Classes
 90
        0
 91
        1
280
     0
281
     0
  0
CLASS
  1
MATERIAL
  2
AcDbMaterial
  3
ObjectDBX Classes
 90
     1153
 91
        3
280
     0
281
     0
  0
CLASS
  1
VISUALSTYLE
  2
AcDbVisualStyle
  3
ObjectDBX Classes
 90
     4095
 91
       24
280
     0
281
     0
  0
CLASS
  1
SCALE
  2
AcDbScale
  3
ObjectDBX Classes
 90
     1153
 91
       17
280
     0
281
     0
  0
CLASS
  1
TABLESTYLE
  2
AcDbTableStyle
  3
ObjectDBX Classes
 90
     4095
 91
        1
280
     0
281
     0
  0
CLASS
  1
MLEADERSTYLE
  2
AcDbMLeaderStyle
  3
ACDB_MLEADERSTYLE_CLASS
 90
     4095
 91
        1
280
     0
281
     0
  0
CLASS
  1
ACDBSECTIONVIEWSTYLE
  2
AcDbSectionViewStyle
  3
ObjectDBX Classes
 90
     1025
 91
        1
280
     0
281
     0
  0
CLASS
  1
ACDBDETAILVIEWSTYLE
  2
AcDbDetailViewStyle
  3
ObjectDBX Classes
 90
     1025
 91
        1
280
     0
281
     0
  0
CLASS
  1
DICTIONARYVAR
  2
AcDbDictionaryVar
  3
ObjectDBX Classes
 90
        0
 91
        5
280
     0
281
     0
  0
CLASS
  1
CELLSTYLEMAP
  2
AcDbCellStyleMap
  3
ObjectDBX Classes
 90
     1152
 91
        1
280
     0
281
     0
  0
ENDSEC
  0
SECTION
  2
TABLES
  0
TABLE
  2
VPORT
  5
8
330
0
100
AcDbSymbolTable
 70
     1
  0
VPORT
  5
57
330
8
100
AcDbSymbolTableRecord
100
AcDbViewportTableRecord
  2
*Active
 70
     0
 10
0.0
 20
0.0
 11
1.0
 21
1.0
 12
0.0
 22
0.0
 13
0.0
 23
0.0
 14
1.0
 24
1.0
 15
0.0
 25
0.0
 16
0.0
 26
0.0
 36
1.0
 17
1137.18085106383
 27
-540.0
 37
0.0
 40
1101.6
 41
1.931146572104018
 42
50.0
 43
0.0
 44
0.0
 50
0.0
 51
0.0
 71
     0
 72
   100
 73
     1
 74
     1
 75
     0
 76
     0
 77
     0
 78
     0
281
     0
 65
     1
110
0.0
120
0.0
130
0.0
111
1.0
121
0.0
131
0.0
112
0.0
122
1.0
132
0.0
 79
     0
146
0.0
 60
     3
 61
     5
292
     1
282
     1
141
0.0
142
0.0
 63
   250
421
  3355443
  0
ENDTAB
  0
TABLE
  2
LTYPE
  5
5
330
0
100
AcDbSymbolTable
 70
     1
  0
LTYPE
  5
5B
330
5
100
AcDbSymbolTableRecord
100
AcDbLinetypeTableRecord
  2
ByBlock
 70
     0
  3

 72
    65
 73
     0
 40
0.0
  0
LTYPE
  5
5C
330
5
100
AcDbSymbolTableRecord
100
AcDbLinetypeTableRecord
  2
ByLayer
 70
     0
  3

 72
    65
 73
     0
 40
0.0
  0
LTYPE
  5
5D
330
5
100
AcDbSymbolTableRecord
100
AcDbLinetypeTableRecord
  2
Continuous
 70
     0
  3
Solid line
 72
    65
 73
     0
 40
0.0
  0
ENDTAB
  0
TABLE
  2
LAYER
  5
2
330
0
100
AcDbSymbolTable
 70
     3
  0
LAYER
  5
54
330
2
100
AcDbSymbolTableRecord
100
AcDbLayerTableRecord
  2
0
 70
     0
 62
     7
  6
Continuous
370
    -3
390
F
347
21
348
0
  0
LAYER
  5
78
330
2
100
AcDbSymbolTableRecord
100
AcDbLayerTableRecord
  2
Layer 2
 70
     0
 62
     7
  6
Continuous
370
     0
390
F
347
21
348
0
  0
LAYER
  5
F6
330
2
100
AcDbSymbolTableRecord
100
AcDbLayerTableRecord
  2
Layer 3
 70
     0
 62
     7
  6
Continuous
370
     0
390
F
347
21
348
0
  0
ENDTAB
  0
TABLE
  2
STYLE
  5
3
330
0
100
AcDbSymbolTable
 70
     2
  0
STYLE
  5
55
330
3
100
AcDbSymbolTableRecord
100
AcDbTextStyleTableRecord
  2
Standard
 70
     0
 40
0.0
 41
1.0
 50
0.0
 71
     0
 42
0.2
  3
txt
  4

  0
STYLE
  5
5A
330
3
100
AcDbSymbolTableRecord
100
AcDbTextStyleTableRecord
  2
Annotative
 70
     0
 40
0.0
 41
1.0
 50
0.0
 71
     0
 42
0.2
  3
txt
  4

1001
AcadAnnotative
1000
AnnotativeData
1002
{
1070
     1
1070
     1
1002
}
  0
ENDTAB
  0
TABLE
  2
VIEW
  5
6
330
0
100
AcDbSymbolTable
 70
     0
  0
ENDTAB
  0
TABLE
  2
UCS
  5
7
330
0
100
AcDbSymbolTable
 70
     0
  0
ENDTAB
  0
TABLE
  2
APPID
  5
9
330
0
100
AcDbSymbolTable
 70
     2
  0
APPID
  5
56
330
9
100
AcDbSymbolTableRecord
100
AcDbRegAppTableRecord
  2
ACAD
 70
     0
  0
APPID
  5
5E
330
9
100
AcDbSymbolTableRecord
100
AcDbRegAppTableRecord
  2
AcadAnnotative
 70
     0
  0
ENDTAB
  0
TABLE
  2
DIMSTYLE
  5
A
330
0
100
AcDbSymbolTable
 70
     2
100
AcDbDimStyleTable
 71
     0
  0
DIMSTYLE
105
58
330
A
100
AcDbSymbolTableRecord
100
AcDbDimStyleTableRecord
  2
Standard
 70
     0
340
55
  0
DIMSTYLE
105
59
330
A
100
AcDbSymbolTableRecord
100
AcDbDimStyleTableRecord
  2
Annotative
 70
     0
340
55
1001
AcadAnnotative
1000
AnnotativeData
1002
{
1070
     1
1070
     1
1002
}
  0
ENDTAB
  0
TABLE
  2
BLOCK_RECORD
  5
1
330
0
100
AcDbSymbolTable
 70
    13
  0
BLOCK_RECORD
  5
70
330
1
100
AcDbSymbolTableRecord
100
AcDbBlockTableRecord
  2
*Model_Space
340
73
 70
     0
280
     1
281
     0
  0
BLOCK_RECORD
  5
6C
330
1
100
AcDbSymbolTableRecord
100
AcDbBlockTableRecord
  2
*Paper_Space
340
6F
 70
     0
280
     1
281
     0
  0
BLOCK_RECORD
  5
74
330
1
100
AcDbSymbolTableRecord
100
AcDbBlockTableRecord
  2
*Paper_Space0
340
77
 70
     0
280
     1
281
     0
  0
BLOCK_RECORD
  5
8D
330
1
100
AcDbSymbolTableRecord
100
AcDbBlockTableRecord
  2
Block_0
340
0
102
{BLKREFS
331
8E
102
}
 70
     0
280
     1
281
     0
  0
BLOCK_RECORD
  5
93
330
1
100
AcDbSymbolTableRecord
100
AcDbBlockTableRecord
  2
Block_1
340
0
102
{BLKREFS
331
94
102
}
 70
     0
280
     1
281
     0
  0
BLOCK_RECORD
  5
99
330
1
100
AcDbSymbolTableRecord
100
AcDbBlockTableRecord
  2
Block_2
340
0
102
{BLKREFS
331
9A
102
}
 70
     0
280
     1
281
     0
  0
BLOCK_RECORD
  5
9F
330
1
100
AcDbSymbolTableRecord
100
AcDbBlockTableRecord
  2
Block_3
340
0
102
{BLKREFS
331
A0
102
}
 70
     0
280
     1
281
     0
  0
BLOCK_RECORD
  5
A7
330
1
100
AcDbSymbolTableRecord
100
AcDbBlockTableRecord
  2
Block_4
340
0
102
{BLKREFS
331
A8
102
}
 70
     0
280
     1
281
     0
  0
BLOCK_RECORD
  5
CE
330
1
100
AcDbSymbolTableRecord
100
AcDbBlockTableRecord
  2
Block_5
340
0
102
{BLKREFS
331
CF
102
}
 70
     0
280
     1
281
     0
  0
BLOCK_RECORD
  5
D4
330
1
100
AcDbSymbolTableRecord
100
AcDbBlockTableRecord
  2
Block_6
340
0
102
{BLKREFS
331
D5
102
}
 70
     0
280
     1
281
     0
  0
BLOCK_RECORD
  5
DA
330
1
100
AcDbSymbolTableRecord
100
AcDbBlockTableRecord
  2
Block_7
340
0
102
{BLKREFS
331
DB
102
}
 70
     0
280
     1
281
     0
  0
BLOCK_RECORD
  5
E0
330
1
100
AcDbSymbolTableRecord
100
AcDbBlockTableRecord
  2
Block_8
340
0
102
{BLKREFS
331
E1
102
}
 70
     0
280
     1
281
     0
  0
BLOCK_RECORD
  5
E8
330
1
100
AcDbSymbolTableRecord
100
AcDbBlockTableRecord
  2
Block_9
340
0
102
{BLKREFS
331
E9
102
}
 70
     0
280
     1
281
     0
  0
BLOCK_RECORD
  5
107
330
1
100
AcDbSymbolTableRecord
100
AcDbBlockTableRecord
  2
Block_10
340
0
102
{BLKREFS
331
108
102
}
 70
     0
280
     1
281
     0
  0
BLOCK_RECORD
  5
121
330
1
100
AcDbSymbolTableRecord
100
AcDbBlockTableRecord
  2
Block_11
340
0
102
{BLKREFS
331
122
102
}
 70
     0
280
     1
281
     0
  0
ENDTAB
  0
ENDSEC
  0
SECTION
  2
BLOCKS
  0
BLOCK
  5
71
330
70
100
AcDbEntity
  8
0
100
AcDbBlockBegin
  2
*Model_Space
 70
     0
 10
0.0
 20
0.0
 30
0.0
  3
*Model_Space
  1

  0
ENDBLK
  5
72
330
70
100
AcDbEntity
  8
0
100
AcDbBlockEnd
  0
BLOCK
  5
6D
330
6C
100
AcDbEntity
 67
     1
  8
0
100
AcDbBlockBegin
  2
*Paper_Space
 70
     0
 10
0.0
 20
0.0
 30
0.0
  3
*Paper_Space
  1

  0
ENDBLK
  5
6E
330
6C
100
AcDbEntity
 67
     1
  8
0
100
AcDbBlockEnd
  0
BLOCK
  5
75
330
74
100
AcDbEntity
 67
     1
  8
0
100
AcDbBlockBegin
  2
*Paper_Space0
 70
     0
 10
0.0
 20
0.0
 30
0.0
  3
*Paper_Space0
  1

  0
ENDBLK
  5
76
330
74
100
AcDbEntity
 67
     1
  8
0
100
AcDbBlockEnd
  0
BLOCK
  5
8F
330
8D
100
AcDbEntity
  8
0
100
AcDbBlockBegin
  2
Block_0
 70
     0
 10
0.0
 20
0.0
 30
0.0
  3
Block_0
  1

  0
CIRCLE
  5
91
330
8D
100
AcDbEntity
  8
Layer 2
100
AcDbCircle
 10
355.171065925532
 20
-546.7523516306392
 30
0.0
 40
2.698193534051959
  0
HATCH
  5
92
330
8D
100
AcDbEntity
  8
Layer 2
 62
    18
420
        0
440
 33554687
100
AcDbHatch
 10
0.0
 20
0.0
 30
0.0
210
0.0
220
0.0
230
1.0
  2
SOLID
 70
     1
 71
     1
 91
        1
 92
        1
 93
        1
 72
     2
 10
355.171065925532
 20
-546.7523516306392
 40
2.698193534051959
 50
0.0
 51
360.0
 73
     1
 97
        1
330
91
 75
     2
 76
     1
 98
        1
 10
0.0
 20
0.0
450
        0
451
        0
460
0.0
461
0.0
452
        0
462
0.0
453
        0
470

  0
INSERT
  5
94
330
8D
100
AcDbEntity
  8
Layer 2
100
AcDbBlockReference
  2
Block_1
 10
0.0
 20
0.0
 30
0.0
  0
ENDBLK
  5
90
330
8D
100
AcDbEntity
  8
0
100
AcDbBlockEnd
  0
BLOCK
  5
95
330
93
100
AcDbEntity
  8
0
100
AcDbBlockBegin
  2
Block_1
 70
     0
 10
0.0
 20
0.0
 30
0.0
  3
Block_1
  1

  0
LWPOLYLINE
  5
97
330
93
100
AcDbEntity
  8
Layer 2
 62
    18
420
        0
370
    35
100
AcDbPolyline
 90
        3
 70
     0
 43
0.0
 10
363.8765448493068
 20
-539.1903976583344
 10
355.1710659255296
 20
-546.9485064232067
 10
369.0076165091223
 20
-553.4194279817857
  0
LINE
  5
98
330
93
100
AcDbEntity
  8
Layer 2
 62
    18
420
        0
370
    35
100
AcDbLine
 10
369.3706132509478
 20
-545.5743189537133
 30
0.0
 11
355.1710659255296
 21
-546.9485064232067
 31
0.0
  0
ENDBLK
  5
96
330
93
100
AcDbEntity
  8
0
100
AcDbBlockEnd
  0
BLOCK
  5
9B
330
99
100
AcDbEntity
  8
0
100
AcDbBlockBegin
  2
Block_2
 70
     0
 10
0.0
 20
0.0
 30
0.0
  3
Block_2
  1

  0
CIRCLE
  5
9D
330
99
100
AcDbEntity
  8
Layer 2
100
AcDbCircle
 10
469.3616612420169
 20
-465.2436355525301
 30
0.0
 40
2.698193534051424
  0
HATCH
  5
9E
330
99
100
AcDbEntity
  8
Layer 2
 62
    18
420
        0
440
 33554687
100
AcDbHatch
 10
0.0
 20
0.0
 30
0.0
210
0.0
220
0.0
230
1.0
  2
SOLID
 70
     1
 71
     1
 91
        1
 92
        1
 93
        1
 72
     2
 10
469.3616612420169
 20
-465.2436355525301
 40
2.698193534051424
 50
0.0
 51
360.0
 73
     1
 97
        1
330
9D
 75
     2
 76
     1
 98
        1
 10
0.0
 20
0.0
450
        0
451
        0
460
0.0
461
0.0
452
        0
462
0.0
453
        0
470

  0
INSERT
  5
A0
330
99
100
AcDbEntity
  8
Layer 2
100
AcDbBlockReference
  2
Block_3
 10
0.0
 20
0.0
 30
0.0
  0
ENDBLK
  5
9C
330
99
100
AcDbEntity
  8
0
100
AcDbBlockEnd
  0
BLOCK
  5
A1
330
9F
100
AcDbEntity
  8
0
100
AcDbBlockBegin
  2
Block_3
 70
     0
 10
0.0
 20
0.0
 30
0.0
  3
Block_3
  1

  0
LWPOLYLINE
  5
A3
330
9F
100
AcDbEntity
  8
Layer 2
 62
    18
420
        0
370
    35
100
AcDbPolyline
 90
        3
 70
     0
 43
0.0
 10
465.5698974575943
 20
-454.3536842865823
 10
469.5438117993835
 20
-465.3164220698218
 10
480.6870332738217
 20
-454.8688590505771
  0
LINE
  5
A4
330
9F
100
AcDbEntity
  8
Layer 2
 62
    18
420
        0
370
    35
100
AcDbLine
 10
473.5367123713577
 20
-451.620719076901
 30
0.0
 11
469.5438117993835
 21
-465.3164220698218
 31
0.0
  0
ENDBLK
  5
A2
330
9F
100
AcDbEntity
  8
0
100
AcDbBlockEnd
  0
BLOCK
  5
A9
330
A7
100
AcDbEntity
  8
0
100
AcDbBlockBegin
  2
Block_4
 70
     0
 10
0.0
 20
0.0
 30
0.0
  3
Block_4
  1

  0
ELLIPSE
  5
AB
330
A7
100
AcDbEntity
  8
Layer 2
 62
    18
420
        0
370
    18
100
AcDbEllipse
 10
295.5093954585123
 20
-305.9754184444757
 30
0.0
 11
21.83693174023983
 21
0.0
 31
0.0
210
0.0
220
0.0
230
1.0
 40
0.5640384421439056
 41
0.0
 42
6.283185307179586
  0
CIRCLE
  5
AC
330
A7
100
AcDbEntity
  8
Layer 2
 62
    18
420
        0
370
    18
100
AcDbCircle
 10
295.5093954585125
 20
-305.9754184444742
 30
0.0
 40
12.01520757106584
  0
ENDBLK
  5
AA
330
A7
100
AcDbEntity
  8
0
100
AcDbBlockEnd
  0
BLOCK
  5
D0
330
CE
100
AcDbEntity
  8
0
100
AcDbBlockBegin
  2
Block_5
 70
     0
 10
0.0
 20
0.0
 30
0.0
  3
Block_5
  1

  0
CIRCLE
  5
D2
330
CE
100
AcDbEntity
  8
Layer 2
100
AcDbCircle
 10
1423.268212194758
 20
-543.6885218434035
 30
0.0
 40
2.698193534053155
  0
HATCH
  5
D3
330
CE
100
AcDbEntity
  8
Layer 2
 62
    18
420
        0
440
 33554687
100
AcDbHatch
 10
0.0
 20
0.0
 30
0.0
210
0.0
220
0.0
230
1.0
  2
SOLID
 70
     1
 71
     1
 91
        1
 92
        1
 93
        1
 72
     2
 10
1423.268212194758
 20
-543.6885218434035
 40
2.698193534053155
 50
0.0
 51
360.0
 73
     1
 97
        1
330
D2
 75
     2
 76
     1
 98
        1
 10
0.0
 20
0.0
450
        0
451
        0
460
0.0
461
0.0
452
        0
462
0.0
453
        0
470

  0
INSERT
  5
D5
330
CE
100
AcDbEntity
  8
Layer 2
100
AcDbBlockReference
  2
Block_6
 10
0.0
 20
0.0
 30
0.0
  0
ENDBLK
  5
D1
330
CE
100
AcDbEntity
  8
0
100
AcDbBlockEnd
  0
BLOCK
  5
D6
330
D4
100
AcDbEntity
  8
0
100
AcDbBlockBegin
  2
Block_6
 70
     0
 10
0.0
 20
0.0
 30
0.0
  3
Block_6
  1

  0
LWPOLYLINE
  5
D8
330
D4
100
AcDbEntity
  8
Layer 2
 62
    18
420
        0
370
    35
100
AcDbPolyline
 90
        3
 70
     0
 43
0.0
 10
1431.97369111853
 20
-536.1265678710997
 10
1423.268212194751
 20
-543.8846766359711
 10
1437.104762778341
 20
-550.3555981945501
  0
LINE
  5
D9
330
D4
100
AcDbEntity
  8
Layer 2
 62
    18
420
        0
370
    35
100
AcDbLine
 10
1437.46775952017
 20
-542.5104891664777
 30
0.0
 11
1423.268212194751
 21
-543.8846766359711
 31
0.0
  0
ENDBLK
  5
D7
330
D4
100
AcDbEntity
  8
0
100
AcDbBlockEnd
  0
BLOCK
  5
DC
330
DA
100
AcDbEntity
  8
0
100
AcDbBlockBegin
  2
Block_7
 70
     0
 10
0.0
 20
0.0
 30
0.0
  3
Block_7
  1

  0
CIRCLE
  5
DE
330
DA
100
AcDbEntity
  8
Layer 2
100
AcDbCircle
 10
1537.458807511238
 20
-462.1798057652957
 30
0.0
 40
2.698193534052435
  0
HATCH
  5
DF
330
DA
100
AcDbEntity
  8
Layer 2
 62
    18
420
        0
440
 33554687
100
AcDbHatch
 10
0.0
 20
0.0
 30
0.0
210
0.0
220
0.0
230
1.0
  2
SOLID
 70
     1
 71
     1
 91
        1
 92
        1
 93
        1
 72
     2
 10
1537.458807511238
 20
-462.1798057652957
 40
2.698193534052435
 50
0.0
 51
360.0
 73
     1
 97
        1
330
DE
 75
     2
 76
     1
 98
        1
 10
0.0
 20
0.0
450
        0
451
        0
460
0.0
461
0.0
452
        0
462
0.0
453
        0
470

  0
INSERT
  5
E1
330
DA
100
AcDbEntity
  8
Layer 2
100
AcDbBlockReference
  2
Block_8
 10
0.0
 20
0.0
 30
0.0
  0
ENDBLK
  5
DD
330
DA
100
AcDbEntity
  8
0
100
AcDbBlockEnd
  0
BLOCK
  5
E2
330
E0
100
AcDbEntity
  8
0
100
AcDbBlockBegin
  2
Block_8
 70
     0
 10
0.0
 20
0.0
 30
0.0
  3
Block_8
  1

  0
LWPOLYLINE
  5
E4
330
E0
100
AcDbEntity
  8
Layer 2
 62
    18
420
        0
370
    35
100
AcDbPolyline
 90
        3
 70
     0
 43
0.0
 10
1533.66704372682
 20
-451.2898544993476
 10
1537.64095806861
 20
-462.2525922825871
 10
1548.78417954305
 20
-451.8050292633433
  0
LINE
  5
E5
330
E0
100
AcDbEntity
  8
Layer 2
 62
    18
420
        0
370
    35
100
AcDbLine
 10
1541.63385864058
 20
-448.5568892896663
 30
0.0
 11
1537.64095806861
 21
-462.2525922825871
 31
0.0
  0
ENDBLK
  5
E3
330
E0
100
AcDbEntity
  8
0
100
AcDbBlockEnd
  0
BLOCK
  5
EA
330
E8
100
AcDbEntity
  8
0
100
AcDbBlockBegin
  2
Block_9
 70
     0
 10
0.0
 20
0.0
 30
0.0
  3
Block_9
  1

  0
ELLIPSE
  5
EC
330
E8
100
AcDbEntity
  8
Layer 2
 62
    18
420
        0
370
    18
100
AcDbEllipse
 10
1363.60654172774
 20
-302.9115886572404
 30
0.0
 11
21.83693174024075
 21
0.0
 31
0.0
210
0.0
220
0.0
230
1.0
 40
0.5640384421438716
 41
0.0
 42
6.283185307179586
  0
CIRCLE
  5
ED
330
E8
100
AcDbEntity
  8
Layer 2
 62
    18
420
        0
370
    18
100
AcDbCircle
 10
1363.606541727738
 20
-302.9115886572395
 30
0.0
 40
12.01520757106686
  0
ENDBLK
  5
EB
330
E8
100
AcDbEntity
  8
0
100
AcDbBlockEnd
  0
BLOCK
  5
109
330
107
100
AcDbEntity
  8
0
100
AcDbBlockBegin
  2
Block_10
 70
     0
 10
0.0
 20
0.0
 30
0.0
  3
Block_10
  1

  0
ELLIPSE
  5
10B
330
107
100
AcDbEntity
  8
Layer 3
 62
    18
420
        0
370
    18
100
AcDbEllipse
 10
890.9574468085125
 20
-302.7021276595747
 30
0.0
 11
20.12974046374211
 21
0.0
 31
0.0
210
0.0
220
0.0
230
1.0
 40
0.5843716658504592
 41
0.0
 42
6.283185307179586
  0
ELLIPSE
  5
10C
330
107
100
AcDbEntity
  8
Layer 3
 62
    18
420
        0
370
    18
100
AcDbEllipse
 10
890.9574468085125
 20
-302.7021276595747
 30
0.0
 11
0.0000000000000007
 21
11.4751476641054
 31
0.0
210
0.0
220
0.0
230
1.0
 40
0.9652049801609623
 41
0.0
 42
6.283185307179586
  0
ENDBLK
  5
10A
330
107
100
AcDbEntity
  8
0
100
AcDbBlockEnd
  0
BLOCK
  5
123
330
121
100
AcDbEntity
  8
0
100
AcDbBlockBegin
  2
Block_11
 70
     0
 10
0.0
 20
0.0
 30
0.0
  3
Block_11
  1

  0
ELLIPSE
  5
125
330
121
100
AcDbEntity
  8
Layer 3
 62
    18
420
        0
370
    18
100
AcDbEllipse
 10
1959.054593077738
 20
-299.6382978723393
 30
0.0
 11
20.12974046374211
 21
0.0
 31
0.0
210
0.0
220
0.0
230
1.0
 40
0.5843716658504931
 41
0.0
 42
6.283185307179586
  0
ELLIPSE
  5
126
330
121
100
AcDbEntity
  8
Layer 3
 62
    18
420
        0
370
    18
100
AcDbEllipse
 10
1959.054593077738
 20
-299.6382978723395
 30
0.0
 11
0.0000000000000007
 21
11.47514766410586
 31
0.0
210
0.0
220
0.0
230
1.0
 40
0.9652049801605674
 41
0.0
 42
6.283185307179586
  0
ENDBLK
  5
124
330
121
100
AcDbEntity
  8
0
100
AcDbBlockEnd
  0
ENDSEC
  0
SECTION
  2
ENTITIES
  0
LWPOLYLINE
  5
79
330
70
100
AcDbEntity
  8
Layer 2
100
AcDbPolyline
 90
        4
 70
     1
 43
0.0
 10
426.0212765957458
 20
-805.9361702127681
 10
94.36170212766047
 20
-805.9361702127681
 10
94.36170212766047
 20
-214.6170212765974
 10
426.0212765957458
 20
-214.6170212765974
  0
SPLINE
  5
7A
330
70
100
AcDbEntity
  8
Layer 2
 62
    18
420
        0
370
    35
100
AcDbSpline
210
0.0
220
0.0
230
1.0
 70
     8
 71
     3
 72
    11
 73
     7
 74
     0
 42
0.0000000001
 43
0.0000000001
 40
0.0
 40
0.0
 40
0.0
 40
0.0
 40
1.0
 40
1.0
 40
1.0
 40
2.0
 40
2.0
 40
2.0
 40
2.0
 10
282.3609302970726
 20
-641.0717162418805
 30
0.0
 10
282.6647491239828
 20
-665.4153080075848
 30
0.0
 10
285.8193230132738
 20
-700.7212493135484
 30
0.0
 10
299.2475443251205
 20
-740.8568871295574
 30
0.0
 10
312.4070925874548
 20
-780.1893788833476
 30
0.0
 10
330.6361755415565
 20
-809.8224336577004
 30
0.0
 10
344.7944159283152
 20
-829.3229077496144
 30
0.0
  0
SPLINE
  5
7B
330
70
100
AcDbEntity
  8
Layer 2
 62
    18
420
        0
370
    35
100
AcDbSpline
210
0.0
220
0.0
230
1.0
 70
     8
 71
     3
 72
    11
 73
     7
 74
     0
 42
0.0000000001
 43
0.0000000001
 40
0.0
 40
0.0
 40
0.0
 40
0.0
 40
1.0
 40
1.0
 40
1.0
 40
2.0
 40
2.0
 40
2.0
 40
2.0
 10
223.864822949512
 20
-627.806488451446
 30
0.0
 10
233.4882214084573
 20
-660.7086922108464
 30
0.0
 10
242.2647192656559
 20
-702.7386825818175
 30
0.0
 10
244.2088984399652
 20
-751.8820899450766
 30
0.0
 10
245.2769470190069
 20
-778.8783927438635
 30
0.0
 10
244.1058242522867
 20
-803.5378344817036
 30
0.0
 10
241.8285769939121
 20
-825.3255255074218
 30
0.0
  0
SPLINE
  5
7C
330
70
100
AcDbEntity
  8
Layer 2
 62
    18
420
        0
370
    35
100
AcDbSpline
210
0.0
220
0.0
230
1.0
 70
     8
 71
     3
 72
    11
 73
     7
 74
     0
 42
0.0000000001
 43
0.0000000001
 40
0.0
 40
0.0
 40
0.0
 40
0.0
 40
1.0
 40
1.0
 40
1.0
 40
2.0
 40
2.0
 40
2.0
 40
2.0
 10
262.8448461840481
 20
-353.2868506183313
 30
0.0
 10
285.5315518131192
 20
-400.0764742928131
 30
0.0
 10
290.1233530321251
 20
-439.4697077153614
 30
0.0
 10
288.1843660277173
 20
-470.3314848546815
 30
0.0
 10
283.343052199546
 20
-547.3861707349642
 30
0.0
 10
262.8766532179016
 20
-552.5900301791625
 30
0.0
 10
252.2276089007801
 20
-634.4352620041318
 30
0.0
  0
CIRCLE
  5
7D
330
70
100
AcDbEntity
  8
Layer 2
 62
    18
420
        0
370
    35
100
AcDbCircle
 10
264.5374772058296
 20
-318.493397042814
 30
0.0
 40
75.53265998726056
  0
ELLIPSE
  5
7E
330
70
100
AcDbEntity
  8
Layer 2
 62
    18
420
        0
370
    18
100
AcDbEllipse
 10
232.9635861905526
 20
-305.9754184444757
 30
0.0
 11
21.83693174023938
 21
0.0
 31
0.0
210
0.0
220
0.0
230
1.0
 40
0.5640384421439172
 41
0.0
 42
6.283185307179586
  0
CIRCLE
  5
7F
330
70
100
AcDbEntity
  8
Layer 2
 62
    18
420
        0
370
    35
100
AcDbCircle
 10
252.2276089007789
 20
-625.9383161037249
 30
0.0
 40
53.68371246195732
  0
ELLIPSE
  5
80
330
70
100
AcDbEntity
  8
Layer 2
 62
    18
420
        0
370
    35
100
AcDbEllipse
 10
354.5805583914309
 20
-831.3603419107639
 30
0.0
 11
-14.62271490341383
 21
4.888619832133814
 31
0.0
210
0.0
220
0.0
230
1.0
 40
0.3652173913041269
 41
0.0
 42
6.283185307179585
  0
ELLIPSE
  5
81
330
70
100
AcDbEntity
  8
Layer 2
 62
    18
420
        0
370
    35
100
AcDbEllipse
 10
252.2276089007814
 20
-829.7383663432301
 30
0.0
 11
-14.62271490341304
 21
4.888619832138242
 31
0.0
210
0.0
220
0.0
230
1.0
 40
0.3652173913043399
 41
0.0
 42
6.283185307179585
  0
CIRCLE
  5
82
330
70
100
AcDbEntity
  8
Layer 2
100
AcDbCircle
 10
298.5916962193921
 20
-740.4357222702574
 30
0.0
 40
2.698193534053037
  0
HATCH
  5
83
330
70
100
AcDbEntity
  8
Layer 2
 62
    18
420
        0
440
 33554687
100
AcDbHatch
 10
0.0
 20
0.0
 30
0.0
210
0.0
220
0.0
230
1.0
  2
SOLID
 70
     1
 71
     1
 91
        1
 92
        1
 93
        1
 72
     2
 10
298.5916962193921
 20
-740.4357222702574
 40
2.698193534053037
 50
0.0
 51
360.0
 73
     1
 97
        1
330
82
 75
     2
 76
     1
 98
        1
 10
0.0
 20
0.0
450
        0
451
        0
460
0.0
461
0.0
452
        0
462
0.0
453
        0
470

  0
CIRCLE
  5
84
330
70
100
AcDbEntity
  8
Layer 2
100
AcDbCircle
 10
413.1392291710056
 20
-501.8192990684014
 30
0.0
 40
2.698193534052797
  0
HATCH
  5
85
330
70
100
AcDbEntity
  8
Layer 2
 62
    18
420
        0
440
 33554687
100
AcDbHatch
 10
0.0
 20
0.0
 30
0.0
210
0.0
220
0.0
230
1.0
  2
SOLID
 70
     1
 71
     1
 91
        1
 92
        1
 93
        1
 72
     2
 10
413.1392291710056
 20
-501.8192990684014
 40
2.698193534052797
 50
0.0
 51
360.0
 73
     1
 97
        1
330
84
 75
     2
 76
     1
 98
        1
 10
0.0
 20
0.0
450
        0
451
        0
460
0.0
461
0.0
452
        0
462
0.0
453
        0
470

  0
CIRCLE
  5
86
330
70
100
AcDbEntity
  8
Layer 2
100
AcDbCircle
 10
286.7095892899556
 20
-531.8766157332183
 30
0.0
 40
2.698193534052977
  0
HATCH
  5
87
330
70
100
AcDbEntity
  8
Layer 2
 62
    18
420
        0
440
 33554687
100
AcDbHatch
 10
0.0
 20
0.0
 30
0.0
210
0.0
220
0.0
230
1.0
  2
SOLID
 70
     1
 71
     1
 91
        1
 92
        1
 93
        1
 72
     2
 10
286.7095892899556
 20
-531.8766157332183
 40
2.698193534052977
 50
0.0
 51
360.0
 73
     1
 97
        1
330
86
 75
     2
 76
     1
 98
        1
 10
0.0
 20
0.0
450
        0
451
        0
460
0.0
461
0.0
452
        0
462
0.0
453
        0
470

  0
CIRCLE
  5
88
330
70
100
AcDbEntity
  8
Layer 2
100
AcDbCircle
 10
243.1795892067416
 20
-747.3911108898437
 30
0.0
 40
2.698193534052977
  0
HATCH
  5
89
330
70
100
AcDbEntity
  8
Layer 2
 62
    18
420
        0
440
 33554687
100
AcDbHatch
 10
0.0
 20
0.0
 30
0.0
210
0.0
220
0.0
230
1.0
  2
SOLID
 70
     1
 71
     1
 91
        1
 92
        1
 93
        1
 72
     2
 10
243.1795892067416
 20
-747.3911108898437
 40
2.698193534052977
 50
0.0
 51
360.0
 73
     1
 97
        1
330
88
 75
     2
 76
     1
 98
        1
 10
0.0
 20
0.0
450
        0
451
        0
460
0.0
461
0.0
452
        0
462
0.0
453
        0
470

  0
LWPOLYLINE
  5
8A
330
70
100
AcDbEntity
  8
Layer 2
 62
    18
420
        0
370
    35
100
AcDbPolyline
 90
        3
 70
     0
 43
0.0
 10
330.2829010199011
 20
-453.7333179048337
 10
413.4073726277984
 20
-502.7768247154926
 10
471.5945027533307
 20
-465.1026690351391
  0
SPLINE
  5
8B
330
70
100
AcDbEntity
  8
Layer 2
 62
    18
420
        0
370
    35
100
AcDbSpline
210
0.0
220
0.0
230
1.0
 70
     9
 71
     3
 72
    26
 73
    22
 74
     0
 42
0.0000000001
 43
0.0000000001
 40
0.0
 40
0.0
 40
0.0
 40
0.0
 40
1.0
 40
1.0
 40
1.0
 40
2.0
 40
2.0
 40
2.0
 40
3.0
 40
3.0
 40
3.0
 40
4.0
 40
4.0
 40
4.0
 40
5.0
 40
5.0
 40
5.0
 40
6.0
 40
6.0
 40
6.0
 40
7.0
 40
7.0
 40
7.0
 40
7.0
 10
197.3039624860221
 20
-420.3520697795593
 30
0.0
 10
189.284671766025
 20
-432.8549878314269
 30
0.0
 10
224.7856969753138
 20
-492.8052089498105
 30
0.0
 10
276.0892747130238
 20
-494.4820644864676
 30
0.0
 10
319.0963239670828
 20
-495.8877353107018
 30
0.0
 10
348.3489166760492
 20
-455.5308401620641
 30
0.0
 10
353.9030521742688
 20
-437.1241527521406
 30
0.0
 10
355.1813283176298
 20
-432.8878186192296
 30
0.0
 10
358.6299640618991
 20
-421.4588962532916
 30
0.0
 10
353.232245821313
 20
-415.995516437104
 30
0.0
 10
350.0847393541671
 20
-412.8097274274032
 30
0.0
 10
345.1702229648144
 20
-412.8888179577233
 30
0.0
 10
343.1710324285104
 20
-412.9771283674017
 30
0.0
 10
323.997692006742
 20
-413.8241145889597
 30
0.0
 10
280.5384677998154
 20
-415.8561359130635
 30
0.0
 10
277.4375417666424
 20
-415.995516437104
 30
0.0
 10
261.8896182542294
 20
-416.6943031195842
 30
0.0
 10
247.6631840588662
 20
-415.2398871940504
 30
0.0
 10
209.3132963007729
 20
-416.9208315467712
 30
0.0
 10
202.7253317214809
 20
-417.2095741164094
 30
0.0
 10
199.0441946716573
 20
-417.6388597166132
 30
0.0
 10
197.3039624860221
 20
-420.3520697795593
 30
0.0
  0
LWPOLYLINE
  5
8C
330
70
100
AcDbEntity
  8
Layer 2
 62
    18
420
        0
370
    35
100
AcDbPolyline
 90
        3
 70
     0
 43
0.0
 10
225.8486297879553
 20
-457.2694299847062
 10
286.5391771112827
 20
-532.3134224556197
 10
356.1695091853581
 20
-546.7523516306392
  0
INSERT
  5
8E
330
70
100
AcDbEntity
  8
Layer 2
100
AcDbBlockReference
  2
Block_0
 10
0.0
 20
0.0
 30
0.0
  0
INSERT
  5
9A
330
70
100
AcDbEntity
  8
Layer 2
100
AcDbBlockReference
  2
Block_2
 10
0.0
 20
0.0
 30
0.0
  0
CIRCLE
  5
A5
330
70
100
AcDbEntity
  8
Layer 2
 62
    18
420
        0
370
    18
100
AcDbCircle
 10
232.9635861905524
 20
-305.9754184444742
 30
0.0
 40
12.01520757106584
  0
SPLINE
  5
A6
330
70
100
AcDbEntity
  8
Layer 2
 62
    18
420
        0
370
    35
100
AcDbSpline
210
0.0
220
0.0
230
1.0
 70
     8
 71
     3
 72
    11
 73
     7
 74
     0
 42
0.0000000001
 43
0.0000000001
 40
0.0
 40
0.0
 40
0.0
 40
0.0
 40
1.0
 40
1.0
 40
1.0
 40
2.0
 40
2.0
 40
2.0
 40
2.0
 10
253.8620076489033
 20
-294.9656579703778
 30
0.0
 10
251.2319812910964
 20
-293.2209927321064
 30
0.0
 10
242.7675905357664
 20
-288.0853597915429
 30
0.0
 10
230.9357891452919
 20
-288.7983697157324
 30
0.0
 10
219.1296601504427
 20
-289.5098412192074
 30
0.0
 10
211.354385722625
 20
-295.5996796061527
 30
0.0
 10
208.9480072757687
 20
-297.6470771950817
 30
0.0
  0
INSERT
  5
A8
330
70
100
AcDbEntity
  8
Layer 2
100
AcDbBlockReference
  2
Block_4
 10
0.0
 20
0.0
 30
0.0
  0
SPLINE
  5
AD
330
70
100
AcDbEntity
  8
Layer 2
 62
    18
420
        0
370
    35
100
AcDbSpline
210
0.0
220
0.0
230
1.0
 70
     8
 71
     3
 72
    11
 73
     7
 74
     0
 42
0.0000000001
 43
0.0000000001
 40
0.0
 40
0.0
 40
0.0
 40
0.0
 40
1.0
 40
1.0
 40
1.0
 40
2.0
 40
2.0
 40
2.0
 40
2.0
 10
316.4078169168633
 20
-294.9656579703778
 30
0.0
 10
313.7777905590556
 20
-293.2209927321064
 30
0.0
 10
305.3133998037274
 20
-288.0853597915429
 30
0.0
 10
293.4815984132519
 20
-288.7983697157324
 30
0.0
 10
281.6754694184019
 20
-289.5098412192074
 30
0.0
 10
273.9001949905842
 20
-295.5996796061527
 30
0.0
 10
271.4938165437279
 20
-297.6470771950817
 30
0.0
  0
SPLINE
  5
AE
330
70
100
AcDbEntity
  8
Layer 2
 62
    18
420
        0
370
    18
100
AcDbSpline
210
0.0
220
0.0
230
1.0
 70
     8
 71
     3
 72
    11
 73
     7
 74
     0
 42
0.0000000001
 43
0.0000000001
 40
0.0
 40
0.0
 40
0.0
 40
0.0
 40
1.0
 40
1.0
 40
1.0
 40
2.0
 40
2.0
 40
2.0
 40
2.0
 10
246.1528853116852
 20
-366.0864722599908
 30
0.0
 10
261.7831641177272
 20
-364.9375990840435
 30
0.0
 10
277.1016624073163
 20
-365.4805477829905
 30
0.0
 10
284.4820841160754
 20
-367.4124332210322
 30
0.0
 10
286.0929227253227
 20
-367.8340907941811
 30
0.0
 10
288.3280619627931
 20
-368.5842915707681
 30
0.0
 10
289.1228804011489
 20
-369.777670142852
 30
0.0
  0
SPLINE
  5
AF
330
70
100
AcDbEntity
  8
Layer 2
 62
    18
420
        0
370
    25
100
AcDbSpline
210
0.0
220
0.0
230
1.0
 70
     8
 71
     3
 72
    17
 73
    13
 74
     0
 42
0.0000000001
 43
0.0000000001
 40
0.0
 40
0.0
 40
0.0
 40
0.0
 40
1.0
 40
1.0
 40
1.0
 40
2.0
 40
2.0
 40
2.0
 40
3.0
 40
3.0
 40
3.0
 40
4.0
 40
4.0
 40
4.0
 40
4.0
 10
259.1153297739056
 20
-317.389101355172
 30
0.0
 10
258.4449629488172
 20
-326.4978980860824
 30
0.0
 10
260.732786849584
 20
-330.8420135705164
 30
0.0
 10
263.3386792324782
 20
-333.0755119899022
 30
0.0
 10
267.479242426507
 20
-336.6243120420777
 30
0.0
 10
273.5084093466367
 20
-336.399462239945
 30
0.0
 10
273.5951378142554
 20
-338.5054640428571
 30
0.0
 10
273.6571553991916
 20
-340.0113856169446
 30
0.0
 10
270.5828139096093
 20
-341.3588498577328
 30
0.0
 10
268.3752763397306
 20
-342.3264684096939
 30
0.0
 10
265.490449051561
 20
-343.5909060077047
 30
0.0
 10
262.8618649631708
 20
-344.0005585978197
 30
0.0
 10
261.0348942168275
 20
-344.1364684525615
 30
0.0
  0
SPLINE
  5
B0
330
70
100
AcDbEntity
  8
Layer 2
100
AcDbSpline
210
0.0
220
0.0
230
1.0
 70
     9
 71
     3
 72
    17
 73
    13
 74
     0
 42
0.0000000001
 43
0.0000000001
 40
0.0
 40
0.0
 40
0.0
 40
0.0
 40
1.0
 40
1.0
 40
1.0
 40
2.0
 40
2.0
 40
2.0
 40
3.0
 40
3.0
 40
3.0
 40
4.0
 40
4.0
 40
4.0
 40
4.0
 10
911.6435546874999
 20
-200.806640625
 30
0.0
 10
911.6435546874999
 20
-197.466796875
 30
0.0
 10
913.900390625
 20
-195.11962890625
 30
0.0
 10
917.0595703125
 20
-195.11962890625
 30
0.0
 10
920.2197265625001
 20
-195.11962890625
 30
0.0
 10
922.3857421874999
 20
-197.466796875
 30
0.0
 10
922.3857421874999
 20
-200.806640625
 30
0.0
 10
922.3857421874999
 20
-203.96630859375
 30
0.0
 10
920.3095703124999
 20
-206.40380859375
 30
0.0
 10
916.9697265625
 20
-206.40380859375
 30
0.0
 10
913.810546875
 20
-206.40380859375
 30
0.0
 10
911.6435546874999
 20
-203.96630859375
 30
0.0
 10
911.6435546874999
 20
-200.806640625
 30
0.0
  0
SPLINE
  5
B1
330
70
100
AcDbEntity
  8
Layer 2
100
AcDbSpline
210
0.0
220
0.0
230
1.0
 70
    11
 71
     3
 72
    41
 73
    37
 74
     0
 42
0.0000000001
 43
0.0000000001
 40
0.0
 40
0.0
 40
0.0
 40
0.0
 40
1.0
 40
1.0
 40
1.0
 40
2.0
 40
2.0
 40
2.0
 40
3.0
 40
3.0
 40
3.0
 40
4.0
 40
4.0
 40
4.0
 40
5.0
 40
5.0
 40
5.0
 40
6.0
 40
6.0
 40
6.0
 40
7.0
 40
7.0
 40
7.0
 40
8.0
 40
8.0
 40
8.0
 40
9.0
 40
9.0
 40
9.0
 40
10.0
 40
10.0
 40
10.0
 40
11.0
 40
11.0
 40
11.0
 40
12.0
 40
12.0
 40
12.0
 40
12.0
 10
913.6298828124999
 20
-188.1689453125
 30
0.0
 10
913.6298828124999
 20
-188.1689453125
 30
0.0
 10
913.4492187499999
 20
-185.82177734375
 30
0.0
 10
913.4492187499999
 20
-185.82177734375
 30
0.0
 10
912.9072265625
 20
-180.947265625
 30
0.0
 10
914.5322265624999
 20
-175.62109375
 30
0.0
 10
919.0458984375
 20
-170.205078125
 30
0.0
 10
923.1083984375
 20
-165.42041015625
 30
0.0
 10
925.3652343749999
 20
-161.89990234375
 30
0.0
 10
925.3652343749999
 20
-157.837890625
 30
0.0
 10
925.3652343749999
 20
-153.23388671875
 30
0.0
 10
922.4765624999999
 20
-150.16455078125
 30
0.0
 10
916.7890625
 20
-150.07470703125
 30
0.0
 10
913.5390624999999
 20
-150.07470703125
 30
0.0
 10
909.9287109375
 20
-151.15771484375
 30
0.0
 10
907.6718749999999
 20
-152.873046875
 30
0.0
 10
907.6718749999999
 20
-152.873046875
 30
0.0
 10
905.5048828125
 20
-147.18603515625
 30
0.0
 10
905.5048828125
 20
-147.18603515625
 30
0.0
 10
908.484375
 20
-145.01953125
 30
0.0
 10
913.6298828124999
 20
-143.5751953125
 30
0.0
 10
918.4140624999999
 20
-143.5751953125
 30
0.0
 10
928.794921875
 20
-143.5751953125
 30
0.0
 10
933.4892578125
 20
-149.984375
 30
0.0
 10
933.4892578125
 20
-156.8447265625
 30
0.0
 10
933.4892578125
 20
-162.9833984375
 30
0.0
 10
930.0585937500001
 20
-167.40673828125
 30
0.0
 10
925.7255859375
 20
-172.55224609375
 30
0.0
 10
921.75390625
 20
-177.24609375
 30
0.0
 10
920.3095703124999
 20
-181.21826171875
 30
0.0
 10
920.5800781249999
 20
-185.82177734375
 30
0.0
 10
920.5800781249999
 20
-185.82177734375
 30
0.0
 10
920.6708984375
 20
-188.1689453125
 30
0.0
 10
920.6708984375
 20
-188.1689453125
 30
0.0
 10
920.6708984375
 20
-188.1689453125
 30
0.0
 10
913.6298828124999
 20
-188.1689453125
 30
0.0
 10
913.6298828124999
 20
-188.1689453125
 30
0.0
  0
HATCH
  5
B2
330
70
100
AcDbEntity
  8
Layer 2
 62
    18
420
        0
440
 33554687
100
AcDbHatch
 10
0.0
 20
0.0
 30
0.0
210
0.0
220
0.0
230
1.0
  2
SOLID
 70
     1
 71
     1
 91
        2
 92
        1
 93
        1
 72
     4
 94
        3
 73
     0
 74
     0
 95
       17
 96
       13
 40
0.0
 40
0.0
 40
0.0
 40
0.0
 40
1.0
 40
1.0
 40
1.0
 40
2.0
 40
2.0
 40
2.0
 40
3.0
 40
3.0
 40
3.0
 40
4.0
 40
4.0
 40
4.0
 40
4.0
 10
911.6435546874999
 20
-200.806640625
 10
911.6435546874999
 20
-197.466796875
 10
913.900390625
 20
-195.11962890625
 10
917.0595703125
 20
-195.11962890625
 10
920.2197265625001
 20
-195.11962890625
 10
922.3857421874999
 20
-197.466796875
 10
922.3857421874999
 20
-200.806640625
 10
922.3857421874999
 20
-203.96630859375
 10
920.3095703124999
 20
-206.40380859375
 10
916.9697265625
 20
-206.40380859375
 10
913.810546875
 20
-206.40380859375
 10
911.6435546874999
 20
-203.96630859375
 10
911.6435546874999
 20
-200.806640625
 97
        0
 97
        1
330
B0
 92
        1
 93
        1
 72
     4
 94
        3
 73
     0
 74
     0
 95
       41
 96
       37
 40
0.0
 40
0.0
 40
0.0
 40
0.0
 40
1.0
 40
1.0
 40
1.0
 40
2.0
 40
2.0
 40
2.0
 40
3.0
 40
3.0
 40
3.0
 40
4.0
 40
4.0
 40
4.0
 40
5.0
 40
5.0
 40
5.0
 40
6.0
 40
6.0
 40
6.0
 40
7.0
 40
7.0
 40
7.0
 40
8.0
 40
8.0
 40
8.0
 40
9.0
 40
9.0
 40
9.0
 40
10.0
 40
10.0
 40
10.0
 40
11.0
 40
11.0
 40
11.0
 40
12.0
 40
12.0
 40
12.0
 40
12.0
 10
913.6298828124999
 20
-188.1689453125
 10
913.6298828124999
 20
-188.1689453125
 10
913.4492187499999
 20
-185.82177734375
 10
913.4492187499999
 20
-185.82177734375
 10
912.9072265625
 20
-180.947265625
 10
914.5322265624999
 20
-175.62109375
 10
919.0458984375
 20
-170.205078125
 10
923.1083984375
 20
-165.42041015625
 10
925.3652343749999
 20
-161.89990234375
 10
925.3652343749999
 20
-157.837890625
 10
925.3652343749999
 20
-153.23388671875
 10
922.4765624999999
 20
-150.16455078125
 10
916.7890625
 20
-150.07470703125
 10
913.5390624999999
 20
-150.07470703125
 10
909.9287109375
 20
-151.15771484375
 10
907.6718749999999
 20
-152.873046875
 10
907.6718749999999
 20
-152.873046875
 10
905.5048828125
 20
-147.18603515625
 10
905.5048828125
 20
-147.18603515625
 10
908.484375
 20
-145.01953125
 10
913.6298828124999
 20
-143.5751953125
 10
918.4140624999999
 20
-143.5751953125
 10
928.794921875
 20
-143.5751953125
 10
933.4892578125
 20
-149.984375
 10
933.4892578125
 20
-156.8447265625
 10
933.4892578125
 20
-162.9833984375
 10
930.0585937500001
 20
-167.40673828125
 10
925.7255859375
 20
-172.55224609375
 10
921.75390625
 20
-177.24609375
 10
920.3095703124999
 20
-181.21826171875
 10
920.5800781249999
 20
-185.82177734375
 10
920.5800781249999
 20
-185.82177734375
 10
920.6708984375
 20
-188.1689453125
 10
920.6708984375
 20
-188.1689453125
 10
920.6708984375
 20
-188.1689453125
 10
913.6298828124999
 20
-188.1689453125
 10
913.6298828124999
 20
-188.1689453125
 97
        0
 97
        1
330
B1
 75
     2
 76
     1
 98
        1
 10
0.0
 20
0.0
450
        0
451
        0
460
0.0
461
0.0
452
        0
462
0.0
453
        0
470

  0
SPLINE
  5
B3
330
70
100
AcDbEntity
  8
Layer 2
100
AcDbSpline
210
0.0
220
0.0
230
1.0
 70
     9
 71
     3
 72
    17
 73
    13
 74
     0
 42
0.0000000001
 43
0.0000000001
 40
0.0
 40
0.0
 40
0.0
 40
0.0
 40
1.0
 40
1.0
 40
1.0
 40
2.0
 40
2.0
 40
2.0
 40
3.0
 40
3.0
 40
3.0
 40
4.0
 40
4.0
 40
4.0
 40
4.0
 10
254.7880859375
 20
-182.69287109375
 30
0.0
 10
254.7880859375
 20
-179.1953125
 30
0.0
 10
257.15087890625
 20
-176.7373046875
 30
0.0
 10
260.45947265625
 20
-176.7373046875
 30
0.0
 10
263.76806640625
 20
-176.7373046875
 30
0.0
 10
266.03662109375
 20
-179.1953125
 30
0.0
 10
266.03662109375
 20
-182.69287109375
 30
0.0
 10
266.03662109375
 20
-186.0009765625
 30
0.0
 10
263.86279296875
 20
-188.5537109375
 30
0.0
 10
260.365234375
 20
-188.5537109375
 30
0.0
 10
257.056640625
 20
-188.5537109375
 30
0.0
 10
254.7880859375
 20
-186.0009765625
 30
0.0
 10
254.7880859375
 20
-182.69287109375
 30
0.0
  0
SPLINE
  5
B4
330
70
100
AcDbEntity
  8
Layer 2
100
AcDbSpline
210
0.0
220
0.0
230
1.0
 70
    11
 71
     3
 72
    41
 73
    37
 74
     0
 42
0.0000000001
 43
0.0000000001
 40
0.0
 40
0.0
 40
0.0
 40
0.0
 40
1.0
 40
1.0
 40
1.0
 40
2.0
 40
2.0
 40
2.0
 40
3.0
 40
3.0
 40
3.0
 40
4.0
 40
4.0
 40
4.0
 40
5.0
 40
5.0
 40
5.0
 40
6.0
 40
6.0
 40
6.0
 40
7.0
 40
7.0
 40
7.0
 40
8.0
 40
8.0
 40
8.0
 40
9.0
 40
9.0
 40
9.0
 40
10.0
 40
10.0
 40
10.0
 40
11.0
 40
11.0
 40
11.0
 40
12.0
 40
12.0
 40
12.0
 40
12.0
 10
256.86767578125
 20
-169.458984375
 30
0.0
 10
256.86767578125
 20
-169.458984375
 30
0.0
 10
256.6787109375
 20
-167.0009765625
 30
0.0
 10
256.6787109375
 20
-167.0009765625
 30
0.0
 10
256.111328125
 20
-161.896484375
 30
0.0
 10
257.81298828125
 20
-156.3193359375
 30
0.0
 10
262.5390625
 20
-150.6474609375
 30
0.0
 10
266.79296875
 20
-145.6376953125
 30
0.0
 10
269.15625
 20
-141.951171875
 30
0.0
 10
269.15625
 20
-137.697265625
 30
0.0
 10
269.15625
 20
-132.87646484375
 30
0.0
 10
266.13134765625
 20
-129.66259765625
 30
0.0
 10
260.17626953125
 20
-129.56787109375
 30
0.0
 10
256.77294921875
 20
-129.56787109375
 30
0.0
 10
252.99169921875
 20
-130.7021484375
 30
0.0
 10
250.62890625
 20
-132.498046875
 30
0.0
 10
250.62890625
 20
-132.498046875
 30
0.0
 10
248.35986328125
 20
-126.54296875
 30
0.0
 10
248.35986328125
 20
-126.54296875
 30
0.0
 10
251.4794921875
 20
-124.2744140625
 30
0.0
 10
256.86767578125
 20
-122.76171875
 30
0.0
 10
261.87744140625
 20
-122.76171875
 30
0.0
 10
272.748046875
 20
-122.76171875
 30
0.0
 10
277.66357421875
 20
-129.47314453125
 30
0.0
 10
277.66357421875
 20
-136.65771484375
 30
0.0
 10
277.66357421875
 20
-143.08544921875
 30
0.0
 10
274.07177734375
 20
-147.71728515625
 30
0.0
 10
269.5341796875
 20
-153.10546875
 30
0.0
 10
265.375
 20
-158.02099609375
 30
0.0
 10
263.86279296875
 20
-162.18017578125
 30
0.0
 10
264.14599609375
 20
-167.0009765625
 30
0.0
 10
264.14599609375
 20
-167.0009765625
 30
0.0
 10
264.24072265625
 20
-169.458984375
 30
0.0
 10
264.24072265625
 20
-169.458984375
 30
0.0
 10
264.24072265625
 20
-169.458984375
 30
0.0
 10
256.86767578125
 20
-169.458984375
 30
0.0
 10
256.86767578125
 20
-169.458984375
 30
0.0
  0
HATCH
  5
B5
330
70
100
AcDbEntity
  8
Layer 2
 62
    18
420
        0
440
 33554687
100
AcDbHatch
 10
0.0
 20
0.0
 30
0.0
210
0.0
220
0.0
230
1.0
  2
SOLID
 70
     1
 71
     1
 91
        2
 92
        1
 93
        1
 72
     4
 94
        3
 73
     0
 74
     0
 95
       17
 96
       13
 40
0.0
 40
0.0
 40
0.0
 40
0.0
 40
1.0
 40
1.0
 40
1.0
 40
2.0
 40
2.0
 40
2.0
 40
3.0
 40
3.0
 40
3.0
 40
4.0
 40
4.0
 40
4.0
 40
4.0
 10
254.7880859375
 20
-182.69287109375
 10
254.7880859375
 20
-179.1953125
 10
257.15087890625
 20
-176.7373046875
 10
260.45947265625
 20
-176.7373046875
 10
263.76806640625
 20
-176.7373046875
 10
266.03662109375
 20
-179.1953125
 10
266.03662109375
 20
-182.69287109375
 10
266.03662109375
 20
-186.0009765625
 10
263.86279296875
 20
-188.5537109375
 10
260.365234375
 20
-188.5537109375
 10
257.056640625
 20
-188.5537109375
 10
254.7880859375
 20
-186.0009765625
 10
254.7880859375
 20
-182.69287109375
 97
        0
 97
        1
330
B3
 92
        1
 93
        1
 72
     4
 94
        3
 73
     0
 74
     0
 95
       41
 96
       37
 40
0.0
 40
0.0
 40
0.0
 40
0.0
 40
1.0
 40
1.0
 40
1.0
 40
2.0
 40
2.0
 40
2.0
 40
3.0
 40
3.0
 40
3.0
 40
4.0
 40
4.0
 40
4.0
 40
5.0
 40
5.0
 40
5.0
 40
6.0
 40
6.0
 40
6.0
 40
7.0
 40
7.0
 40
7.0
 40
8.0
 40
8.0
 40
8.0
 40
9.0
 40
9.0
 40
9.0
 40
10.0
 40
10.0
 40
10.0
 40
11.0
 40
11.0
 40
11.0
 40
12.0
 40
12.0
 40
12.0
 40
12.0
 10
256.86767578125
 20
-169.458984375
 10
256.86767578125
 20
-169.458984375
 10
256.6787109375
 20
-167.0009765625
 10
256.6787109375
 20
-167.0009765625
 10
256.111328125
 20
-161.896484375
 10
257.81298828125
 20
-156.3193359375
 10
262.5390625
 20
-150.6474609375
 10
266.79296875
 20
-145.6376953125
 10
269.15625
 20
-141.951171875
 10
269.15625
 20
-137.697265625
 10
269.15625
 20
-132.87646484375
 10
266.13134765625
 20
-129.66259765625
 10
260.17626953125
 20
-129.56787109375
 10
256.77294921875
 20
-129.56787109375
 10
252.99169921875
 20
-130.7021484375
 10
250.62890625
 20
-132.498046875
 10
250.62890625
 20
-132.498046875
 10
248.35986328125
 20
-126.54296875
 10
248.35986328125
 20
-126.54296875
 10
251.4794921875
 20
-124.2744140625
 10
256.86767578125
 20
-122.76171875
 10
261.87744140625
 20
-122.76171875
 10
272.748046875
 20
-122.76171875
 10
277.66357421875
 20
-129.47314453125
 10
277.66357421875
 20
-136.65771484375
 10
277.66357421875
 20
-143.08544921875
 10
274.07177734375
 20
-147.71728515625
 10
269.5341796875
 20
-153.10546875
 10
265.375
 20
-158.02099609375
 10
263.86279296875
 20
-162.18017578125
 10
264.14599609375
 20
-167.0009765625
 10
264.14599609375
 20
-167.0009765625
 10
264.24072265625
 20
-169.458984375
 10
264.24072265625
 20
-169.458984375
 10
264.24072265625
 20
-169.458984375
 10
256.86767578125
 20
-169.458984375
 10
256.86767578125
 20
-169.458984375
 97
        0
 97
        1
330
B4
 75
     2
 76
     1
 98
        1
 10
0.0
 20
0.0
450
        0
451
        0
460
0.0
461
0.0
452
        0
462
0.0
453
        0
470

  0
LINE
  5
B6
330
70
100
AcDbEntity
  8
Layer 2
 62
    18
420
        0
370
    18
100
AcDbLine
 10
285.5301977179288
 20
-330.9026385549923
 30
0.0
 11
321.4951350617248
 21
-326.1594116190299
 31
0.0
  0
LINE
  5
B7
330
70
100
AcDbEntity
  8
Layer 2
 62
    18
420
        0
370
    18
100
AcDbLine
 10
288.115721180935
 20
-326.7196008386745
 30
0.0
 11
288.8641030863373
 21
-334.4058695049262
 31
0.0
  0
LINE
  5
B8
330
70
100
AcDbEntity
  8
Layer 2
 62
    18
420
        0
370
    18
100
AcDbLine
 10
296.1527954612175
 20
-325.8336072208022
 30
0.0
 11
296.9011773666198
 21
-333.5198758870529
 31
0.0
  0
LINE
  5
B9
330
70
100
AcDbEntity
  8
Layer 2
 62
    18
420
        0
370
    18
100
AcDbLine
 10
304.3393245265979
 20
-324.7261514903785
 30
0.0
 11
305.0877064320002
 21
-332.4124201566283
 31
0.0
  0
LINE
  5
BA
330
70
100
AcDbEntity
  8
Layer 2
 62
    18
420
        0
370
    18
100
AcDbLine
 10
312.7899494712474
 20
-323.6964369199904
 30
0.0
 11
313.5383313766497
 21
-331.3827055862412
 31
0.0
  0
SPLINE
  5
BB
330
70
100
AcDbEntity
  8
Layer 2
 62
    18
420
        0
370
    35
100
AcDbSpline
210
0.0
220
0.0
230
1.0
 70
     8
 71
     3
 72
    11
 73
     7
 74
     0
 42
0.0000000001
 43
0.0000000001
 40
0.0
 40
0.0
 40
0.0
 40
0.0
 40
1.0
 40
1.0
 40
1.0
 40
2.0
 40
2.0
 40
2.0
 40
2.0
 10
1350.458076566299
 20
-638.0078864546448
 30
0.0
 10
1350.76189539321
 20
-662.3514782203492
 30
0.0
 10
1353.9164692825
 20
-697.6574195263128
 30
0.0
 10
1367.344690594349
 20
-737.7930573423218
 30
0.0
 10
1380.50423885668
 20
-777.125549096112
 30
0.0
 10
1398.73332181078
 20
-806.7586038704648
 30
0.0
 10
1412.891562197539
 20
-826.2590779623788
 30
0.0
  0
SPLINE
  5
BC
330
70
100
AcDbEntity
  8
Layer 2
 62
    18
420
        0
370
    35
100
AcDbSpline
210
0.0
220
0.0
230
1.0
 70
     8
 71
     3
 72
    11
 73
     7
 74
     0
 42
0.0000000001
 43
0.0000000001
 40
0.0
 40
0.0
 40
0.0
 40
0.0
 40
1.0
 40
1.0
 40
1.0
 40
2.0
 40
2.0
 40
2.0
 40
2.0
 10
1291.96196921874
 20
-624.7426586642104
 30
0.0
 10
1301.58536767768
 20
-657.6448624236109
 30
0.0
 10
1310.36186553488
 20
-699.6748527945819
 30
0.0
 10
1312.30604470919
 20
-748.818260157841
 30
0.0
 10
1313.37409328823
 20
-775.8145629566279
 30
0.0
 10
1312.20297052151
 20
-800.474004694468
 30
0.0
 10
1309.92572326314
 20
-822.2616957201863
 30
0.0
  0
SPLINE
  5
BD
330
70
100
AcDbEntity
  8
Layer 2
 62
    18
420
        0
370
    35
100
AcDbSpline
210
0.0
220
0.0
230
1.0
 70
     8
 71
     3
 72
    11
 73
     7
 74
     0
 42
0.0000000001
 43
0.0000000001
 40
0.0
 40
0.0
 40
0.0
 40
0.0
 40
1.0
 40
1.0
 40
1.0
 40
2.0
 40
2.0
 40
2.0
 40
2.0
 10
1330.94199245327
 20
-350.2230208310966
 30
0.0
 10
1353.628698082341
 20
-397.0126445055776
 30
0.0
 10
1358.220499301349
 20
-436.4058779281258
 30
0.0
 10
1356.28151229694
 20
-467.2676550674468
 30
0.0
 10
1351.44019846877
 20
-544.3223409477286
 30
0.0
 10
1330.973799487119
 20
-549.5262003919269
 30
0.0
 10
1320.32475517
 20
-631.3714322168962
 30
0.0
  0
CIRCLE
  5
BE
330
70
100
AcDbEntity
  8
Layer 2
 62
    18
420
        0
370
    35
100
AcDbCircle
 10
1332.634623475049
 20
-315.4295672555795
 30
0.0
 40
75.5326599872601
  0
ELLIPSE
  5
BF
330
70
100
AcDbEntity
  8
Layer 2
 62
    18
420
        0
370
    18
100
AcDbEllipse
 10
1301.06073245978
 20
-302.9115886572404
 30
0.0
 11
21.83693174024075
 21
0.0
 31
0.0
210
0.0
220
0.0
230
1.0
 40
0.5640384421438716
 41
0.0
 42
6.283185307179586
  0
CIRCLE
  5
C0
330
70
100
AcDbEntity
  8
Layer 2
 62
    18
420
        0
370
    35
100
AcDbCircle
 10
1320.324755169999
 20
-622.8744863164893
 30
0.0
 40
53.683712461956
  0
ELLIPSE
  5
C1
330
70
100
AcDbEntity
  8
Layer 2
 62
    18
420
        0
370
    35
100
AcDbEllipse
 10
1422.677704660655
 20
-828.2965121235283
 30
0.0
 11
-14.622714903415
 21
4.888619832132369
 31
0.0
210
0.0
220
0.0
230
1.0
 40
0.3652173913041725
 41
0.0
 42
6.283185307179585
  0
ELLIPSE
  5
C2
330
70
100
AcDbEntity
  8
Layer 2
 62
    18
420
        0
370
    35
100
AcDbEllipse
 10
1320.324755170005
 20
-826.6745365559945
 30
0.0
 11
-14.62271490341453
 21
4.888619832137858
 31
0.0
210
0.0
220
0.0
230
1.0
 40
0.3652173913043749
 41
0.0
 42
6.283185307179585
  0
CIRCLE
  5
C3
330
70
100
AcDbEntity
  8
Layer 2
100
AcDbCircle
 10
1366.688842488617
 20
-737.3718924830218
 30
0.0
 40
2.698193534054112
  0
HATCH
  5
C4
330
70
100
AcDbEntity
  8
Layer 2
 62
    18
420
        0
440
 33554687
100
AcDbHatch
 10
0.0
 20
0.0
 30
0.0
210
0.0
220
0.0
230
1.0
  2
SOLID
 70
     1
 71
     1
 91
        1
 92
        1
 93
        1
 72
     2
 10
1366.688842488617
 20
-737.3718924830218
 40
2.698193534054112
 50
0.0
 51
360.0
 73
     1
 97
        1
330
C3
 75
     2
 76
     1
 98
        1
 10
0.0
 20
0.0
450
        0
451
        0
460
0.0
461
0.0
452
        0
462
0.0
453
        0
470

  0
CIRCLE
  5
C5
330
70
100
AcDbEntity
  8
Layer 2
100
AcDbCircle
 10
1481.236375440227
 20
-498.7554692811666
 30
0.0
 40
2.698193534053843
  0
HATCH
  5
C6
330
70
100
AcDbEntity
  8
Layer 2
 62
    18
420
        0
440
 33554687
100
AcDbHatch
 10
0.0
 20
0.0
 30
0.0
210
0.0
220
0.0
230
1.0
  2
SOLID
 70
     1
 71
     1
 91
        1
 92
        1
 93
        1
 72
     2
 10
1481.236375440227
 20
-498.7554692811666
 40
2.698193534053843
 50
0.0
 51
360.0
 73
     1
 97
        1
330
C5
 75
     2
 76
     1
 98
        1
 10
0.0
 20
0.0
450
        0
451
        0
460
0.0
461
0.0
452
        0
462
0.0
453
        0
470

  0
CIRCLE
  5
C7
330
70
100
AcDbEntity
  8
Layer 2
100
AcDbCircle
 10
1354.80673555918
 20
-528.8127859459839
 30
0.0
 40
2.698193534050678
  0
HATCH
  5
C8
330
70
100
AcDbEntity
  8
Layer 2
 62
    18
420
        0
440
 33554687
100
AcDbHatch
 10
0.0
 20
0.0
 30
0.0
210
0.0
220
0.0
230
1.0
  2
SOLID
 70
     1
 71
     1
 91
        1
 92
        1
 93
        1
 72
     2
 10
1354.80673555918
 20
-528.8127859459839
 40
2.698193534050678
 50
0.0
 51
360.0
 73
     1
 97
        1
330
C7
 75
     2
 76
     1
 98
        1
 10
0.0
 20
0.0
450
        0
451
        0
460
0.0
461
0.0
452
        0
462
0.0
453
        0
470

  0
CIRCLE
  5
C9
330
70
100
AcDbEntity
  8
Layer 2
100
AcDbCircle
 10
1311.276735475965
 20
-744.3272811026081
 30
0.0
 40
2.698193534054107
  0
HATCH
  5
CA
330
70
100
AcDbEntity
  8
Layer 2
 62
    18
420
        0
440
 33554687
100
AcDbHatch
 10
0.0
 20
0.0
 30
0.0
210
0.0
220
0.0
230
1.0
  2
SOLID
 70
     1
 71
     1
 91
        1
 92
        1
 93
        1
 72
     2
 10
1311.276735475965
 20
-744.3272811026081
 40
2.698193534054107
 50
0.0
 51
360.0
 73
     1
 97
        1
330
C9
 75
     2
 76
     1
 98
        1
 10
0.0
 20
0.0
450
        0
451
        0
460
0.0
461
0.0
452
        0
462
0.0
453
        0
470

  0
LWPOLYLINE
  5
CB
330
70
100
AcDbEntity
  8
Layer 2
 62
    18
420
        0
370
    35
100
AcDbPolyline
 90
        3
 70
     0
 43
0.0
 10
1398.38004728912
 20
-450.669488117599
 10
1481.50451889702
 20
-499.7129949282579
 10
1539.69164902255
 20
-462.0388392479035
  0
SPLINE
  5
CC
330
70
100
AcDbEntity
  8
Layer 2
 62
    18
420
        0
370
    35
100
AcDbSpline
210
0.0
220
0.0
230
1.0
 70
     9
 71
     3
 72
    26
 73
    22
 74
     0
 42
0.0000000001
 43
0.0000000001
 40
0.0
 40
0.0
 40
0.0
 40
0.0
 40
1.0
 40
1.0
 40
1.0
 40
2.0
 40
2.0
 40
2.0
 40
3.0
 40
3.0
 40
3.0
 40
4.0
 40
4.0
 40
4.0
 40
5.0
 40
5.0
 40
5.0
 40
6.0
 40
6.0
 40
6.0
 40
7.0
 40
7.0
 40
7.0
 40
7.0
 10
1265.40110875525
 20
-417.2882399923246
 30
0.0
 10
1257.38181803525
 20
-429.7911580441923
 30
0.0
 10
1292.88284324454
 20
-489.7413791625767
 30
0.0
 10
1344.18642098225
 20
-491.4182346992329
 30
0.0
 10
1387.19347023631
 20
-492.8239055234671
 30
0.0
 10
1416.446062945269
 20
-452.4670103748285
 30
0.0
 10
1422.000198443489
 20
-434.0603229649059
 30
0.0
 10
1423.27847458685
 20
-429.8239888319949
 30
0.0
 10
1426.727110331119
 20
-418.3950664660569
 30
0.0
 10
1421.32939209054
 20
-412.9316866498693
 30
0.0
 10
1418.181885623389
 20
-409.7458976401685
 30
0.0
 10
1413.267369234039
 20
-409.8249881704886
 30
0.0
 10
1411.26817869773
 20
-409.913298580167
 30
0.0
 10
1392.094838275971
 20
-410.760284801725
 30
0.0
 10
1348.63561406904
 20
-412.7923061258289
 30
0.0
 10
1345.53468803587
 20
-412.9316866498693
 30
0.0
 10
1329.98676452345
 20
-413.6304733323504
 30
0.0
 10
1315.76033032809
 20
-412.1760574068157
 30
0.0
 10
1277.410442570001
 20
-413.8570017595366
 30
0.0
 10
1270.822477990699
 20
-414.1457443291747
 30
0.0
 10
1267.14134094088
 20
-414.5750299293785
 30
0.0
 10
1265.40110875525
 20
-417.2882399923246
 30
0.0
  0
LWPOLYLINE
  5
CD
330
70
100
AcDbEntity
  8
Layer 2
 62
    18
420
        0
370
    35
100
AcDbPolyline
 90
        3
 70
     0
 43
0.0
 10
1293.94577605718
 20
-454.2056001974724
 10
1354.636323380509
 20
-529.249592668385
 10
1424.266655454579
 20
-543.6885218434035
  0
INSERT
  5
CF
330
70
100
AcDbEntity
  8
Layer 2
100
AcDbBlockReference
  2
Block_5
 10
0.0
 20
0.0
 30
0.0
  0
INSERT
  5
DB
330
70
100
AcDbEntity
  8
Layer 2
100
AcDbBlockReference
  2
Block_7
 10
0.0
 20
0.0
 30
0.0
  0
CIRCLE
  5
E6
330
70
100
AcDbEntity
  8
Layer 2
 62
    18
420
        0
370
    18
100
AcDbCircle
 10
1301.060732459778
 20
-302.9115886572395
 30
0.0
 40
12.01520757106686
  0
SPLINE
  5
E7
330
70
100
AcDbEntity
  8
Layer 2
 62
    18
420
        0
370
    35
100
AcDbSpline
210
0.0
220
0.0
230
1.0
 70
     8
 71
     3
 72
    11
 73
     7
 74
     0
 42
0.0000000001
 43
0.0000000001
 40
0.0
 40
0.0
 40
0.0
 40
0.0
 40
1.0
 40
1.0
 40
1.0
 40
2.0
 40
2.0
 40
2.0
 40
2.0
 10
1322.469792215999
 20
-278.6252324384623
 30
0.0
 10
1319.839765858191
 20
-276.8805672001899
 30
0.0
 10
1311.37537510286
 20
-271.7449342596274
 30
0.0
 10
1299.54357371239
 20
-272.4579441838159
 30
0.0
 10
1287.737444717541
 20
-273.1694156872918
 30
0.0
 10
1279.96217028972
 20
-279.2592540742371
 30
0.0
 10
1277.55579184286
 20
-281.3066516631661
 30
0.0
  0
INSERT
  5
E9
330
70
100
AcDbEntity
  8
Layer 2
100
AcDbBlockReference
  2
Block_9
 10
0.0
 20
0.0
 30
0.0
  0
SPLINE
  5
EE
330
70
100
AcDbEntity
  8
Layer 2
 62
    18
420
        0
370
    35
100
AcDbSpline
210
0.0
220
0.0
230
1.0
 70
     8
 71
     3
 72
    11
 73
     7
 74
     0
 42
0.0000000001
 43
0.0000000001
 40
0.0
 40
0.0
 40
0.0
 40
0.0
 40
1.0
 40
1.0
 40
1.0
 40
2.0
 40
2.0
 40
2.0
 40
2.0
 10
1384.760282335021
 20
-277.6039558427174
 30
0.0
 10
1382.13025597721
 20
-275.8592906044451
 30
0.0
 10
1373.665865221879
 20
-270.7236576638825
 30
0.0
 10
1361.834063831409
 20
-271.4366675880711
 30
0.0
 10
1350.02793483656
 20
-272.1481390915469
 30
0.0
 10
1342.25266040874
 20
-278.2379774784922
 30
0.0
 10
1339.846281961891
 20
-280.2853750674212
 30
0.0
  0
SPLINE
  5
EF
330
70
100
AcDbEntity
  8
Layer 2
 62
    18
420
        0
370
    25
100
AcDbSpline
210
0.0
220
0.0
230
1.0
 70
     8
 71
     3
 72
    17
 73
    13
 74
     0
 42
0.0000000001
 43
0.0000000001
 40
0.0
 40
0.0
 40
0.0
 40
0.0
 40
1.0
 40
1.0
 40
1.0
 40
2.0
 40
2.0
 40
2.0
 40
3.0
 40
3.0
 40
3.0
 40
4.0
 40
4.0
 40
4.0
 40
4.0
 10
1327.21247604313
 20
-314.3252715679373
 30
0.0
 10
1326.54210921804
 20
-323.4340682988468
 30
0.0
 10
1328.82993311881
 20
-327.7781837832817
 30
0.0
 10
1331.4358255017
 20
-330.0116822026684
 30
0.0
 10
1335.57638869573
 20
-333.560482254843
 30
0.0
 10
1341.605555615861
 20
-333.3356324527104
 30
0.0
 10
1341.692284083479
 20
-335.4416342556224
 30
0.0
 10
1341.75430166841
 20
-336.9475558297099
 30
0.0
 10
1338.679960178829
 20
-338.2950200704982
 30
0.0
 10
1336.472422608949
 20
-339.2626386224592
 30
0.0
 10
1333.58759532078
 20
-340.52707622047
 30
0.0
 10
1330.959011232389
 20
-340.936728810585
 30
0.0
 10
1329.132040486051
 20
-341.0726386653268
 30
0.0
  0
LINE
  5
F0
330
70
100
AcDbEntity
  8
Layer 2
 62
    18
420
        0
370
    18
100
AcDbLine
 10
1353.627343987149
 20
-327.8388087677577
 30
0.0
 11
1389.59228133095
 21
-323.0955818317952
 31
0.0
  0
LINE
  5
F1
330
70
100
AcDbEntity
  8
Layer 2
 62
    18
420
        0
370
    18
100
AcDbLine
 10
1356.21286745016
 20
-323.6557710514408
 30
0.0
 11
1356.961249355559
 21
-331.3420397176924
 31
0.0
  0
LINE
  5
F2
330
70
100
AcDbEntity
  8
Layer 2
 62
    18
420
        0
370
    18
100
AcDbLine
 10
1364.249941730441
 20
-322.7697774335684
 30
0.0
 11
1364.99832363584
 21
-330.4560460998182
 31
0.0
  0
LINE
  5
F3
330
70
100
AcDbEntity
  8
Layer 2
 62
    18
420
        0
370
    18
100
AcDbLine
 10
1372.436470795819
 20
-321.6623217031429
 30
0.0
 11
1373.184852701221
 21
-329.3485903693936
 31
0.0
  0
LINE
  5
F4
330
70
100
AcDbEntity
  8
Layer 2
 62
    18
420
        0
370
    18
100
AcDbLine
 10
1380.887095740471
 20
-320.6326071327558
 30
0.0
 11
1381.63547764587
 21
-328.3188757990074
 31
0.0
  0
ELLIPSE
  5
F5
330
70
100
AcDbEntity
  8
Layer 2
 62
    18
420
        0
370
    18
100
AcDbEllipse
 10
1329.51063829787
 20
-365.5106382978722
 30
0.0
 11
30.72340425532047
 21
0.0
 31
0.0
210
0.0
220
0.0
230
1.0
 40
0.39335180055402
 41
0.0
 42
6.283185307179585
  0
LWPOLYLINE
  5
F7
330
70
100
AcDbEntity
  8
Layer 3
 62
    18
420
        0
370
    35
100
AcDbPolyline
 90
        3
 70
     0
 43
0.0
 10
907.0669035127322
 20
-645.4735617253009
 10
904.8422812851368
 20
-739.3377771766518
 10
941.1039259643203
 20
-804.0582732321327
  0
LWPOLYLINE
  5
F8
330
70
100
AcDbEntity
  8
Layer 3
 62
    18
420
        0
370
    35
100
AcDbPolyline
 90
        3
 70
     0
 43
0.0
 10
875.9221923263776
 20
-645.4735617253009
 10
850.1578784969733
 20
-739.3377771766518
 10
850.2613931832748
 20
-805.6374614486577
  0
LWPOLYLINE
  5
F9
330
70
100
AcDbEntity
  8
Layer 3
 62
    18
420
        0
370
    35
100
AcDbPolyline
 90
        3
 70
     0
 43
0.0
 10
912.2576887104605
 20
-368.1270772412754
 10
884.079140494232
 20
-514.0989111802391
 10
884.079140494232
 20
-588.6213737701345
  0
ELLIPSE
  5
FA
330
70
100
AcDbEntity
  8
Layer 3
 62
    18
420
        0
370
    35
100
AcDbEllipse
 10
919.7854644676636
 20
-313.7711305448152
 30
0.0
 11
0.0000000000000044
 21
72.13761574155023
 31
0.0
210
0.0
220
0.0
230
1.0
 40
0.9652049801610495
 41
0.0
 42
6.283185307179586
  0
ELLIPSE
  5
FB
330
70
100
AcDbEntity
  8
Layer 3
 62
    18
420
        0
370
    35
100
AcDbEllipse
 10
891.6147442885435
 20
-608.691521336008
 30
0.0
 11
0.0000000000000031
 21
51.27073535889717
 31
0.0
210
0.0
220
0.0
230
1.0
 40
0.9652049801611346
 41
0.0
 42
6.283185307179586
  0
ELLIPSE
  5
FC
330
70
100
AcDbEntity
  8
Layer 3
 62
    18
420
        0
370
    35
100
AcDbEllipse
 10
836.7818687069206
 20
-810.3063474513037
 30
0.0
 11
13.46360760055019
 21
4.716197271760404
 31
0.0
210
0.0
220
0.0
230
1.0
 40
0.375583666212873
 41
0.0
 42
6.283185307179585
  0
ELLIPSE
  5
FD
330
70
100
AcDbEntity
  8
Layer 3
 62
    18
420
        0
370
    35
100
AcDbEllipse
 10
931.1329585694492
 20
-808.7572764897776
 30
0.0
 11
13.46360760054591
 21
4.716197271760148
 31
0.0
210
0.0
220
0.0
230
1.0
 40
0.3755836662132115
 41
0.0
 42
6.283185307179585
  0
ELLIPSE
  5
FE
330
70
100
AcDbEntity
  8
Layer 3
100
AcDbEllipse
 10
782.8012610502887
 20
-495.5775251955888
 30
0.0
 11
0.0000000000000002
 21
2.576915050904635
 31
0.0
210
0.0
220
0.0
230
1.0
 40
0.9652049801587141
 41
0.0
 42
6.283185307179586
  0
HATCH
  5
FF
330
70
100
AcDbEntity
  8
Layer 3
 62
    18
420
        0
440
 33554687
100
AcDbHatch
 10
0.0
 20
0.0
 30
0.0
210
0.0
220
0.0
230
1.0
  2
SOLID
 70
     1
 71
     1
 91
        1
 92
        1
 93
        1
 72
     3
 10
782.8012610502887
 20
-495.5775251955888
 11
0.0000000000000002
 21
2.576915050904635
 40
0.9652049801587141
 50
0.0
 51
360.0
 73
     1
 97
        1
330
FE
 75
     2
 76
     1
 98
        1
 10
0.0
 20
0.0
450
        0
451
        0
460
0.0
461
0.0
452
        0
462
0.0
453
        0
470

  0
ELLIPSE
  5
100
330
70
100
AcDbEntity
  8
Layer 3
100
AcDbEllipse
 10
891.6147442885467
 20
-524.100844629661
 30
0.0
 11
0.0000000000000002
 21
2.576915050900483
 31
0.0
210
0.0
220
0.0
230
1.0
 40
0.9652049801611255
 41
0.0
 42
6.283185307179586
  0
HATCH
  5
101
330
70
100
AcDbEntity
  8
Layer 3
 62
    18
420
        0
440
 33554687
100
AcDbHatch
 10
0.0
 20
0.0
 30
0.0
210
0.0
220
0.0
230
1.0
  2
SOLID
 70
     1
 71
     1
 91
        1
 92
        1
 93
        1
 72
     3
 10
891.6147442885467
 20
-524.100844629661
 11
0.0000000000000002
 21
2.576915050900483
 40
0.9652049801611255
 50
0.0
 51
360.0
 73
     1
 97
        1
330
100
 75
     2
 76
     1
 98
        1
 10
0.0
 20
0.0
450
        0
451
        0
460
0.0
461
0.0
452
        0
462
0.0
453
        0
470

  0
LWPOLYLINE
  5
102
330
70
100
AcDbEntity
  8
Layer 3
 62
    18
420
        0
370
    35
100
AcDbPolyline
 90
        3
 70
     0
 43
0.0
 10
859.179957531116
 20
-449.6529141423316
 10
782.5540808027818
 20
-496.4920119514399
 10
728.9159670929438
 20
-460.5112353401692
  0
SPLINE
  5
103
330
70
100
AcDbEntity
  8
Layer 3
 62
    18
420
        0
370
    35
100
AcDbSpline
210
0.0
220
0.0
230
1.0
 70
     9
 71
     3
 72
    29
 73
    25
 74
     0
 42
0.0000000001
 43
0.0000000001
 40
0.0
 40
0.0
 40
0.0
 40
0.0
 40
1.0
 40
1.0
 40
1.0
 40
2.0
 40
2.0
 40
2.0
 40
3.0
 40
3.0
 40
3.0
 40
4.0
 40
4.0
 40
4.0
 40
5.0
 40
5.0
 40
5.0
 40
6.0
 40
6.0
 40
6.0
 40
7.0
 40
7.0
 40
7.0
 40
8.0
 40
8.0
 40
8.0
 40
8.0
 10
847.2349512625696
 20
-473.0724630468857
 30
0.0
 10
847.2349512625696
 20
-473.0724630468857
 30
0.0
 10
948.9137091054489
 20
-473.0724630468857
 30
0.0
 10
948.9137091054489
 20
-473.0724630468857
 30
0.0
 10
952.5234114164303
 20
-473.0724630468857
 30
0.0
 10
955.4496533119253
 20
-470.1462211513907
 30
0.0
 10
955.4496533119253
 20
-466.5365188404093
 30
0.0
 10
955.4496533119253
 20
-466.5365188404093
 30
0.0
 10
955.4496533119253
 20
-415.3814803886234
 30
0.0
 10
955.4496533119253
 20
-415.3814803886234
 30
0.0
 10
955.4496533119253
 20
-411.7717780776411
 30
0.0
 10
952.5234114164303
 20
-408.8455361821461
 30
0.0
 10
948.9137091054489
 20
-408.8455361821461
 30
0.0
 10
948.9137091054489
 20
-408.8455361821461
 30
0.0
 10
847.2349512625696
 20
-408.8455361821461
 30
0.0
 10
847.2349512625696
 20
-408.8455361821461
 30
0.0
 10
843.6252489515881
 20
-408.8455361821461
 30
0.0
 10
840.6990070560933
 20
-411.7717780776411
 30
0.0
 10
840.6990070560933
 20
-415.3814803886234
 30
0.0
 10
840.6990070560933
 20
-415.3814803886234
 30
0.0
 10
840.6990070560933
 20
-466.5365188404093
 30
0.0
 10
840.6990070560933
 20
-466.5365188404093
 30
0.0
 10
840.6990070560933
 20
-470.1462211513907
 30
0.0
 10
843.6252489515881
 20
-473.0724630468857
 30
0.0
 10
847.2349512625696
 20
-473.0724630468857
 30
0.0
  0
LWPOLYLINE
  5
104
330
70
100
AcDbEntity
  8
Layer 3
 62
    18
420
        0
370
    35
100
AcDbPolyline
 90
        3
 70
     0
 43
0.0
 10
947.7176498488551
 20
-452.8471048832716
 10
891.7718337995339
 20
-524.5180177505189
 10
827.5851371642875
 20
-538.3079455079005
  0
ELLIPSE
  5
105
330
70
100
AcDbEntity
  8
Layer 3
 62
    18
420
        0
370
    18
100
AcDbEllipse
 10
948.6134821268196
 20
-302.7021276595747
 30
0.0
 11
20.12974046374166
 21
0.0
 31
0.0
210
0.0
220
0.0
230
1.0
 40
0.5843716658504725
 41
0.0
 42
6.283185307179586
  0
ELLIPSE
  5
106
330
70
100
AcDbEntity
  8
Layer 3
 62
    18
420
        0
370
    18
100
AcDbEllipse
 10
948.6134821268196
 20
-302.7021276595747
 30
0.0
 11
0.0000000000000007
 21
11.4751476641054
 31
0.0
210
0.0
220
0.0
230
1.0
 40
0.9652049801610813
 41
0.0
 42
6.283185307179586
  0
INSERT
  5
108
330
70
100
AcDbEntity
  8
Layer 3
100
AcDbBlockReference
  2
Block_10
 10
0.0
 20
0.0
 30
0.0
  0
SPLINE
  5
10D
330
70
100
AcDbEntity
  8
Layer 3
 62
    18
420
        0
370
    25
100
AcDbSpline
210
0.0
220
0.0
230
1.0
 70
     8
 71
     3
 72
    17
 73
    13
 74
     0
 42
0.0000000001
 43
0.0000000001
 40
0.0
 40
0.0
 40
0.0
 40
0.0
 40
1.0
 40
1.0
 40
1.0
 40
2.0
 40
2.0
 40
2.0
 40
3.0
 40
3.0
 40
3.0
 40
4.0
 40
4.0
 40
4.0
 40
4.0
 10
924.5062661540723
 20
-313.6028109689905
 30
0.0
 10
925.1242243161906
 20
-322.3021852337534
 30
0.0
 10
923.0152603876941
 20
-326.4509953715578
 30
0.0
 10
920.6130942790114
 20
-328.58414835236
 30
0.0
 10
916.921654012809
 20
-331.8621395006494
 30
0.0
 10
911.8437964241911
 20
-330.9967843653867
 30
0.0
 10
911.1584762134206
 20
-333.7699888443349
 30
0.0
 10
910.5257161274511
 20
-336.3304244106275
 30
0.0
 10
914.2774277003427
 20
-339.4029011754374
 30
0.0
 10
915.6077395269694
 20
-340.4923661645353
 30
0.0
 10
918.7890009088969
 20
-343.0976604333882
 30
0.0
 10
922.1438968346538
 20
-343.8705891937761
 30
0.0
 10
923.9500860813077
 20
-344.1416698282846
 30
0.0
  0
SPLINE
  5
10E
330
70
100
AcDbEntity
  8
Layer 3
 62
    18
420
        0
370
    18
100
AcDbSpline
210
0.0
220
0.0
230
1.0
 70
     8
 71
     3
 72
    11
 73
     7
 74
     0
 42
0.0000000001
 43
0.0000000001
 40
0.0
 40
0.0
 40
0.0
 40
0.0
 40
1.0
 40
1.0
 40
1.0
 40
2.0
 40
2.0
 40
2.0
 40
2.0
 10
935.739808452312
 20
-373.4640820844433
 30
0.0
 10
931.5295917772074
 20
-371.2371051834389
 30
0.0
 10
924.5491108512361
 20
-368.3564031968263
 30
0.0
 10
915.7182121756104
 20
-368.3834873945216
 30
0.0
 10
907.0154786609801
 20
-368.4101465039121
 30
0.0
 10
900.1301023115939
 20
-371.2497363787752
 30
0.0
 10
895.9438168906144
 20
-373.4640820844433
 30
0.0
  0
ELLIPSE
  5
10F
330
70
100
AcDbEntity
  8
Layer 3
 62
    18
420
        0
370
    35
100
AcDbEllipse
 10
725.3892452074064
 20
-453.9369212196548
 30
0.0
 11
-8.903708630300526
 21
11.47598870557855
 31
0.0
210
0.0
220
0.0
230
1.0
 40
0.3622976069507657
 41
0.0
 42
6.283185307179585
  0
ELLIPSE
  5
110
330
70
100
AcDbEntity
  8
Layer 3
 62
    18
420
        0
370
    35
100
AcDbEllipse
 10
823.2008585350868
 20
-541.5074962419184
 30
0.0
 11
13.46360760054972
 21
4.716197271761421
 31
0.0
210
0.0
220
0.0
230
1.0
 40
0.3755836662132262
 41
0.0
 42
6.283185307179585
  0
LWPOLYLINE
  5
111
330
70
100
AcDbEntity
  8
Layer 3
 62
    18
420
        0
370
    35
100
AcDbPolyline
 90
        3
 70
     0
 43
0.0
 10
1975.164049781961
 20
-642.409731938067
 10
1972.93942755436
 20
-736.273947389418
 10
2009.20107223354
 20
-800.9944434448989
  0
LWPOLYLINE
  5
112
330
70
100
AcDbEntity
  8
Layer 3
 62
    18
420
        0
370
    35
100
AcDbPolyline
 90
        3
 70
     0
 43
0.0
 10
1944.019338595601
 20
-642.409731938067
 10
1918.2550247662
 20
-736.273947389418
 10
1918.3585394525
 20
-802.5736316614239
  0
LWPOLYLINE
  5
113
330
70
100
AcDbEntity
  8
Layer 3
 62
    18
420
        0
370
    35
100
AcDbPolyline
 90
        3
 70
     0
 43
0.0
 10
1980.35483497968
 20
-365.0632474540407
 10
1952.17628676346
 20
-511.0350813930053
 10
1952.17628676346
 20
-585.5575439829008
  0
ELLIPSE
  5
114
330
70
100
AcDbEntity
  8
Layer 3
 62
    18
420
        0
370
    35
100
AcDbEllipse
 10
1987.882610736889
 20
-310.7073007575805
 30
0.0
 11
0.0000000000000044
 21
72.13761574155023
 31
0.0
210
0.0
220
0.0
230
1.0
 40
0.9652049801610623
 41
0.0
 42
6.283185307179586
  0
ELLIPSE
  5
115
330
70
100
AcDbEntity
  8
Layer 3
 62
    18
420
        0
370
    35
100
AcDbEllipse
 10
1959.711890557768
 20
-605.6276915487742
 30
0.0
 11
0.0000000000000031
 21
51.27073535889744
 31
0.0
210
0.0
220
0.0
230
1.0
 40
0.9652049801611736
 41
0.0
 42
6.283185307179586
  0
ELLIPSE
  5
116
330
70
100
AcDbEntity
  8
Layer 3
 62
    18
420
        0
370
    35
100
AcDbEllipse
 10
1904.879014976145
 20
-807.2425176640699
 30
0.0
 11
13.46360760054884
 21
4.716197271761747
 31
0.0
210
0.0
220
0.0
230
1.0
 40
0.375583666212873
 41
0.0
 42
6.283185307179585
  0
ELLIPSE
  5
117
330
70
100
AcDbEntity
  8
Layer 3
 62
    18
420
        0
370
    35
100
AcDbEllipse
 10
1999.230104838673
 20
-805.6934467025438
 30
0.0
 11
13.46360760054626
 21
4.716197271760474
 31
0.0
210
0.0
220
0.0
230
1.0
 40
0.3755836662132312
 41
0.0
 42
6.283185307179585
  0
ELLIPSE
  5
118
330
70
100
AcDbEntity
  8
Layer 3
100
AcDbEllipse
 10
1850.898407319512
 20
-492.5136954083539
 30
0.0
 11
0.0000000000000002
 21
2.576915050905064
 31
0.0
210
0.0
220
0.0
230
1.0
 40
0.9652049801593371
 41
0.0
 42
6.283185307179586
  0
HATCH
  5
119
330
70
100
AcDbEntity
  8
Layer 3
 62
    18
420
        0
440
 33554687
100
AcDbHatch
 10
0.0
 20
0.0
 30
0.0
210
0.0
220
0.0
230
1.0
  2
SOLID
 70
     1
 71
     1
 91
        1
 92
        1
 93
        1
 72
     3
 10
1850.898407319512
 20
-492.5136954083539
 11
0.0000000000000002
 21
2.576915050905064
 40
0.9652049801593371
 50
0.0
 51
360.0
 73
     1
 97
        1
330
118
 75
     2
 76
     1
 98
        1
 10
0.0
 20
0.0
450
        0
451
        0
460
0.0
461
0.0
452
        0
462
0.0
453
        0
470

  0
ELLIPSE
  5
11A
330
70
100
AcDbEntity
  8
Layer 3
100
AcDbEllipse
 10
1959.711890557773
 20
-521.0370148424263
 30
0.0
 11
0.0000000000000002
 21
2.576915050899687
 31
0.0
210
0.0
220
0.0
230
1.0
 40
0.9652049801619087
 41
0.0
 42
6.283185307179586
  0
HATCH
  5
11B
330
70
100
AcDbEntity
  8
Layer 3
 62
    18
420
        0
440
 33554687
100
AcDbHatch
 10
0.0
 20
0.0
 30
0.0
210
0.0
220
0.0
230
1.0
  2
SOLID
 70
     1
 71
     1
 91
        1
 92
        1
 93
        1
 72
     3
 10
1959.711890557773
 20
-521.0370148424263
 11
0.0000000000000002
 21
2.576915050899687
 40
0.9652049801619087
 50
0.0
 51
360.0
 73
     1
 97
        1
330
11A
 75
     2
 76
     1
 98
        1
 10
0.0
 20
0.0
450
        0
451
        0
460
0.0
461
0.0
452
        0
462
0.0
453
        0
470

  0
LWPOLYLINE
  5
11C
330
70
100
AcDbEntity
  8
Layer 3
 62
    18
420
        0
370
    35
100
AcDbPolyline
 90
        3
 70
     0
 43
0.0
 10
1927.277103800339
 20
-446.5890843550969
 10
1850.65122707201
 20
-493.4281821642052
 10
1797.013113362171
 20
-457.4474055529353
  0
SPLINE
  5
11D
330
70
100
AcDbEntity
  8
Layer 3
 62
    18
420
        0
370
    35
100
AcDbSpline
210
0.0
220
0.0
230
1.0
 70
     9
 71
     3
 72
    29
 73
    25
 74
     0
 42
0.0000000001
 43
0.0000000001
 40
0.0
 40
0.0
 40
0.0
 40
0.0
 40
1.0
 40
1.0
 40
1.0
 40
2.0
 40
2.0
 40
2.0
 40
3.0
 40
3.0
 40
3.0
 40
4.0
 40
4.0
 40
4.0
 40
5.0
 40
5.0
 40
5.0
 40
6.0
 40
6.0
 40
6.0
 40
7.0
 40
7.0
 40
7.0
 40
8.0
 40
8.0
 40
8.0
 40
8.0
 10
1915.332097531789
 20
-470.008633259651
 30
0.0
 10
1915.332097531789
 20
-470.008633259651
 30
0.0
 10
2017.010855374671
 20
-470.008633259651
 30
0.0
 10
2017.010855374671
 20
-470.008633259651
 30
0.0
 10
2020.62055768565
 20
-470.008633259651
 30
0.0
 10
2023.546799581151
 20
-467.0823913641561
 30
0.0
 10
2023.546799581151
 20
-463.4726890531746
 30
0.0
 10
2023.546799581151
 20
-463.4726890531746
 30
0.0
 10
2023.546799581151
 20
-412.3176506013878
 30
0.0
 10
2023.546799581151
 20
-412.3176506013878
 30
0.0
 10
2023.546799581151
 20
-408.7079482904064
 30
0.0
 10
2020.62055768565
 20
-405.7817063949114
 30
0.0
 10
2017.010855374671
 20
-405.7817063949114
 30
0.0
 10
2017.010855374671
 20
-405.7817063949114
 30
0.0
 10
1915.332097531789
 20
-405.7817063949114
 30
0.0
 10
1915.332097531789
 20
-405.7817063949114
 30
0.0
 10
1911.72239522081
 20
-405.7817063949114
 30
0.0
 10
1908.79615332532
 20
-408.7079482904064
 30
0.0
 10
1908.79615332532
 20
-412.3176506013878
 30
0.0
 10
1908.79615332532
 20
-412.3176506013878
 30
0.0
 10
1908.79615332532
 20
-463.4726890531746
 30
0.0
 10
1908.79615332532
 20
-463.4726890531746
 30
0.0
 10
1908.79615332532
 20
-467.0823913641561
 30
0.0
 10
1911.72239522081
 20
-470.008633259651
 30
0.0
 10
1915.332097531789
 20
-470.008633259651
 30
0.0
  0
LWPOLYLINE
  5
11E
330
70
100
AcDbEntity
  8
Layer 3
 62
    18
420
        0
370
    35
100
AcDbPolyline
 90
        3
 70
     0
 43
0.0
 10
2015.81479611808
 20
-449.7832750960369
 10
1959.868980068761
 20
-521.4541879632843
 10
1895.682283433511
 20
-535.2441157206658
  0
ELLIPSE
  5
11F
330
70
100
AcDbEntity
  8
Layer 3
 62
    18
420
        0
370
    18
100
AcDbEllipse
 10
2016.71062839604
 20
-299.6382978723393
 30
0.0
 11
20.12974046373938
 21
0.0
 31
0.0
210
0.0
220
0.0
230
1.0
 40
0.5843716658505722
 41
0.0
 42
6.283185307179586
  0
ELLIPSE
  5
120
330
70
100
AcDbEntity
  8
Layer 3
 62
    18
420
        0
370
    18
100
AcDbEllipse
 10
2016.71062839604
 20
-299.6382978723395
 30
0.0
 11
0.0000000000000007
 21
11.47514766410586
 31
0.0
210
0.0
220
0.0
230
1.0
 40
0.9652049801611221
 41
0.0
 42
6.283185307179586
  0
INSERT
  5
122
330
70
100
AcDbEntity
  8
Layer 3
100
AcDbBlockReference
  2
Block_11
 10
0.0
 20
0.0
 30
0.0
  0
SPLINE
  5
127
330
70
100
AcDbEntity
  8
Layer 3
 62
    18
420
        0
370
    25
100
AcDbSpline
210
0.0
220
0.0
230
1.0
 70
     8
 71
     3
 72
    17
 73
    13
 74
     0
 42
0.0000000001
 43
0.0000000001
 40
0.0
 40
0.0
 40
0.0
 40
0.0
 40
1.0
 40
1.0
 40
1.0
 40
2.0
 40
2.0
 40
2.0
 40
3.0
 40
3.0
 40
3.0
 40
4.0
 40
4.0
 40
4.0
 40
4.0
 10
1992.603412423299
 20
-310.5389811817568
 30
0.0
 10
1993.22137058541
 20
-319.2383554465187
 30
0.0
 10
1991.112406656921
 20
-323.3871655843231
 30
0.0
 10
1988.710240548229
 20
-325.5203185651253
 30
0.0
 10
1985.018800282031
 20
-328.7983097134147
 30
0.0
 10
1979.940942693411
 20
-327.932954578152
 30
0.0
 10
1979.25562248264
 20
-330.7061590571002
 30
0.0
 10
1978.622862396671
 20
-333.2665946233938
 30
0.0
 10
1982.374573969569
 20
-336.3390713882027
 30
0.0
 10
1983.704885796189
 20
-337.4285363773006
 30
0.0
 10
1986.88614717812
 20
-340.0338306461545
 30
0.0
 10
1990.24104310388
 20
-340.8067594065415
 30
0.0
 10
1992.047232350531
 20
-341.07784004105
 30
0.0
  0
ELLIPSE
  5
128
330
70
100
AcDbEntity
  8
Layer 3
 62
    18
420
        0
370
    35
100
AcDbEllipse
 10
1793.486391476629
 20
-450.8730914324198
 30
0.0
 11
-8.903708630299826
 21
11.47598870557943
 31
0.0
210
0.0
220
0.0
230
1.0
 40
0.3622976069506445
 41
0.0
 42
6.283185307179585
  0
ELLIPSE
  5
129
330
70
100
AcDbEntity
  8
Layer 3
 62
    18
420
        0
370
    35
100
AcDbEllipse
 10
1891.29800480431
 20
-538.4436664546842
 30
0.0
 11
13.46360760055282
 21
4.716197271764934
 31
0.0
210
0.0
220
0.0
230
1.0
 40
0.3755836662132623
 41
0.0
 42
6.283185307179585
  0
ELLIPSE
  5
12A
330
70
100
AcDbEntity
  8
Layer 3
 62
    18
420
        0
370
    18
100
AcDbEllipse
 10
1991.127659574468
 20
-360.2340425531927
 30
0.0
 11
29.70212765957694
 21
0.0
 31
0.0
210
0.0
220
0.0
230
1.0
 40
0.1604584527220397
 41
0.0
 42
6.283185307179584
  0
LINE
  5
12B
330
70
100
AcDbEntity
  8
Layer 3
 62
    18
420
        0
370
    70
100
AcDbLine
 10
1848.91489361702
 20
-256.2340425531929
 30
0.0
 11
1908.69495652047
 21
-275.2042281012364
 31
0.0
  0
LINE
  5
12C
330
70
100
AcDbEntity
  8
Layer 3
 62
    18
420
        0
370
    70
100
AcDbLine
 10
1875.085106382979
 20
-227.8936170212773
 30
0.0
 11
1908.119734622291
 21
-274.8627873747282
 31
0.0
  0
LINE
  5
12D
330
70
100
AcDbEntity
  8
Layer 3
 62
    18
420
        0
370
    70
100
AcDbLine
 10
202.6170212765974
 20
-240.4042553191521
 30
0.0
 11
216.9148936170222
 21
-257.7659574468116
 31
0.0
  0
LINE
  5
12E
330
70
100
AcDbEntity
  8
Layer 3
 62
    18
420
        0
370
    70
100
AcDbLine
 10
253.3404255319156
 20
-224.7446808510667
 30
0.0
 11
254.3617021276605
 21
-243.1276595744712
 31
0.0
  0
LINE
  5
12F
330
70
100
AcDbEntity
  8
Layer 3
 62
    18
420
        0
370
    70
100
AcDbLine
 10
307.1276595744675
 20
-228.489361702128
 30
0.0
 11
292.8297872340427
 21
-248.5744680851094
 31
0.0
  0
LINE
  5
130
330
70
100
AcDbEntity
  8
Layer 3
 62
    18
420
        0
370
    70
100
AcDbLine
 10
348.6595744680835
 20
-260.8297872340427
 30
0.0
 11
325.1702127659592
 21
-273.4255319148961
 31
0.0
  0
LINE
  5
131
330
70
100
AcDbEntity
  8
Layer 3
 62
    18
420
        0
370
    70
100
AcDbLine
 10
1266.276595744679
 20
-241.4255319148951
 30
0.0
 11
1283.29787234043
 21
-258.2765957446791
 31
0.0
  0
LINE
  5
132
330
70
100
AcDbEntity
  8
Layer 3
 62
    18
420
        0
370
    70
100
AcDbLine
 10
1326.021276595749
 20
-220.234042553192
 30
0.0
 11
1327.55319148936
 21
-239.8936170212782
 31
0.0
  0
LINE
  5
133
330
70
100
AcDbEntity
  8
Layer 3
 62
    18
420
        0
370
    70
100
AcDbLine
 10
1369.680851063829
 20
-228.4042553191493
 30
0.0
 11
1360.574468085109
 21
-244.9999999999991
 31
0.0
  0
LINE
  5
134
330
70
100
AcDbEntity
  8
Layer 3
 62
    18
420
        0
370
    70
100
AcDbLine
 10
1407.723404255321
 20
-254.7021276595751
 30
0.0
 11
1390.531914893619
 21
-267.1276595744676
 31
0.0
  0
SPLINE
  5
135
330
70
100
AcDbEntity
  8
Layer 3
 62
    18
420
        0
370
    70
100
AcDbSpline
210
0.0
220
0.0
230
1.0
 70
     9
 71
     3
 72
    47
 73
    43
 74
     0
 42
0.0000000001
 43
0.0000000001
 40
0.0
 40
0.0
 40
0.0
 40
0.0
 40
1.0
 40
1.0
 40
1.0
 40
2.0
 40
2.0
 40
2.0
 40
3.0
 40
3.0
 40
3.0
 40
4.0
 40
4.0
 40
4.0
 40
5.0
 40
5.0
 40
5.0
 40
6.0
 40
6.0
 40
6.0
 40
7.0
 40
7.0
 40
7.0
 40
8.0
 40
8.0
 40
8.0
 40
9.0
 40
9.0
 40
9.0
 40
10.0
 40
10.0
 40
10.0
 40
11.0
 40
11.0
 40
11.0
 40
12.0
 40
12.0
 40
12.0
 40
13.0
 40
13.0
 40
13.0
 40
14.0
 40
14.0
 40
14.0
 40
14.0
 10
1622.70212765958
 20
-152.7446808510631
 30
0.0
 10
1619.06711789395
 20
-156.6217560463756
 30
0.0
 10
1614.284792636299
 20
-168.3010328576911
 30
0.0
 10
1610.787234042549
 20
-179.6382978723395
 30
0.0
 10
1607.951296542549
 20
-188.8311537072995
 30
0.0
 10
1613.095801820149
 20
-197.830166431183
 30
0.0
 10
1613.51059674202
 20
-202.7872281987611
 30
0.0
 10
1584.57443951546
 20
-202.7872281987611
 30
0.0
 10
1555.638282288899
 20
-202.7872281987611
 30
0.0
 10
1526.702125062329
 20
-202.7872281987611
 30
0.0
 10
1527.17520705527
 20
-198.9285479048658
 30
0.0
 10
1527.45570420882
 20
-193.1851164517438
 30
0.0
 10
1526.166740288599
 20
-186.4843122920101
 30
0.0
 10
1525.867900491339
 20
-184.9307645742156
 30
0.0
 10
1525.484698883359
 20
-183.325756073852
 30
0.0
 10
1524.999976624829
 20
-181.6808439214173
 30
0.0
 10
1520.74826764046
 20
-167.2526060063783
 30
0.0
 10
1511.32846783577
 20
-158.7231412846986
 30
0.0
 10
1507.297828187329
 20
-155.4680906255189
 30
0.0
 10
1507.297828187329
 20
-155.4680906255189
 30
0.0
 10
1534.87234042553
 20
-167.0425531914889
 30
0.0
 10
1534.87234042553
 20
-167.0425531914889
 30
0.0
 10
1534.87234042553
 20
-167.0425531914889
 30
0.0
 10
1539.978723404259
 20
-148.6595744680844
 30
0.0
 10
1539.978723404259
 20
-148.6595744680844
 30
0.0
 10
1539.978723404259
 20
-148.6595744680844
 30
0.0
 10
1554.617021276601
 20
-162.27659574468
 30
0.0
 10
1554.617021276601
 20
-162.27659574468
 30
0.0
 10
1554.617021276601
 20
-162.27659574468
 30
0.0
 10
1567.212765957451
 20
-124.4893617021271
 30
0.0
 10
1567.212765957451
 20
-124.4893617021271
 30
0.0
 10
1567.212765957451
 20
-124.4893617021271
 30
0.0
 10
1578.44680851064
 20
-162.9574468085102
 30
0.0
 10
1578.44680851064
 20
-162.9574468085102
 30
0.0
 10
1578.44680851064
 20
-162.9574468085102
 30
0.0
 10
1587.978723404259
 20
-146.27659574468
 30
0.0
 10
1587.978723404259
 20
-146.27659574468
 30
0.0
 10
1587.978723404259
 20
-146.27659574468
 30
0.0
 10
1599.55319148936
 20
-164.3191489361697
 30
0.0
 10
1599.55319148936
 20
-164.3191489361697
 30
0.0
 10
1599.55319148936
 20
-164.3191489361697
 30
0.0
 10
1622.70212765958
 20
-152.7446808510631
 30
0.0
 10
1622.70212765958
 20
-152.7446808510631
 30
0.0
  0
SPLINE
  5
136
330
70
100
AcDbEntity
  8
Layer 3
 62
    18
420
        0
370
    70
100
AcDbSpline
210
0.0
220
0.0
230
1.0
 70
     8
 71
     3
 72
     8
 73
     4
 74
     0
 42
0.0000000001
 43
0.0000000001
 40
0.0
 40
0.0
 40
0.0
 40
0.0
 40
1.0
 40
1.0
 40
1.0
 40
1.0
 10
1610.787234042549
 20
-188.8297872340417
 30
0.0
 10
1610.787234042549
 20
-188.8297872340417
 30
0.0
 10
1523.638297872339
 20
-189.510638297872
 30
0.0
 10
1524.659574468091
 20
-189.510638297872
 30
0.0
  0
CIRCLE
  5
137
330
70
100
AcDbEntity
  8
Layer 3
 62
    18
420
        0
370
    70
100
AcDbCircle
 10
1566.191489361703
 20
-171.8085106382978
 30
0.0
 40
9.531914893614384
  0
CIRCLE
  5
138
330
70
100
AcDbEntity
  8
Layer 3
 62
    18
420
        0
370
    70
100
AcDbCircle
 10
1538.617021276598
 20
-175.2127659574462
 30
0.0
 40
5.446808510638446
  0
CIRCLE
  5
139
330
70
100
AcDbEntity
  8
Layer 3
 62
    18
420
        0
370
    70
100
AcDbCircle
 10
1590.021276595743
 20
-175.2127659574462
 30
0.0
 40
5.446808510635718
  0
CIRCLE
  5
13A
330
70
100
AcDbEntity
  8
Layer 3
 62
    18
420
        0
370
    70
100
AcDbCircle
 10
1725.774166141738
 20
-122.8115561016002
 30
0.0
 40
19.63187480803458
  0
CIRCLE
  5
13B
330
70
100
AcDbEntity
  8
Layer 3
 62
    18
420
        0
370
    18
100
AcDbCircle
 10
1719.159691080699
 20
-117.2689362743333
 30
0.0
 40
4.188697426711882
  0
CIRCLE
  5
13C
330
70
100
AcDbEntity
  8
Layer 3
 62
    18
420
        0
370
    18
100
AcDbCircle
 10
1733.714356886657
 20
-117.6074168744717
 30
0.0
 40
5.542619827267343
  0
CIRCLE
  5
13D
330
70
100
AcDbEntity
  8
Layer 3
 62
    18
420
        0
370
    18
100
AcDbCircle
 10
1719.498171680832
 20
-117.4381765744003
 30
0.0
 40
2.552707859375345
  0
CIRCLE
  5
13E
330
70
100
AcDbEntity
  8
Layer 3
 62
    18
420
        0
370
    18
100
AcDbCircle
 10
1719.526378397517
 20
-117.4663832910789
 30
0.0
 40
1.142372025467807
  0
ELLIPSE
  5
13F
330
70
100
AcDbEntity
  8
Layer 3
 62
    18
420
        0
370
    18
100
AcDbEllipse
 10
1719.526378397512
 20
-117.3394530660268
 30
0.0
 11
0.0
 21
0.1692403000690774
 31
0.0
210
0.0
220
0.0
230
1.0
 40
0.7500000000016794
 41
0.0
 42
6.283185307179586
  0
CIRCLE
  5
140
330
70
100
AcDbEntity
  8
Layer 3
 62
    18
420
        0
370
    18
100
AcDbCircle
 10
1733.71435688665
 20
-117.6074168744701
 30
0.0
 40
3.765596676539985
  0
CIRCLE
  5
141
330
70
100
AcDbEntity
  8
Layer 3
 62
    18
420
        0
370
    18
100
AcDbCircle
 10
1733.99642405343
 20
-117.607416874469
 30
0.0
 40
2.186020542560072
  0
ELLIPSE
  5
142
330
70
100
AcDbEntity
  8
Layer 3
 62
    18
420
        0
370
    18
100
AcDbEllipse
 10
1733.989372374263
 20
-117.6215202328089
 30
0.0
 11
0.0000000000000001
 21
0.9872350837363226
 31
0.0
210
0.0
220
0.0
230
1.0
 40
0.971428571423544
 41
0.0
 42
6.283185307179586
  0
ELLIPSE
  5
143
330
70
100
AcDbEntity
  8
Layer 3
 62
    18
420
        0
370
    18
100
AcDbEllipse
 10
1727.071675108938
 20
-131.4851214801476
 30
0.0
 11
9.985177704088528
 21
0.0
 31
0.0
210
0.0
220
0.0
230
1.0
 40
0.2245762711863257
 41
0.0
 42
6.283185307179585
  0
ELLIPSE
  5
144
330
70
100
AcDbEntity
  8
Layer 3
 62
    18
420
        0
370
    18
100
AcDbEllipse
 10
1733.566271624092
 20
-134.8910825190421
 30
0.0
 11
0.0000000000000001
 21
1.248147213009588
 31
0.0
210
0.0
220
0.0
230
1.0
 40
0.1694915254202028
 41
0.0
 42
6.283185307179584
  0
CIRCLE
  5
145
330
70
100
AcDbEntity
  8
Layer 3
 62
    18
420
        0
370
    70
100
AcDbCircle
 10
1773.295432065343
 20
-122.360248634749
 30
0.0
 40
19.63187480803231
  0
CIRCLE
  5
146
330
70
100
AcDbEntity
  8
Layer 3
 62
    18
420
        0
370
    18
100
AcDbCircle
 10
1766.68095700431
 20
-116.8176288074821
 30
0.0
 40
4.188697426711882
  0
CIRCLE
  5
147
330
70
100
AcDbEntity
  8
Layer 3
 62
    18
420
        0
370
    18
100
AcDbCircle
 10
1781.23562281026
 20
-117.1561094076212
 30
0.0
 40
5.542619827269049
  0
CIRCLE
  5
148
330
70
100
AcDbEntity
  8
Layer 3
 62
    18
420
        0
370
    18
100
AcDbCircle
 10
1767.019437604442
 20
-116.9868691075496
 30
0.0
 40
2.552707859374663
  0
CIRCLE
  5
149
330
70
100
AcDbEntity
  8
Layer 3
 62
    18
420
        0
370
    18
100
AcDbCircle
 10
1767.047644321122
 20
-117.015075824228
 30
0.0
 40
1.14237202546451
  0
ELLIPSE
  5
14A
330
70
100
AcDbEntity
  8
Layer 3
 62
    18
420
        0
370
    18
100
AcDbEllipse
 10
1767.04764432112
 20
-116.8881455991763
 30
0.0
 11
0.0
 21
0.1692403000683953
 31
0.0
210
0.0
220
0.0
230
1.0
 40
0.7499999999912674
 41
0.0
 42
6.283185307179586
  0
CIRCLE
  5
14B
330
70
100
AcDbEntity
  8
Layer 3
 62
    18
420
        0
370
    18
100
AcDbCircle
 10
1781.23562281026
 20
-117.1561094076189
 30
0.0
 40
3.765596676539985
  0
CIRCLE
  5
14C
330
70
100
AcDbEntity
  8
Layer 3
 62
    18
420
        0
370
    18
100
AcDbCircle
 10
1781.517689977039
 20
-117.156109407618
 30
0.0
 40
2.186020542560413
  0
ELLIPSE
  5
14D
330
70
100
AcDbEntity
  8
Layer 3
 62
    18
420
        0
370
    18
100
AcDbEllipse
 10
1781.51063829787
 20
-117.1702127659573
 30
0.0
 11
0.0000000000000001
 21
0.9872350837367775
 31
0.0
210
0.0
220
0.0
230
1.0
 40
0.9714285714304665
 41
0.0
 42
6.283185307179586
  0
ELLIPSE
  5
14E
330
70
100
AcDbEntity
  8
Layer 3
 62
    18
420
        0
370
    18
100
AcDbEllipse
 10
1774.592941032543
 20
-131.0338140132967
 30
0.0
 11
9.985177704082616
 21
0.0
 31
0.0
210
0.0
220
0.0
230
1.0
 40
0.2245762711865269
 41
0.0
 42
6.283185307179585
  0
ELLIPSE
  5
14F
330
70
100
AcDbEntity
  8
Layer 3
 62
    18
420
        0
370
    18
100
AcDbEllipse
 10
1781.087537547701
 20
-134.4397750521909
 30
0.0
 11
0.0000000000000001
 21
1.248147213009588
 31
0.0
210
0.0
220
0.0
230
1.0
 40
0.1694915254267608
 41
0.0
 42
6.283185307179584
  0
CIRCLE
  5
150
330
70
100
AcDbEntity
  8
Layer 3
 62
    18
420
        0
370
    70
100
AcDbCircle
 10
1822.76296143975
 20
-121.1755665342632
 30
0.0
 40
19.63187480803174
  0
CIRCLE
  5
151
330
70
100
AcDbEntity
  8
Layer 3
 62
    18
420
        0
370
    18
100
AcDbCircle
 10
1816.148486378713
 20
-115.6329467069963
 30
0.0
 40
4.188697426712678
  0
CIRCLE
  5
152
330
70
100
AcDbEntity
  8
Layer 3
 62
    18
420
        0
370
    18
100
AcDbCircle
 10
1830.70315218467
 20
-115.9714273071349
 30
0.0
 40
5.542619827268707
  0
CIRCLE
  5
153
330
70
100
AcDbEntity
  8
Layer 3
 62
    18
420
        0
370
    18
100
AcDbCircle
 10
1816.486966978847
 20
-115.8021870070643
 30
0.0
 40
2.552707859377278
  0
CIRCLE
  5
154
330
70
100
AcDbEntity
  8
Layer 3
 62
    18
420
        0
370
    18
100
AcDbCircle
 10
1816.515173695528
 20
-115.8303937237424
 30
0.0
 40
1.142372025467011
  0
ELLIPSE
  5
155
330
70
100
AcDbEntity
  8
Layer 3
 62
    18
420
        0
370
    18
100
AcDbEllipse
 10
1816.515173695528
 20
-115.7034634986905
 30
0.0
 11
0.0
 21
0.1692403000686227
 31
0.0
210
0.0
220
0.0
230
1.0
 40
0.7500000000359385
 41
0.0
 42
6.283185307179586
  0
CIRCLE
  5
156
330
70
100
AcDbEntity
  8
Layer 3
 62
    18
420
        0
370
    18
100
AcDbCircle
 10
1830.70315218466
 20
-115.9714273071331
 30
0.0
 40
3.765596676540098
  0
CIRCLE
  5
157
330
70
100
AcDbEntity
  8
Layer 3
 62
    18
420
        0
370
    18
100
AcDbCircle
 10
1830.985219351451
 20
-115.9714273071324
 30
0.0
 40
2.186020542560413
  0
ELLIPSE
  5
158
330
70
100
AcDbEntity
  8
Layer 3
 62
    18
420
        0
370
    18
100
AcDbEllipse
 10
1830.978167672277
 20
-115.9855306654719
 30
0.0
 11
0.0000000000000001
 21
0.9872350837374597
 31
0.0
210
0.0
220
0.0
230
1.0
 40
0.9714285714270316
 41
0.0
 42
6.283185307179586
  0
ELLIPSE
  5
159
330
70
100
AcDbEntity
  8
Layer 3
 62
    18
420
        0
370
    18
100
AcDbEllipse
 10
1824.060470406948
 20
-129.8491319128109
 30
0.0
 11
9.985177704087163
 21
0.0
 31
0.0
210
0.0
220
0.0
230
1.0
 40
0.2245762711863563
 41
0.0
 42
6.283185307179585
  0
ELLIPSE
  5
15A
330
70
100
AcDbEntity
  8
Layer 3
 62
    18
420
        0
370
    18
100
AcDbEllipse
 10
1830.555066922102
 20
-133.2550929517053
 30
0.0
 11
0.0000000000000001
 21
1.248147213009588
 31
0.0
210
0.0
220
0.0
230
1.0
 40
0.1694915254202028
 41
0.0
 42
6.283185307179584
  0
CIRCLE
  5
15B
330
70
100
AcDbEntity
  8
Layer 3
 62
    18
420
        0
370
    70
100
AcDbCircle
 10
1731.316785969002
 20
-171.0450416213316
 30
0.0
 40
19.63187480803231
  0
CIRCLE
  5
15C
330
70
100
AcDbEntity
  8
Layer 3
 62
    18
420
        0
370
    18
100
AcDbCircle
 10
1724.702310907967
 20
-165.5024217940649
 30
0.0
 40
4.188697426715862
  0
CIRCLE
  5
15D
330
70
100
AcDbEntity
  8
Layer 3
 62
    18
420
        0
370
    18
100
AcDbCircle
 10
1739.25697671392
 20
-165.8409023942031
 30
0.0
 40
5.542619827268707
  0
CIRCLE
  5
15E
330
70
100
AcDbEntity
  8
Layer 3
 62
    18
420
        0
370
    18
100
AcDbCircle
 10
1725.0407915081
 20
-165.6716620941317
 30
0.0
 40
2.552707859378301
  0
CIRCLE
  5
15F
330
70
100
AcDbEntity
  8
Layer 3
 62
    18
420
        0
370
    18
100
AcDbCircle
 10
1725.06899822478
 20
-165.6998688108106
 30
0.0
 40
1.142372025468375
  0
ELLIPSE
  5
160
330
70
100
AcDbEntity
  8
Layer 3
 62
    18
420
        0
370
    18
100
AcDbEllipse
 10
1725.06899822478
 20
-165.5729385857589
 30
0.0
 11
0.0
 21
0.1692403000683953
 31
0.0
210
0.0
220
0.0
230
1.0
 40
0.7499999999966413
 41
0.0
 42
6.283185307179586
  0
CIRCLE
  5
161
330
70
100
AcDbEntity
  8
Layer 3
 62
    18
420
        0
370
    18
100
AcDbCircle
 10
1739.256976713919
 20
-165.8409023942015
 30
0.0
 40
3.765596676539985
  0
CIRCLE
  5
162
330
70
100
AcDbEntity
  8
Layer 3
 62
    18
420
        0
370
    18
100
AcDbCircle
 10
1739.5390438807
 20
-165.8409023942006
 30
0.0
 40
2.186020542560186
  0
ELLIPSE
  5
163
330
70
100
AcDbEntity
  8
Layer 3
 62
    18
420
        0
370
    18
100
AcDbEllipse
 10
1739.53199220153
 20
-165.8550057525399
 30
0.0
 11
0.0000000000000001
 21
0.9872350837367775
 31
0.0
210
0.0
220
0.0
230
1.0
 40
0.9714285714290845
 41
0.0
 42
6.283185307179586
  0
ELLIPSE
  5
164
330
70
100
AcDbEntity
  8
Layer 3
 62
    18
420
        0
370
    18
100
AcDbEllipse
 10
1732.614294936202
 20
-179.7186069998788
 30
0.0
 11
9.985177704082616
 21
0.0
 31
0.0
210
0.0
220
0.0
230
1.0
 40
0.2245762711864814
 41
0.0
 42
6.283185307179585
  0
ELLIPSE
  5
165
330
70
100
AcDbEntity
  8
Layer 3
 62
    18
420
        0
370
    18
100
AcDbEllipse
 10
1739.10889145136
 20
-183.1245680387737
 30
0.0
 11
0.0000000000000001
 21
1.24814721300936
 31
0.0
210
0.0
220
0.0
230
1.0
 40
0.1694915254267917
 41
0.0
 42
6.283185307179584
  0
CIRCLE
  5
166
330
70
100
AcDbEntity
  8
Layer 3
 62
    18
420
        0
370
    70
100
AcDbCircle
 10
1780.057992388942
 20
-172.3989640218851
 30
0.0
 40
19.63187480803231
  0
CIRCLE
  5
167
330
70
100
AcDbEntity
  8
Layer 3
 62
    18
420
        0
370
    18
100
AcDbCircle
 10
1773.443517327908
 20
-166.8563441946191
 30
0.0
 40
4.188697426715748
  0
CIRCLE
  5
168
330
70
100
AcDbEntity
  8
Layer 3
 62
    18
420
        0
370
    18
100
AcDbCircle
 10
1787.99818313386
 20
-167.1948247947566
 30
0.0
 40
5.542619827268707
  0
CIRCLE
  5
169
330
70
100
AcDbEntity
  8
Layer 3
 62
    18
420
        0
370
    18
100
AcDbCircle
 10
1773.78199792804
 20
-167.0255844946862
 30
0.0
 40
2.552707859378301
  0
CIRCLE
  5
16A
330
70
100
AcDbEntity
  8
Layer 3
 62
    18
420
        0
370
    18
100
AcDbCircle
 10
1773.81020464472
 20
-167.0537912113648
 30
0.0
 40
1.142372025468489
  0
ELLIPSE
  5
16B
330
70
100
AcDbEntity
  8
Layer 3
 62
    18
420
        0
370
    18
100
AcDbEllipse
 10
1773.81020464472
 20
-166.9268609863127
 30
0.0
 11
0.0
 21
0.1692403000690774
 31
0.0
210
0.0
220
0.0
230
1.0
 40
0.7499999999936185
 41
0.0
 42
6.283185307179586
  0
CIRCLE
  5
16C
330
70
100
AcDbEntity
  8
Layer 3
 62
    18
420
        0
370
    18
100
AcDbCircle
 10
1787.99818313386
 20
-167.1948247947559
 30
0.0
 40
3.765596676540212
  0
CIRCLE
  5
16D
330
70
100
AcDbEntity
  8
Layer 3
 62
    18
420
        0
370
    18
100
AcDbCircle
 10
1788.28025030064
 20
-167.1948247947546
 30
0.0
 40
2.186020542560186
  0
ELLIPSE
  5
16E
330
70
100
AcDbEntity
  8
Layer 3
 62
    18
420
        0
370
    18
100
AcDbEllipse
 10
1788.27319862147
 20
-167.2089281530941
 30
0.0
 11
0.0000000000000001
 21
0.9872350837370051
 31
0.0
210
0.0
220
0.0
230
1.0
 40
0.9714285714288607
 41
0.0
 42
6.283185307179586
  0
ELLIPSE
  5
16F
330
70
100
AcDbEntity
  8
Layer 3
 62
    18
420
        0
370
    18
100
AcDbEllipse
 10
1781.355501356142
 20
-181.0725294004337
 30
0.0
 11
9.985177704082616
 21
0.0
 31
0.0
210
0.0
220
0.0
230
1.0
 40
0.2245762711865269
 41
0.0
 42
6.283185307179585
  0
ELLIPSE
  5
170
330
70
100
AcDbEntity
  8
Layer 3
 62
    18
420
        0
370
    18
100
AcDbEllipse
 10
1787.8500978713
 20
-184.478490439328
 30
0.0
 11
0.0000000000000001
 21
1.248147213010497
 31
0.0
210
0.0
220
0.0
230
1.0
 40
0.1694915254266373
 41
0.0
 42
6.283185307179584
  0
CIRCLE
  5
171
330
70
100
AcDbEntity
  8
Layer 3
 62
    18
420
        0
370
    70
100
AcDbCircle
 10
1828.347891342029
 20
-171.4963490881825
 30
0.0
 40
19.63187480803083
  0
CIRCLE
  5
172
330
70
100
AcDbEntity
  8
Layer 3
 62
    18
420
        0
370
    18
100
AcDbCircle
 10
1821.733416280992
 20
-165.9537292609156
 30
0.0
 40
4.188697426712678
  0
CIRCLE
  5
173
330
70
100
AcDbEntity
  8
Layer 3
 62
    18
420
        0
370
    18
100
AcDbCircle
 10
1836.28808208695
 20
-166.292209861054
 30
0.0
 40
5.542619827268821
  0
CIRCLE
  5
174
330
70
100
AcDbEntity
  8
Layer 3
 62
    18
420
        0
370
    18
100
AcDbCircle
 10
1822.07189688113
 20
-166.1229695609829
 30
0.0
 40
2.552707859378756
  0
CIRCLE
  5
175
330
70
100
AcDbEntity
  8
Layer 3
 62
    18
420
        0
370
    18
100
AcDbCircle
 10
1822.100103597807
 20
-166.1511762776615
 30
0.0
 40
1.142372025467352
  0
ELLIPSE
  5
176
330
70
100
AcDbEntity
  8
Layer 3
 62
    18
420
        0
370
    18
100
AcDbEllipse
 10
1822.100103597807
 20
-166.0242460526097
 30
0.0
 11
0.0
 21
0.1692403000697595
 31
0.0
210
0.0
220
0.0
230
1.0
 40
0.7500000000309005
 41
0.0
 42
6.283185307179586
  0
CIRCLE
  5
177
330
70
100
AcDbEntity
  8
Layer 3
 62
    18
420
        0
370
    18
100
AcDbCircle
 10
1836.28808208694
 20
-166.2922098610522
 30
0.0
 40
3.76559667654044
  0
CIRCLE
  5
178
330
70
100
AcDbEntity
  8
Layer 3
 62
    18
420
        0
370
    18
100
AcDbCircle
 10
1836.570149253728
 20
-166.2922098610513
 30
0.0
 40
2.186020542563596
  0
ELLIPSE
  5
179
330
70
100
AcDbEntity
  8
Layer 3
 62
    18
420
        0
370
    18
100
AcDbEllipse
 10
1836.56309757456
 20
-166.3063132193908
 30
0.0
 11
0.0000000000000001
 21
0.9872350837370051
 31
0.0
210
0.0
220
0.0
230
1.0
 40
0.9714285714297821
 41
0.0
 42
6.283185307179586
  0
ELLIPSE
  5
17A
330
70
100
AcDbEntity
  8
Layer 3
 62
    18
420
        0
370
    18
100
AcDbEllipse
 10
1829.645400309227
 20
-180.1699144667302
 30
0.0
 11
9.985177704087163
 21
0.0
 31
0.0
210
0.0
220
0.0
230
1.0
 40
0.2245762711863563
 41
0.0
 42
6.283185307179585
  0
ELLIPSE
  5
17B
330
70
100
AcDbEntity
  8
Layer 3
 62
    18
420
        0
370
    18
100
AcDbEllipse
 10
1836.139996824383
 20
-183.5758755056247
 30
0.0
 11
0.0000000000000001
 21
1.248147213009588
 31
0.0
210
0.0
220
0.0
230
1.0
 40
0.1694915254212958
 41
0.0
 42
6.283185307179584
  0
CIRCLE
  5
17C
330
70
100
AcDbEntity
  8
Layer 3
 62
    18
420
        0
370
    70
100
AcDbCircle
 10
1731.50718130659
 20
-223.6223615095077
 30
0.0
 40
19.63187480803117
  0
CIRCLE
  5
17D
330
70
100
AcDbEntity
  8
Layer 3
 62
    18
420
        0
370
    18
100
AcDbCircle
 10
1724.892706245558
 20
-218.0797416822409
 30
0.0
 40
4.188697426715748
  0
CIRCLE
  5
17E
330
70
100
AcDbEntity
  8
Layer 3
 62
    18
420
        0
370
    18
100
AcDbCircle
 10
1739.44737205151
 20
-218.4182222823793
 30
0.0
 40
5.542619827269163
  0
CIRCLE
  5
17F
330
70
100
AcDbEntity
  8
Layer 3
 62
    18
420
        0
370
    18
100
AcDbCircle
 10
1725.231186845689
 20
-218.2489819823083
 30
0.0
 40
2.552707859378074
  0
CIRCLE
  5
180
330
70
100
AcDbEntity
  8
Layer 3
 62
    18
420
        0
370
    18
100
AcDbCircle
 10
1725.25939356237
 20
-218.2771886989867
 30
0.0
 40
1.142372025468375
  0
ELLIPSE
  5
181
330
70
100
AcDbEntity
  8
Layer 3
 62
    18
420
        0
370
    18
100
AcDbEllipse
 10
1725.25939356237
 20
-218.1502584739353
 30
0.0
 11
0.0
 21
0.1692403000690774
 31
0.0
210
0.0
220
0.0
230
1.0
 40
0.7499999999855575
 41
0.0
 42
6.283185307179586
  0
CIRCLE
  5
182
330
70
100
AcDbEntity
  8
Layer 3
 62
    18
420
        0
370
    18
100
AcDbCircle
 10
1739.447372051502
 20
-218.4182222823781
 30
0.0
 40
3.765596676541121
  0
CIRCLE
  5
183
330
70
100
AcDbEntity
  8
Layer 3
 62
    18
420
        0
370
    18
100
AcDbCircle
 10
1739.72943921829
 20
-218.4182222823774
 30
0.0
 40
2.186020542560527
  0
ELLIPSE
  5
184
330
70
100
AcDbEntity
  8
Layer 3
 62
    18
420
        0
370
    18
100
AcDbEllipse
 10
1739.72238753912
 20
-218.4323256407165
 30
0.0
 11
0.0000000000000001
 21
0.9872350837363226
 31
0.0
210
0.0
220
0.0
230
1.0
 40
0.9714285714304534
 41
0.0
 42
6.283185307179586
  0
ELLIPSE
  5
185
330
70
100
AcDbEntity
  8
Layer 3
 62
    18
420
        0
370
    18
100
AcDbEllipse
 10
1732.804690273792
 20
-232.2959268880554
 30
0.0
 11
9.985177704083071
 21
0.0
 31
0.0
210
0.0
220
0.0
230
1.0
 40
0.2245762711865167
 41
0.0
 42
6.283185307179585
  0
ELLIPSE
  5
186
330
70
100
AcDbEntity
  8
Layer 3
 62
    18
420
        0
370
    18
100
AcDbEllipse
 10
1775.196808510642
 20
-228.3244680851101
 30
0.0
 11
0.0000000000000001
 21
0.9414893617015422
 31
0.0
210
0.0
220
0.0
230
1.0
 40
0.1694915254211828
 41
0.0
 42
6.283185307179584
  0
CIRCLE
  5
187
330
70
100
AcDbEntity
  8
Layer 3
 62
    18
420
        0
370
    70
100
AcDbCircle
 10
1781.595258447912
 20
-221.7607182087458
 30
0.0
 40
19.63187480803185
  0
CIRCLE
  5
188
330
70
100
AcDbEntity
  8
Layer 3
 62
    18
420
        0
370
    18
100
AcDbCircle
 10
1774.980783386877
 20
-216.2180983814788
 30
0.0
 40
4.188697426715634
  0
CIRCLE
  5
189
330
70
100
AcDbEntity
  8
Layer 3
 62
    18
420
        0
370
    18
100
AcDbCircle
 10
1789.53544919283
 20
-216.5565789816174
 30
0.0
 40
5.542619827269163
  0
CIRCLE
  5
18A
330
70
100
AcDbEntity
  8
Layer 3
 62
    18
420
        0
370
    18
100
AcDbCircle
 10
1775.31926398701
 20
-216.3873386815467
 30
0.0
 40
2.552707859379097
  0
CIRCLE
  5
18B
330
70
100
AcDbEntity
  8
Layer 3
 62
    18
420
        0
370
    18
100
AcDbCircle
 10
1775.347470703689
 20
-216.4155453982248
 30
0.0
 40
1.142372025468375
  0
ELLIPSE
  5
18C
330
70
100
AcDbEntity
  8
Layer 3
 62
    18
420
        0
370
    18
100
AcDbEllipse
 10
1775.34747070369
 20
-216.2886151731732
 30
0.0
 11
0.0
 21
0.1692403000683953
 31
0.0
210
0.0
220
0.0
230
1.0
 40
0.7499999999912674
 41
0.0
 42
6.283185307179586
  0
CIRCLE
  5
18D
330
70
100
AcDbEntity
  8
Layer 3
 62
    18
420
        0
370
    18
100
AcDbCircle
 10
1789.535449192825
 20
-216.5565789816162
 30
0.0
 40
3.765596676537029
  0
CIRCLE
  5
18E
330
70
100
AcDbEntity
  8
Layer 3
 62
    18
420
        0
370
    18
100
AcDbCircle
 10
1789.817516359609
 20
-216.5565789816151
 30
0.0
 40
2.186020542560299
  0
ELLIPSE
  5
18F
330
70
100
AcDbEntity
  8
Layer 3
 62
    18
420
        0
370
    18
100
AcDbEllipse
 10
1789.81046468044
 20
-216.5706823399542
 30
0.0
 11
0.0000000000000001
 21
0.9872350837367775
 31
0.0
210
0.0
220
0.0
230
1.0
 40
0.9714285714304665
 41
0.0
 42
6.283185307179586
  0
ELLIPSE
  5
190
330
70
100
AcDbEntity
  8
Layer 3
 62
    18
420
        0
370
    18
100
AcDbEllipse
 10
1782.892767415112
 20
-230.4342835872933
 30
0.0
 11
9.985177704081706
 21
0.0
 31
0.0
210
0.0
220
0.0
230
1.0
 40
0.2245762711864791
 41
0.0
 42
6.283185307179585
  0
ELLIPSE
  5
191
330
70
100
AcDbEntity
  8
Layer 3
 62
    18
420
        0
370
    18
100
AcDbEllipse
 10
1812.97872340426
 20
-226.9202127659607
 30
0.0
 11
0.0000000000000001
 21
0.9414893617015422
 31
0.0
210
0.0
220
0.0
230
1.0
 40
0.1694915254284279
 41
0.0
 42
6.283185307179584
  0
CIRCLE
  5
192
330
70
100
AcDbEntity
  8
Layer 3
 62
    18
420
        0
370
    70
100
AcDbCircle
 10
1830.611480355459
 20
-220.2939689414761
 30
0.0
 40
19.63187480803049
  0
CIRCLE
  5
193
330
70
100
AcDbEntity
  8
Layer 3
 62
    18
420
        0
370
    18
100
AcDbCircle
 10
1823.997005294422
 20
-214.7513491142099
 30
0.0
 40
4.18869742671336
  0
CIRCLE
  5
194
330
70
100
AcDbEntity
  8
Layer 3
 62
    18
420
        0
370
    18
100
AcDbCircle
 10
1838.55167110038
 20
-215.0898297143476
 30
0.0
 40
5.542619827269163
  0
CIRCLE
  5
195
330
70
100
AcDbEntity
  8
Layer 3
 62
    18
420
        0
370
    18
100
AcDbCircle
 10
1824.33548589456
 20
-214.9205894142769
 30
0.0
 40
2.552707859378642
  0
CIRCLE
  5
196
330
70
100
AcDbEntity
  8
Layer 3
 62
    18
420
        0
370
    18
100
AcDbCircle
 10
1824.363692611239
 20
-214.9487961309553
 30
0.0
 40
1.142372025468716
  0
ELLIPSE
  5
197
330
70
100
AcDbEntity
  8
Layer 3
 62
    18
420
        0
370
    18
100
AcDbEllipse
 10
1824.363692611237
 20
-214.8218659059037
 30
0.0
 11
0.0
 21
0.1692403000690774
 31
0.0
210
0.0
220
0.0
230
1.0
 40
0.7500000000366103
 41
0.0
 42
6.283185307179586
  0
CIRCLE
  5
198
330
70
100
AcDbEntity
  8
Layer 3
 62
    18
420
        0
370
    18
100
AcDbCircle
 10
1838.55167110037
 20
-215.0898297143465
 30
0.0
 40
3.765596676539985
  0
CIRCLE
  5
199
330
70
100
AcDbEntity
  8
Layer 3
 62
    18
420
        0
370
    18
100
AcDbCircle
 10
1838.83373826716
 20
-215.0898297143456
 30
0.0
 40
2.186020542560186
  0
ELLIPSE
  5
19A
330
70
100
AcDbEntity
  8
Layer 3
 62
    18
420
        0
370
    18
100
AcDbEllipse
 10
1838.82668658799
 20
-215.1039330726849
 30
0.0
 11
0.0000000000000001
 21
0.9872350837363226
 31
0.0
210
0.0
220
0.0
230
1.0
 40
0.971428571430914
 41
0.0
 42
6.283185307179586
  0
ELLIPSE
  5
19B
330
70
100
AcDbEntity
  8
Layer 3
 62
    18
420
        0
370
    18
100
AcDbEllipse
 10
1831.908989322659
 20
-228.9675343200247
 30
0.0
 11
9.985177704078978
 21
0.0
 31
0.0
210
0.0
220
0.0
230
1.0
 40
0.2245762711866087
 41
0.0
 42
6.283185307179585
  0
ELLIPSE
  5
19C
330
70
100
AcDbEntity
  8
Layer 3
 62
    18
420
        0
370
    18
100
AcDbEllipse
 10
1849.952127659578
 20
-225.8138297872354
 30
0.0
 11
0.0000000000000001
 21
0.9414893617015422
 31
0.0
210
0.0
220
0.0
230
1.0
 40
0.1694915254269789
 41
0.0
 42
6.283185307179584
  0
ELLIPSE
  5
19D
330
70
100
AcDbEntity
  8
Layer 3
 62
    18
420
        0
370
    70
100
AcDbEllipse
 10
1682.957446808512
 20
-178.1063829787235
 30
0.0
 11
202.9787234042528
 21
0.0
 31
0.0
210
0.0
220
0.0
230
1.0
 40
0.6830188679245368
 41
0.0
 42
6.283185307179586
  0
LINE
  5
19E
330
70
100
AcDbEntity
  8
Layer 3
 62
    18
420
        0
370
    70
100
AcDbLine
 10
1631.723404255321
 20
-185.255319148936
 30
0.0
 11
1683.26063829787
 21
-178.3936170212782
 31
0.0
  0
LINE
  5
19F
330
70
100
AcDbEntity
  8
Layer 3
 62
    18
420
        0
370
    70
100
AcDbLine
 10
1670.829787234041
 20
-170.1914893617031
 30
0.0
 11
1683.73936170213
 21
-178.8563829787235
 31
0.0
  0
LINE
  5
1A0
330
70
100
AcDbEntity
  8
Layer 3
 62
    18
420
        0
370
    70
100
AcDbLine
 10
1674.659574468091
 20
-188.8297872340436
 30
0.0
 11
1682.941489361699
 21
-178.1702127659591
 31
0.0
  0
ENDSEC
  0
SECTION
  2
OBJECTS
  0
DICTIONARY
  5
C
330
0
100
AcDbDictionary
281
     1
  3
ACAD_COLOR
350
63
  3
ACAD_DETAILVIEWSTYLE
350
6A
  3
ACAD_GROUP
350
D
  3
ACAD_LAYOUT
350
62
  3
ACAD_MATERIAL
350
10
  3
ACAD_MLEADERSTYLE
350
66
  3
ACAD_MLINESTYLE
350
5F
  3
ACAD_PLOTSETTINGS
350
61
  3
ACAD_PLOTSTYLENAME
350
E
  3
ACAD_SCALELIST
350
42
  3
ACAD_SECTIONVIEWSTYLE
350
68
  3
ACAD_TABLESTYLE
350
64
  3
ACAD_VISUALSTYLE
350
29
  3
ACDB_RECOMPOSE_DATA
350
1A9
  3
AcDbVariableDictionary
350
1A1
  0
DICTIONARY
  5
63
102
{ACAD_REACTORS
330
C
102
}
330
C
100
AcDbDictionary
281
     1
  0
DICTIONARY
  5
6A
102
{ACAD_REACTORS
330
C
102
}
330
C
100
AcDbDictionary
281
     1
  3
Imperial24
350
6B
  0
DICTIONARY
  5
D
102
{ACAD_REACTORS
330
C
102
}
330
C
100
AcDbDictionary
281
     1
  0
DICTIONARY
  5
62
102
{ACAD_REACTORS
330
C
102
}
330
C
100
AcDbDictionary
281
     1
  3
Layout1
350
6F
  3
Layout2
350
77
  3
Model
350
73
  0
DICTIONARY
  5
10
102
{ACAD_REACTORS
330
C
102
}
330
C
100
AcDbDictionary
281
     1
  3
ByBlock
350
19
  3
ByLayer
350
11
  3
Global
350
21
  0
DICTIONARY
  5
66
102
{ACAD_REACTORS
330
C
102
}
330
C
100
AcDbDictionary
281
     1
  3
Standard
350
67
  0
DICTIONARY
  5
5F
102
{ACAD_REACTORS
330
C
102
}
330
C
100
AcDbDictionary
281
     1
  3
Standard
350
60
  0
DICTIONARY
  5
61
102
{ACAD_REACTORS
330
C
102
}
330
C
100
AcDbDictionary
281
     1
  0
ACDBDICTIONARYWDFLT
  5
E
102
{ACAD_REACTORS
330
C
102
}
330
C
100
AcDbDictionary
281
     1
  3
Normal
350
F
100
AcDbDictionaryWithDefault
340
F
  0
DICTIONARY
  5
42
102
{ACAD_REACTORS
330
C
102
}
330
C
100
AcDbDictionary
281
     1
  3
A0
350
43
  3
A1
350
44
  3
A2
350
45
  3
A3
350
46
  3
A4
350
47
  3
A5
350
48
  3
A6
350
49
  3
A7
350
4A
  3
A8
350
4B
  3
A9
350
4C
  3
B0
350
4D
  3
B1
350
4E
  3
B2
350
4F
  3
B3
350
50
  3
B4
350
51
  3
B5
350
52
  3
B6
350
53
  0
DICTIONARY
  5
68
102
{ACAD_REACTORS
330
C
102
}
330
C
100
AcDbDictionary
281
     1
  3
Imperial24
350
69
  0
DICTIONARY
  5
64
102
{ACAD_REACTORS
330
C
102
}
330
C
100
AcDbDictionary
281
     1
  3
Standard
350
65
  0
DICTIONARY
  5
29
102
{ACAD_REACTORS
330
C
102
}
330
C
100
AcDbDictionary
281
     1
  3
2dWireframe
350
2F
  3
Basic
350
2E
  3
Brighten
350
35
  3
ColorChange
350
39
  3
Conceptual
350
32
  3
Dim
350
34
  3
EdgeColorOff
350
41
  3
Facepattern
350
38
  3
Flat
350
2A
  3
FlatWithEdges
350
2B
  3
Gouraud
350
2C
  3
GouraudWithEdges
350
2D
  3
Hidden
350
31
  3
JitterOff
350
3F
  3
Linepattern
350
37
  3
OverhangOff
350
40
  3
Realistic
350
33
  3
Shaded
350
3E
  3
Shaded with edges
350
3D
  3
Shades of Gray
350
3A
  3
Sketchy
350
3B
  3
Thicken
350
36
  3
Wireframe
350
30
  3
X-Ray
350
3C
  0
XRECORD
  5
1A9
102
{ACAD_REACTORS
330
C
102
}
330
C
100
AcDbXrecord
280
     1
 90
        1
330
65
  0
DICTIONARY
  5
1A1
102
{ACAD_REACTORS
330
C
102
}
330
C
100
AcDbDictionary
281
     1
  3
CANNOSCALE
350
1A6
  3
CMLEADERSTYLE
350
1A3
  3
CTABLESTYLE
350
1A2
  3
CVIEWDETAILSTYLE
350
1A4
  3
CVIEWSECTIONSTYLE
350
1A5
  0
ACDBDETAILVIEWSTYLE
  5
6B
102
{ACAD_REACTORS
330
6A
102
}
330
6A
100
AcDbModelDocViewStyle
 70
     0
  3
Imperial24
290
     1
300
Imperial24
 90
        0
100
AcDbDetailViewStyle
 70
     0
 71
     0
 90
        3
 71
     1
340
55
 62
   256
 40
0.24
340
0
 62
   256
 40
0.24
300

 40
0.36
280
     3
 71
     2
340
5D
 90
       25
 62
   256
 71
     3
340
55
 62
   256
 40
0.24
 90
        1
 40
0.75
 90
        1
300
%<\AcVar ViewType \f "%tc1">% %<\AcVar ViewDetailId>%\PSCALE %<\AcVar ViewScale \f "%sn">%
 71
     4
340
5D
 90
       25
 62
   256
340
5D
 90
       25
 62
   256
280
     0
  0
LAYOUT
  5
6F
102
{ACAD_REACTORS
330
62
102
}
330
62
100
AcDbPlotSettings
  1

  2

  4

  6

 40
0.0
 41
0.0
 42
0.0
 43
0.0
 44
0.0
 45
0.0
 46
0.0
 47
0.0
 48
0.0
 49
0.0
140
0.0
141
0.0
142
1.0
143
1.0
 70
   688
 72
     0
 73
     0
 74
     5
  7

 75
    16
147
1.0
 76
     0
 77
     2
 78
   300
148
0.0
149
0.0
100
AcDbLayout
  1
Layout1
 70
     1
 71
     1
 10
0.0
 20
0.0
 11
12.0
 21
9.0
 12
0.0
 22
0.0
 32
0.0
 14
0.0
 24
0.0
 34
0.0
 15
0.0
 25
0.0
 35
0.0
146
0.0
 13
0.0
 23
0.0
 33
0.0
 16
1.0
 26
0.0
 36
0.0
 17
0.0
 27
1.0
 37
0.0
 76
     0
330
6C
  0
LAYOUT
  5
77
102
{ACAD_REACTORS
330
62
102
}
330
62
100
AcDbPlotSettings
  1

  2

  4

  6

 40
0.0
 41
0.0
 42
0.0
 43
0.0
 44
0.0
 45
0.0
 46
0.0
 47
0.0
 48
0.0
 49
0.0
140
0.0
141
0.0
142
1.0
143
1.0
 70
   688
 72
     0
 73
     0
 74
     5
  7

 75
    16
147
1.0
 76
     0
 77
     2
 78
   300
148
0.0
149
0.0
100
AcDbLayout
  1
Layout2
 70
     1
 71
     2
 10
0.0
 20
0.0
 11
12.0
 21
9.0
 12
0.0
 22
0.0
 32
0.0
 14
0.0
 24
0.0
 34
0.0
 15
0.0
 25
0.0
 35
0.0
146
0.0
 13
0.0
 23
0.0
 33
0.0
 16
1.0
 26
0.0
 36
0.0
 17
0.0
 27
1.0
 37
0.0
 76
     0
330
74
  0
LAYOUT
  5
73
102
{ACAD_REACTORS
330
62
102
}
330
62
100
AcDbPlotSettings
  1

  2

  4

  6

 40
0.0
 41
0.0
 42
0.0
 43
0.0
 44
0.0
 45
0.0
 46
0.0
 47
0.0
 48
0.0
 49
0.0
140
0.0
141
0.0
142
1.0
143
1.0
 70
  1712
 72
     0
 73
     0
 74
     0
  7

 75
     0
147
1.0
 76
     0
 77
     2
 78
   300
148
0.0
149
0.0
100
AcDbLayout
  1
Model
 70
     1
 71
     0
 10
0.0
 20
0.0
 11
12.0
 21
9.0
 12
0.0
 22
0.0
 32
0.0
 14
0.0
 24
0.0
 34
0.0
 15
0.0
 25
0.0
 35
0.0
146
0.0
 13
0.0
 23
0.0
 33
0.0
 16
1.0
 26
0.0
 36
0.0
 17
0.0
 27
1.0
 37
0.0
 76
     0
330
70
  0
MATERIAL
  5
19
102
{ACAD_XDICTIONARY
360
1A
102
}
102
{ACAD_REACTORS
330
10
102
}
330
10
100
AcDbMaterial
  1
ByBlock
 72
     0
 43
0.0208333333333333
 43
0.0
 43
0.0
 43
0.0
 43
0.0
 43
0.0208333333333333
 43
0.0
 43
0.0
 43
0.0
 43
0.0
 43
1.0
 43
0.0
 43
0.0
 43
0.0
 43
0.0
 43
1.0
 77
     0
 47
0.0208333333333333
 47
0.0
 47
0.0
 47
0.0
 47
0.0
 47
0.0208333333333333
 47
0.0
 47
0.0
 47
0.0
 47
0.0
 47
1.0
 47
0.0
 47
0.0
 47
0.0
 47
0.0
 47
1.0
171
     0
 49
0.0208333333333333
 49
0.0
 49
0.0
 49
0.0
 49
0.0
 49
0.0208333333333333
 49
0.0
 49
0.0
 49
0.0
 49
0.0
 49
1.0
 49
0.0
 49
0.0
 49
0.0
 49
0.0
 49
1.0
175
     0
142
0.0208333333333333
142
0.0
142
0.0
142
0.0
142
0.0
142
0.0208333333333333
142
0.0
142
0.0
142
0.0
142
0.0
142
1.0
142
0.0
142
0.0
142
0.0
142
0.0
142
1.0
179
     0
144
0.0208333333333333
144
0.0
144
0.0
144
0.0
144
0.0
144
0.0208333333333333
144
0.0
144
0.0
144
0.0
144
0.0
144
1.0
144
0.0
144
0.0
144
0.0
144
0.0
144
1.0
147
0.0208333333333333
147
0.0
147
0.0
147
0.0
147
0.0
147
0.0208333333333333
147
0.0
147
0.0
147
0.0
147
0.0
147
1.0
147
0.0
147
0.0
147
0.0
147
0.0
147
1.0
  0
MATERIAL
  5
11
102
{ACAD_XDICTIONARY
360
12
102
}
102
{ACAD_REACTORS
330
10
102
}
330
10
100
AcDbMaterial
  1
ByLayer
 72
     0
 43
0.0208333333333333
 43
0.0
 43
0.0
 43
0.0
 43
0.0
 43
0.0208333333333333
 43
0.0
 43
0.0
 43
0.0
 43
0.0
 43
1.0
 43
0.0
 43
0.0
 43
0.0
 43
0.0
 43
1.0
 77
     0
 47
0.0208333333333333
 47
0.0
 47
0.0
 47
0.0
 47
0.0
 47
0.0208333333333333
 47
0.0
 47
0.0
 47
0.0
 47
0.0
 47
1.0
 47
0.0
 47
0.0
 47
0.0
 47
0.0
 47
1.0
171
     0
 49
0.0208333333333333
 49
0.0
 49
0.0
 49
0.0
 49
0.0
 49
0.0208333333333333
 49
0.0
 49
0.0
 49
0.0
 49
0.0
 49
1.0
 49
0.0
 49
0.0
 49
0.0
 49
0.0
 49
1.0
175
     0
142
0.0208333333333333
142
0.0
142
0.0
142
0.0
142
0.0
142
0.0208333333333333
142
0.0
142
0.0
142
0.0
142
0.0
142
1.0
142
0.0
142
0.0
142
0.0
142
0.0
142
1.0
179
     0
144
0.0208333333333333
144
0.0
144
0.0
144
0.0
144
0.0
144
0.0208333333333333
144
0.0
144
0.0
144
0.0
144
0.0
144
1.0
144
0.0
144
0.0
144
0.0
144
0.0
144
1.0
147
0.0208333333333333
147
0.0
147
0.0
147
0.0
147
0.0
147
0.0208333333333333
147
0.0
147
0.0
147
0.0
147
0.0
147
1.0
147
0.0
147
0.0
147
0.0
147
0.0
147
1.0
  0
MATERIAL
  5
21
102
{ACAD_XDICTIONARY
360
22
102
}
102
{ACAD_REACTORS
330
10
102
}
330
10
100
AcDbMaterial
  1
Global
 72
     0
 43
0.0208333333333333
 43
0.0
 43
0.0
 43
0.0
 43
0.0
 43
0.0208333333333333
 43
0.0
 43
0.0
 43
0.0
 43
0.0
 43
1.0
 43
0.0
 43
0.0
 43
0.0
 43
0.0
 43
1.0
 77
     0
 47
0.0208333333333333
 47
0.0
 47
0.0
 47
0.0
 47
0.0
 47
0.0208333333333333
 47
0.0
 47
0.0
 47
0.0
 47
0.0
 47
1.0
 47
0.0
 47
0.0
 47
0.0
 47
0.0
 47
1.0
171
     0
 49
0.0208333333333333
 49
0.0
 49
0.0
 49
0.0
 49
0.0
 49
0.0208333333333333
 49
0.0
 49
0.0
 49
0.0
 49
0.0
 49
1.0
 49
0.0
 49
0.0
 49
0.0
 49
0.0
 49
1.0
175
     0
142
0.0208333333333333
142
0.0
142
0.0
142
0.0
142
0.0
142
0.0208333333333333
142
0.0
142
0.0
142
0.0
142
0.0
142
1.0
142
0.0
142
0.0
142
0.0
142
0.0
142
1.0
179
     0
144
0.0208333333333333
144
0.0
144
0.0
144
0.0
144
0.0
144
0.0208333333333333
144
0.0
144
0.0
144
0.0
144
0.0
144
1.0
144
0.0
144
0.0
144
0.0
144
0.0
144
1.0
147
0.0208333333333333
147
0.0
147
0.0
147
0.0
147
0.0
147
0.0208333333333333
147
0.0
147
0.0
147
0.0
147
0.0
147
1.0
147
0.0
147
0.0
147
0.0
147
0.0
147
1.0
  0
MLEADERSTYLE
  5
67
102
{ACAD_REACTORS
330
66
102
}
330
66
100
AcDbMLeaderStyle
179
     2
170
     2
171
     1
172
     0
 90
        2
 40
0.0
 41
0.0
173
     1
 91
-1056964608
340
5B
 92
       -2
290
     1
 42
0.09
291
     1
 43
0.36
  3
Standard
 44
0.18
300

342
55
174
     1
178
     6
175
     1
176
     0
 93
-1056964608
 45
0.18
292
     0
297
     0
 46
0.18
 94
-1056964608
 47
1.0
 49
1.0
140
1.0
293
     1
141
0.0
294
     1
177
     0
142
1.0
295
     1
296
     0
143
0.125
271
     0
272
     9
273
     9
298
     1
  0
MLINESTYLE
  5
60
102
{ACAD_REACTORS
330
5F
102
}
330
5F
100
AcDbMlineStyle
  2
STANDARD
 70
     0
  3

 62
   256
 51
90.0
 52
90.0
 71
     2
 49
0.5
 62
   256
  6
BYLAYER
 49
-0.5
 62
   256
  6
BYLAYER
  0
ACDBPLACEHOLDER
  5
F
102
{ACAD_REACTORS
330
E
102
}
330
E
  0
SCALE
  5
43
102
{ACAD_REACTORS
330
42
102
}
330
42
100
AcDbScale
 70
     0
300
1:1
140
1.0
141
1.0
290
     1
  0
SCALE
  5
44
102
{ACAD_REACTORS
330
42
102
}
330
42
100
AcDbScale
 70
     0
300
1/128" = 1'-0"
140
0.0078125
141
12.0
290
     0
  0
SCALE
  5
45
102
{ACAD_REACTORS
330
42
102
}
330
42
100
AcDbScale
 70
     0
300
1/64" = 1'-0"
140
0.015625
141
12.0
290
     0
  0
SCALE
  5
46
102
{ACAD_REACTORS
330
42
102
}
330
42
100
AcDbScale
 70
     0
300
1/32" = 1'-0"
140
0.03125
141
12.0
290
     0
  0
SCALE
  5
47
102
{ACAD_REACTORS
330
42
102
}
330
42
100
AcDbScale
 70
     0
300
1/16" = 1'-0"
140
0.0625
141
12.0
290
     0
  0
SCALE
  5
48
102
{ACAD_REACTORS
330
42
102
}
330
42
100
AcDbScale
 70
     0
300
3/32" = 1'-0"
140
0.09375
141
12.0
290
     0
  0
SCALE
  5
49
102
{ACAD_REACTORS
330
42
102
}
330
42
100
AcDbScale
 70
     0
300
1/8" = 1'-0"
140
0.125
141
12.0
290
     0
  0
SCALE
  5
4A
102
{ACAD_REACTORS
330
42
102
}
330
42
100
AcDbScale
 70
     0
300
3/16" = 1'-0"
140
0.1875
141
12.0
290
     0
  0
SCALE
  5
4B
102
{ACAD_REACTORS
330
42
102
}
330
42
100
AcDbScale
 70
     0
300
1/4" = 1'-0"
140
0.25
141
12.0
290
     0
  0
SCALE
  5
4C
102
{ACAD_REACTORS
330
42
102
}
330
42
100
AcDbScale
 70
     0
300
3/8" = 1'-0"
140
0.375
141
12.0
290
     0
  0
SCALE
  5
4D
102
{ACAD_REACTORS
330
42
102
}
330
42
100
AcDbScale
 70
     0
300
1/2" = 1'-0"
140
0.5
141
12.0
290
     0
  0
SCALE
  5
4E
102
{ACAD_REACTORS
330
42
102
}
330
42
100
AcDbScale
 70
     0
300
3/4" = 1'-0"
140
0.75
141
12.0
290
     0
  0
SCALE
  5
4F
102
{ACAD_REACTORS
330
42
102
}
330
42
100
AcDbScale
 70
     0
300
1" = 1'-0"
140
1.0
141
12.0
290
     0
  0
SCALE
  5
50
102
{ACAD_REACTORS
330
42
102
}
330
42
100
AcDbScale
 70
     0
300
1-1/2" = 1'-0"
140
1.5
141
12.0
290
     0
  0
SCALE
  5
51
102
{ACAD_REACTORS
330
42
102
}
330
42
100
AcDbScale
 70
     0
300
3" = 1'-0"
140
3.0
141
12.0
290
     0
  0
SCALE
  5
52
102
{ACAD_REACTORS
330
42
102
}
330
42
100
AcDbScale
 70
     0
300
6" = 1'-0"
140
6.0
141
12.0
290
     0
  0
SCALE
  5
53
102
{ACAD_REACTORS
330
42
102
}
330
42
100
AcDbScale
 70
     0
300
1'-0" = 1'-0"
140
12.0
141
12.0
290
     0
  0
ACDBSECTIONVIEWSTYLE
  5
69
102
{ACAD_REACTORS
330
68
102
}
330
68
100
AcDbModelDocViewStyle
 70
     0
  3
Imperial24
290
     1
300
Imperial24
 90
        0
100
AcDbSectionViewStyle
 70
     0
 71
     0
 90
       78
 71
     1
340
55
 62
   256
 40
0.24
340
0
340
0
 62
   256
 40
0.24
300
I, O, Q, S, X, Z
 40
0.48
 90
        3
 40
0.18
 90
        1
 71
     2
340
5D
 90
       25
 62
   256
340
5D
 90
       50
 62
   256
 40
0.24
 40
0.0
 40
0.24
 71
     3
340
55
 62
   256
 40
0.24
 90
        1
 40
0.75
 90
        1
300
%<\AcVar ViewType \f "%tc1">% %<\AcVar ViewSectionStartId>%-%<\AcVar ViewSectionEndId>%\PSCALE %<\AcVar ViewScale \f "%sn">%
 71
     4
 62
   256
 62
   257
300
ANSI31
 40
1.0
 90
        0
290
     0
290
     0
 90
        6
 40
0.0
 40
1.570796326794896
 40
0.2617993877991494
 40
1.308996938995747
 40
-0.2617993877991494
 40
1.832595714594046
  0
TABLESTYLE
  5
65
102
{ACAD_XDICTIONARY
360
1A7
102
}
102
{ACAD_REACTORS
330
64
102
}
330
64
100
AcDbTableStyle
280
     0
  3
Standard
 70
     0
 71
     0
 40
0.06
 41
0.06
280
     0
281
     0
  7
Standard
140
0.18
170
     2
 62
     0
 63
     7
283
     0
 90
      512
 91
        0
  1

274
    -2
284
     1
 64
     0
275
    -2
285
     1
 65
     0
276
    -2
286
     1
 66
     0
277
    -2
287
     1
 67
     0
278
    -2
288
     1
 68
     0
279
    -2
289
     1
 69
     0
  7
Standard
140
0.25
170
     5
 62
     0
 63
     7
283
     0
 90
      512
 91
        0
  1

274
    -2
284
     1
 64
     0
275
    -2
285
     1
 65
     0
276
    -2
286
     1
 66
     0
277
    -2
287
     1
 67
     0
278
    -2
288
     1
 68
     0
279
    -2
289
     1
 69
     0
  7
Standard
140
0.18
170
     5
 62
     0
 63
     7
283
     0
 90
      512
 91
        0
  1

274
    -2
284
     1
 64
     0
275
    -2
285
     1
 65
     0
276
    -2
286
     1
 66
     0
277
    -2
287
     1
 67
     0
278
    -2
288
     1
 68
     0
279
    -2
289
     1
 69
     0
  0
VISUALSTYLE
  5
2F
102
{ACAD_REACTORS
330
29
102
}
330
29
100
AcDbVisualStyle
  2
2dWireframe
 70
     4
177
     3
291
     0
 70
    58
 90
        0
176
     1
 90
        2
176
     1
 90
        0
176
     1
 90
        0
176
     1
 40
0.6
176
     1
 40
30.0
176
     1
 62
     7
420
 16777215
176
     1
 90
        1
176
     1
 90
        4
176
     1
 62
     7
176
     1
 62
   257
176
     1
 90
        1
176
     1
 90
        1
176
     1
 40
1.0
176
     1
 90
        0
176
     1
 62
   257
176
     1
 40
1.0
176
     1
 90
        1
176
     1
 90
        6
176
     1
 90
        2
176
     1
 62
     7
176
     1
 90
        5
176
     1
 90
        0
176
     1
 90
        0
176
     1
290
     0
176
     1
 90
        1
176
     1
 40
0.0
176
     1
 90
        0
176
     1
290
     1
176
     1
290
     1
176
     1
290
     0
176
     1
290
     0
176
     1
290
     0
176
     1
290
     0
176
     1
290
     0
176
     1
290
     0
176
     1
290
     0
176
     1
 90
       50
176
     1
 40
0.0
176
     1
 40
1.0
176
     1
 90
        0
176
     1
 62
    18
420
        0
176
     1
 90
       50
176
     1
 90
        3
176
     1
 62
     5
420
      255
176
     1
290
     0
176
     1
 90
       50
176
     1
 90
       50
176
     1
 90
       50
176
     1
290
     0
176
     1
 90
       50
176
     1
 62
   256
176
     0
 40
1.0
176
     0
 90
        2
176
     1
  1
strokes_ogs.tif
176
     1
290
     0
176
     1
 40
1.0
176
     1
 40
1.0
176
     1
  0
VISUALSTYLE
  5
2E
102
{ACAD_REACTORS
330
29
102
}
330
29
100
AcDbVisualStyle
  2
Basic
 70
     7
177
     3
291
     1
 70
    58
 90
        1
176
     1
 90
        0
176
     1
 90
        1
176
     1
 90
        0
176
     1
 40
0.6
176
     1
 40
30.0
176
     1
 62
     7
420
 16777215
176
     1
 90
        0
176
     1
 90
        4
176
     1
 62
     7
176
     1
 62
   257
176
     1
 90
        1
176
     1
 90
        1
176
     1
 40
1.0
176
     1
 90
        8
176
     1
 62
     7
176
     1
 40
1.0
176
     1
 90
        1
176
     1
 90
        6
176
     1
 90
        2
176
     1
 62
     7
176
     1
 90
        5
176
     1
 90
        0
176
     1
 90
        0
176
     1
290
     0
176
     1
 90
        1
176
     1
 40
0.0
176
     1
 90
        0
176
     1
290
     0
176
     1
290
     1
176
     1
290
     1
176
     1
290
     0
176
     1
290
     0
176
     1
290
     0
176
     1
290
     0
176
     1
290
     0
176
     1
290
     0
176
     1
 90
       50
176
     1
 40
0.0
176
     1
 40
1.0
176
     1
 90
        0
176
     1
 62
    18
420
        0
176
     1
 90
       50
176
     1
 90
        3
176
     1
 62
     5
420
      255
176
     1
290
     0
176
     1
 90
       50
176
     1
 90
       50
176
     1
 90
       50
176
     1
290
     0
176
     1
 90
       50
176
     1
 62
   256
176
     0
 40
1.0
176
     0
 90
        2
176
     1
  1
strokes_ogs.tif
176
     1
290
     0
176
     1
 40
1.0
176
     1
 40
1.0
176
     1
  0
VISUALSTYLE
  5
35
102
{ACAD_REACTORS
330
29
102
}
330
29
100
AcDbVisualStyle
  2
Brighten
 70
    12
177
     3
291
     1
 70
    58
 90
        2
176
     1
 90
        2
176
     1
 90
        0
176
     1
 90
        0
176
     1
 40
0.6
176
     1
 40
30.0
176
     1
 62
     7
420
 16777215
176
     1
 90
        1
176
     1
 90
        4
176
     1
 62
     7
176
     1
 62
   257
176
     1
 90
        1
176
     1
 90
        1
176
     1
 40
1.0
176
     1
 90
        8
176
     1
 62
     7
176
     1
 40
1.0
176
     1
 90
        1
176
     1
 90
        6
176
     1
 90
        2
176
     1
 62
     7
176
     1
 90
        5
176
     1
 90
        0
176
     1
 90
        0
176
     1
290
     0
176
     1
 90
        1
176
     1
 40
50.0
176
     1
 90
        0
176
     1
290
     0
176
     1
290
     1
176
     1
290
     1
176
     1
290
     0
176
     1
290
     0
176
     1
290
     0
176
     1
290
     0
176
     1
290
     0
176
     1
290
     0
176
     1
 90
       50
176
     1
 40
0.0
176
     1
 40
1.0
176
     1
 90
        0
176
     1
 62
    18
420
        0
176
     1
 90
       50
176
     1
 90
        3
176
     1
 62
     5
420
      255
176
     1
290
     0
176
     1
 90
       50
176
     1
 90
       50
176
     1
 90
       50
176
     1
290
     0
176
     1
 90
       50
176
     1
 62
   256
176
     0
 40
1.0
176
     0
 90
        2
176
     1
  1
strokes_ogs.tif
176
     1
290
     0
176
     1
 40
1.0
176
     1
 40
1.0
176
     1
  0
VISUALSTYLE
  5
39
102
{ACAD_REACTORS
330
29
102
}
330
29
100
AcDbVisualStyle
  2
ColorChange
 70
    16
177
     3
291
     1
 70
    58
 90
        2
176
     1
 90
        2
176
     1
 90
        3
176
     1
 90
        0
176
     1
 40
0.6
176
     1
 40
30.0
176
     1
 62
     8
420
  8421504
176
     1
 90
        1
176
     1
 90
        4
176
     1
 62
     7
176
     1
 62
   257
176
     1
 90
        1
176
     1
 90
        1
176
     1
 40
1.0
176
     1
 90
        8
176
     1
 62
     8
420
  8421504
176
     1
 40
1.0
176
     1
 90
        1
176
     1
 90
        6
176
     1
 90
        2
176
     1
 62
     7
176
     1
 90
        5
176
     1
 90
        0
176
     1
 90
        0
176
     1
290
     0
176
     1
 90
        1
176
     1
 40
0.0
176
     1
 90
        0
176
     1
290
     0
176
     1
290
     1
176
     1
290
     1
176
     1
290
     0
176
     1
290
     0
176
     1
290
     0
176
     1
290
     0
176
     1
290
     0
176
     1
290
     0
176
     1
 90
       50
176
     1
 40
0.0
176
     1
 40
1.0
176
     1
 90
        0
176
     1
 62
    18
420
        0
176
     1
 90
       50
176
     1
 90
        3
176
     1
 62
     5
420
      255
176
     1
290
     0
176
     1
 90
       50
176
     1
 90
       50
176
     1
 90
       50
176
     1
290
     0
176
     1
 90
       50
176
     1
 62
   256
176
     0
 40
1.0
176
     0
 90
        2
176
     1
  1
strokes_ogs.tif
176
     1
290
     0
176
     1
 40
1.0
176
     1
 40
1.0
176
     1
  0
VISUALSTYLE
  5
32
102
{ACAD_REACTORS
330
29
102
}
330
29
100
AcDbVisualStyle
  2
Conceptual
 70
     9
177
     3
291
     0
 70
    58
 90
        3
176
     1
 90
        2
176
     1
 90
        0
176
     1
 90
        0
176
     1
 40
0.6
176
     1
 40
30.0
176
     1
 62
     7
420
 16777215
176
     1
 90
        2
176
     1
 90
        2
176
     1
 62
     7
176
     1
 62
   257
176
     1
 90
        1
176
     1
 90
        1
176
     1
 40
179.0
176
     1
 90
        8
176
     1
 62
     7
176
     1
 40
1.0
176
     1
 90
        1
176
     1
 90
        6
176
     1
 90
        2
176
     1
 62
     7
176
     1
 90
        3
176
     1
 90
        0
176
     1
 90
        0
176
     1
290
     0
176
     1
 90
        1
176
     1
 40
0.0
176
     1
 90
        0
176
     1
290
     0
176
     1
290
     1
176
     1
290
     1
176
     1
290
     0
176
     1
290
     0
176
     1
290
     0
176
     1
290
     0
176
     1
290
     0
176
     1
290
     0
176
     1
 90
       50
176
     1
 40
0.0
176
     1
 40
1.0
176
     1
 90
        0
176
     1
 62
    18
420
        0
176
     1
 90
       50
176
     1
 90
        3
176
     1
 62
     5
420
      255
176
     1
290
     0
176
     1
 90
       50
176
     1
 90
       50
176
     1
 90
       50
176
     1
290
     0
176
     1
 90
       50
176
     1
 62
   256
176
     0
 40
1.0
176
     0
 90
        2
176
     1
  1
strokes_ogs.tif
176
     1
290
     0
176
     1
 40
1.0
176
     1
 40
1.0
176
     1
  0
VISUALSTYLE
  5
34
102
{ACAD_REACTORS
330
29
102
}
330
29
100
AcDbVisualStyle
  2
Dim
 70
    11
177
     3
291
     1
 70
    58
 90
        2
176
     1
 90
        2
176
     1
 90
        0
176
     1
 90
        0
176
     1
 40
0.6
176
     1
 40
30.0
176
     1
 62
     7
420
 16777215
176
     1
 90
        1
176
     1
 90
        4
176
     1
 62
     7
176
     1
 62
   257
176
     1
 90
        1
176
     1
 90
        1
176
     1
 40
1.0
176
     1
 90
        8
176
     1
 62
     7
176
     1
 40
1.0
176
     1
 90
        1
176
     1
 90
        6
176
     1
 90
        2
176
     1
 62
     7
176
     1
 90
        5
176
     1
 90
        0
176
     1
 90
        0
176
     1
290
     0
176
     1
 90
        1
176
     1
 40
-50.0
176
     1
 90
        0
176
     1
290
     0
176
     1
290
     1
176
     1
290
     1
176
     1
290
     0
176
     1
290
     0
176
     1
290
     0
176
     1
290
     0
176
     1
290
     0
176
     1
290
     0
176
     1
 90
       50
176
     1
 40
0.0
176
     1
 40
1.0
176
     1
 90
        0
176
     1
 62
    18
420
        0
176
     1
 90
       50
176
     1
 90
        3
176
     1
 62
     5
420
      255
176
     1
290
     0
176
     1
 90
       50
176
     1
 90
       50
176
     1
 90
       50
176
     1
290
     0
176
     1
 90
       50
176
     1
 62
   256
176
     0
 40
1.0
176
     0
 90
        2
176
     1
  1
strokes_ogs.tif
176
     1
290
     0
176
     1
 40
1.0
176
     1
 40
1.0
176
     1
  0
VISUALSTYLE
  5
41
102
{ACAD_REACTORS
330
29
102
}
330
29
100
AcDbVisualStyle
  2
EdgeColorOff
 70
    22
177
     3
291
     1
 70
    58
 90
        2
176
     0
 90
        2
176
     0
 90
        0
176
     0
 90
        0
176
     0
 40
0.6
176
     0
 40
30.0
176
     0
 62
     7
420
 16777215
176
     0
 90
        1
176
     0
 90
        4
176
     0
 62
     7
176
     0
 62
   257
176
     0
 90
        1
176
     0
 90
        1
176
     0
 40
1.0
176
     0
 90
        8
176
     2
 62
     7
176
     0
 40
1.0
176
     0
 90
        1
176
     0
 90
        6
176
     0
 90
        2
176
     0
 62
     7
176
     0
 90
        5
176
     0
 90
        0
176
     0
 90
        0
176
     0
290
     0
176
     0
 90
        1
176
     0
 40
0.0
176
     0
 90
        0
176
     0
290
     0
176
     0
290
     1
176
     0
290
     1
176
     0
290
     0
176
     0
290
     0
176
     0
290
     0
176
     0
290
     0
176
     0
290
     0
176
     0
290
     0
176
     0
 90
       50
176
     0
 40
0.0
176
     0
 40
1.0
176
     0
 90
        0
176
     0
 62
    18
420
        0
176
     0
 90
       50
176
     0
 90
        3
176
     0
 62
     5
420
      255
176
     0
290
     0
176
     0
 90
       50
176
     0
 90
       50
176
     0
 90
       50
176
     0
290
     0
176
     0
 90
       50
176
     0
 62
   256
176
     0
 40
1.0
176
     0
 90
        2
176
     0
  1
strokes_ogs.tif
176
     0
290
     0
176
     0
 40
1.0
176
     0
 40
1.0
176
     0
  0
VISUALSTYLE
  5
38
102
{ACAD_REACTORS
330
29
102
}
330
29
100
AcDbVisualStyle
  2
Facepattern
 70
    15
177
     3
291
     1
 70
    58
 90
        2
176
     1
 90
        2
176
     1
 90
        0
176
     1
 90
        0
176
     1
 40
0.6
176
     1
 40
30.0
176
     1
 62
     7
420
 16777215
176
     1
 90
        1
176
     1
 90
        4
176
     1
 62
     7
176
     1
 62
   257
176
     1
 90
        1
176
     1
 90
        1
176
     1
 40
1.0
176
     1
 90
        8
176
     1
 62
     7
176
     1
 40
1.0
176
     1
 90
        1
176
     1
 90
        6
176
     1
 90
        2
176
     1
 62
     7
176
     1
 90
        5
176
     1
 90
        0
176
     1
 90
        0
176
     1
290
     0
176
     1
 90
        1
176
     1
 40
0.0
176
     1
 90
        0
176
     1
290
     0
176
     1
290
     1
176
     1
290
     1
176
     1
290
     0
176
     1
290
     0
176
     1
290
     0
176
     1
290
     0
176
     1
290
     0
176
     1
290
     0
176
     1
 90
       50
176
     1
 40
0.0
176
     1
 40
1.0
176
     1
 90
        0
176
     1
 62
    18
420
        0
176
     1
 90
       50
176
     1
 90
        3
176
     1
 62
     5
420
      255
176
     1
290
     0
176
     1
 90
       50
176
     1
 90
       50
176
     1
 90
       50
176
     1
290
     0
176
     1
 90
       50
176
     1
 62
   256
176
     0
 40
1.0
176
     0
 90
        2
176
     1
  1
strokes_ogs.tif
176
     1
290
     0
176
     1
 40
1.0
176
     1
 40
1.0
176
     1
  0
VISUALSTYLE
  5
2A
102
{ACAD_REACTORS
330
29
102
}
330
29
100
AcDbVisualStyle
  2
Flat
 70
     0
177
     3
291
     1
 70
    58
 90
        2
176
     1
 90
        1
176
     1
 90
        1
176
     1
 90
        2
176
     1
 40
0.6
176
     1
 40
30.0
176
     1
 62
     7
420
 16777215
176
     1
 90
        0
176
     1
 90
        0
176
     1
 62
     7
176
     1
 62
   257
176
     1
 90
        1
176
     1
 90
        1
176
     1
 40
1.0
176
     1
 90
        8
176
     1
 62
     7
176
     1
 40
1.0
176
     1
 90
        1
176
     1
 90
        6
176
     1
 90
        2
176
     1
 62
     7
176
     1
 90
        5
176
     1
 90
        0
176
     1
 90
        0
176
     1
290
     0
176
     1
 90
       13
176
     1
 40
0.0
176
     1
 90
        0
176
     1
290
     0
176
     1
290
     1
176
     1
290
     1
176
     1
290
     0
176
     1
290
     0
176
     1
290
     0
176
     1
290
     0
176
     1
290
     0
176
     1
290
     0
176
     1
 90
       50
176
     1
 40
0.0
176
     1
 40
1.0
176
     1
 90
        0
176
     1
 62
    18
420
        0
176
     1
 90
       50
176
     1
 90
        3
176
     1
 62
     5
420
      255
176
     1
290
     0
176
     1
 90
       50
176
     1
 90
       50
176
     1
 90
       50
176
     1
290
     0
176
     1
 90
       50
176
     1
 62
   256
176
     0
 40
1.0
176
     0
 90
        2
176
     1
  1
strokes_ogs.tif
176
     1
290
     0
176
     1
 40
1.0
176
     1
 40
1.0
176
     1
  0
VISUALSTYLE
  5
2B
102
{ACAD_REACTORS
330
29
102
}
330
29
100
AcDbVisualStyle
  2
FlatWithEdges
 70
     1
177
     3
291
     1
 70
    58
 90
        2
176
     1
 90
        1
176
     1
 90
        1
176
     1
 90
        2
176
     1
 40
0.6
176
     1
 40
30.0
176
     1
 62
     7
420
 16777215
176
     1
 90
        1
176
     1
 90
        0
176
     1
 62
     7
176
     1
 62
   257
176
     1
 90
        1
176
     1
 90
        1
176
     1
 40
1.0
176
     1
 90
        0
176
     1
 62
   257
176
     1
 40
1.0
176
     1
 90
        1
176
     1
 90
        6
176
     1
 90
        2
176
     1
 62
     7
176
     1
 90
        5
176
     1
 90
        0
176
     1
 90
        0
176
     1
290
     0
176
     1
 90
       13
176
     1
 40
0.0
176
     1
 90
        0
176
     1
290
     0
176
     1
290
     1
176
     1
290
     1
176
     1
290
     0
176
     1
290
     0
176
     1
290
     0
176
     1
290
     0
176
     1
290
     0
176
     1
290
     0
176
     1
 90
       50
176
     1
 40
0.0
176
     1
 40
1.0
176
     1
 90
        0
176
     1
 62
    18
420
        0
176
     1
 90
       50
176
     1
 90
        3
176
     1
 62
     5
420
      255
176
     1
290
     0
176
     1
 90
       50
176
     1
 90
       50
176
     1
 90
       50
176
     1
290
     0
176
     1
 90
       50
176
     1
 62
   256
176
     0
 40
1.0
176
     0
 90
        2
176
     1
  1
strokes_ogs.tif
176
     1
290
     0
176
     1
 40
1.0
176
     1
 40
1.0
176
     1
  0
VISUALSTYLE
  5
2C
102
{ACAD_REACTORS
330
29
102
}
330
29
100
AcDbVisualStyle
  2
Gouraud
 70
     2
177
     3
291
     1
 70
    58
 90
        2
176
     1
 90
        2
176
     1
 90
        1
176
     1
 90
        2
176
     1
 40
0.6
176
     1
 40
30.0
176
     1
 62
     7
420
 16777215
176
     1
 90
        0
176
     1
 90
        0
176
     1
 62
     7
176
     1
 62
   257
176
     1
 90
        1
176
     1
 90
        1
176
     1
 40
1.0
176
     1
 90
        0
176
     1
 62
     7
176
     1
 40
1.0
176
     1
 90
        1
176
     1
 90
        6
176
     1
 90
        2
176
     1
 62
     7
176
     1
 90
        5
176
     1
 90
        0
176
     1
 90
        0
176
     1
290
     0
176
     1
 90
       13
176
     1
 40
0.0
176
     1
 90
        0
176
     1
290
     0
176
     1
290
     1
176
     1
290
     1
176
     1
290
     0
176
     1
290
     0
176
     1
290
     0
176
     1
290
     0
176
     1
290
     0
176
     1
290
     0
176
     1
 90
       50
176
     1
 40
0.0
176
     1
 40
1.0
176
     1
 90
        0
176
     1
 62
    18
420
        0
176
     1
 90
       50
176
     1
 90
        3
176
     1
 62
     5
420
      255
176
     1
290
     0
176
     1
 90
       50
176
     1
 90
       50
176
     1
 90
       50
176
     1
290
     0
176
     1
 90
       50
176
     1
 62
   256
176
     0
 40
1.0
176
     0
 90
        2
176
     1
  1
strokes_ogs.tif
176
     1
290
     0
176
     1
 40
1.0
176
     1
 40
1.0
176
     1
  0
VISUALSTYLE
  5
2D
102
{ACAD_REACTORS
330
29
102
}
330
29
100
AcDbVisualStyle
  2
GouraudWithEdges
 70
     3
177
     3
291
     1
 70
    58
 90
        2
176
     1
 90
        2
176
     1
 90
        1
176
     1
 90
        2
176
     1
 40
0.6
176
     1
 40
30.0
176
     1
 62
     7
420
 16777215
176
     1
 90
        1
176
     1
 90
        0
176
     1
 62
     7
176
     1
 62
   257
176
     1
 90
        1
176
     1
 90
        1
176
     1
 40
1.0
176
     1
 90
        0
176
     1
 62
   257
176
     1
 40
1.0
176
     1
 90
        1
176
     1
 90
        6
176
     1
 90
        2
176
     1
 62
     7
176
     1
 90
        5
176
     1
 90
        0
176
     1
 90
        0
176
     1
290
     0
176
     1
 90
       13
176
     1
 40
0.0
176
     1
 90
        0
176
     1
290
     0
176
     1
290
     1
176
     1
290
     1
176
     1
290
     0
176
     1
290
     0
176
     1
290
     0
176
     1
290
     0
176
     1
290
     0
176
     1
290
     0
176
     1
 90
       50
176
     1
 40
0.0
176
     1
 40
1.0
176
     1
 90
        0
176
     1
 62
    18
420
        0
176
     1
 90
       50
176
     1
 90
        3
176
     1
 62
     5
420
      255
176
     1
290
     0
176
     1
 90
       50
176
     1
 90
       50
176
     1
 90
       50
176
     1
290
     0
176
     1
 90
       50
176
     1
 62
   256
176
     0
 40
1.0
176
     0
 90
        2
176
     1
  1
strokes_ogs.tif
176
     1
290
     0
176
     1
 40
1.0
176
     1
 40
1.0
176
     1
  0
VISUALSTYLE
  5
31
102
{ACAD_REACTORS
330
29
102
}
330
29
100
AcDbVisualStyle
  2
Hidden
 70
     6
177
     3
291
     0
 70
    58
 90
        1
176
     1
 90
        2
176
     1
 90
        2
176
     1
 90
        0
176
     1
 40
0.6
176
     1
 40
30.0
176
     1
 62
     7
420
 16777215
176
     1
 90
        2
176
     1
 90
        2
176
     1
 62
     7
176
     1
 62
   257
176
     1
 90
        2
176
     1
 90
        1
176
     1
 40
40.0
176
     1
 90
        0
176
     1
 62
   257
176
     1
 40
1.0
176
     1
 90
        1
176
     1
 90
        6
176
     1
 90
        2
176
     1
 62
     7
176
     1
 90
        3
176
     1
 90
        0
176
     1
 90
        0
176
     1
290
     0
176
     1
 90
        1
176
     1
 40
0.0
176
     1
 90
        0
176
     1
290
     0
176
     1
290
     1
176
     1
290
     1
176
     1
290
     0
176
     1
290
     0
176
     1
290
     0
176
     1
290
     0
176
     1
290
     0
176
     1
290
     0
176
     1
 90
       50
176
     1
 40
0.0
176
     1
 40
1.0
176
     1
 90
        0
176
     1
 62
    18
420
        0
176
     1
 90
       50
176
     1
 90
        3
176
     1
 62
     5
420
      255
176
     1
290
     0
176
     1
 90
       50
176
     1
 90
       50
176
     1
 90
       50
176
     1
290
     0
176
     1
 90
       50
176
     1
 62
   256
176
     0
 40
1.0
176
     0
 90
        2
176
     1
  1
strokes_ogs.tif
176
     1
290
     0
176
     1
 40
1.0
176
     1
 40
1.0
176
     1
  0
VISUALSTYLE
  5
3F
102
{ACAD_REACTORS
330
29
102
}
330
29
100
AcDbVisualStyle
  2
JitterOff
 70
    20
177
     3
291
     1
 70
    58
 90
        2
176
     0
 90
        2
176
     0
 90
        0
176
     0
 90
        0
176
     0
 40
0.6
176
     0
 40
30.0
176
     0
 62
     7
420
 16777215
176
     0
 90
        1
176
     0
 90
        4
176
     0
 62
     7
176
     0
 62
   257
176
     0
 90
        1
176
     0
 90
        1
176
     0
 40
1.0
176
     0
 90
       10
176
     2
 62
     7
176
     0
 40
1.0
176
     0
 90
        1
176
     0
 90
        6
176
     0
 90
        2
176
     0
 62
     7
176
     0
 90
        5
176
     0
 90
        0
176
     0
 90
        0
176
     0
290
     0
176
     0
 90
        1
176
     0
 40
0.0
176
     0
 90
        0
176
     0
290
     0
176
     0
290
     1
176
     0
290
     1
176
     0
290
     0
176
     0
290
     0
176
     0
290
     0
176
     0
290
     0
176
     0
290
     0
176
     0
290
     0
176
     0
 90
       50
176
     0
 40
0.0
176
     0
 40
1.0
176
     0
 90
        0
176
     0
 62
    18
420
        0
176
     0
 90
       50
176
     0
 90
        3
176
     0
 62
     5
420
      255
176
     0
290
     0
176
     0
 90
       50
176
     0
 90
       50
176
     0
 90
       50
176
     0
290
     0
176
     0
 90
       50
176
     0
 62
   256
176
     0
 40
1.0
176
     0
 90
        2
176
     0
  1
strokes_ogs.tif
176
     0
290
     0
176
     0
 40
1.0
176
     0
 40
1.0
176
     0
  0
VISUALSTYLE
  5
37
102
{ACAD_REACTORS
330
29
102
}
330
29
100
AcDbVisualStyle
  2
Linepattern
 70
    14
177
     3
291
     1
 70
    58
 90
        2
176
     1
 90
        2
176
     1
 90
        0
176
     1
 90
        0
176
     1
 40
0.6
176
     1
 40
30.0
176
     1
 62
     7
420
 16777215
176
     1
 90
        1
176
     1
 90
        4
176
     1
 62
     7
176
     1
 62
   257
176
     1
 90
        7
176
     1
 90
        7
176
     1
 40
1.0
176
     1
 90
        8
176
     1
 62
     7
176
     1
 40
1.0
176
     1
 90
        1
176
     1
 90
        6
176
     1
 90
        2
176
     1
 62
     7
176
     1
 90
        5
176
     1
 90
        0
176
     1
 90
        0
176
     1
290
     0
176
     1
 90
        1
176
     1
 40
0.0
176
     1
 90
        0
176
     1
290
     0
176
     1
290
     1
176
     1
290
     1
176
     1
290
     0
176
     1
290
     0
176
     1
290
     0
176
     1
290
     0
176
     1
290
     0
176
     1
290
     0
176
     1
 90
       50
176
     1
 40
0.0
176
     1
 40
1.0
176
     1
 90
        0
176
     1
 62
    18
420
        0
176
     1
 90
       50
176
     1
 90
        3
176
     1
 62
     5
420
      255
176
     1
290
     0
176
     1
 90
       50
176
     1
 90
       50
176
     1
 90
       50
176
     1
290
     0
176
     1
 90
       50
176
     1
 62
   256
176
     0
 40
1.0
176
     0
 90
        2
176
     1
  1
strokes_ogs.tif
176
     1
290
     0
176
     1
 40
1.0
176
     1
 40
1.0
176
     1
  0
VISUALSTYLE
  5
40
102
{ACAD_REACTORS
330
29
102
}
330
29
100
AcDbVisualStyle
  2
OverhangOff
 70
    21
177
     3
291
     1
 70
    58
 90
        2
176
     0
 90
        2
176
     0
 90
        0
176
     0
 90
        0
176
     0
 40
0.6
176
     0
 40
30.0
176
     0
 62
     7
420
 16777215
176
     0
 90
        1
176
     0
 90
        4
176
     0
 62
     7
176
     0
 62
   257
176
     0
 90
        1
176
     0
 90
        1
176
     0
 40
1.0
176
     0
 90
        9
176
     2
 62
     7
176
     0
 40
1.0
176
     0
 90
        1
176
     0
 90
        6
176
     0
 90
        2
176
     0
 62
     7
176
     0
 90
        5
176
     0
 90
        0
176
     0
 90
        0
176
     0
290
     0
176
     0
 90
        1
176
     0
 40
0.0
176
     0
 90
        0
176
     0
290
     0
176
     0
290
     1
176
     0
290
     1
176
     0
290
     0
176
     0
290
     0
176
     0
290
     0
176
     0
290
     0
176
     0
290
     0
176
     0
290
     0
176
     0
 90
       50
176
     0
 40
0.0
176
     0
 40
1.0
176
     0
 90
        0
176
     0
 62
    18
420
        0
176
     0
 90
       50
176
     0
 90
        3
176
     0
 62
     5
420
      255
176
     0
290
     0
176
     0
 90
       50
176
     0
 90
       50
176
     0
 90
       50
176
     0
290
     0
176
     0
 90
       50
176
     0
 62
   256
176
     0
 40
1.0
176
     0
 90
        2
176
     0
  1
strokes_ogs.tif
176
     0
290
     0
176
     0
 40
1.0
176
     0
 40
1.0
176
     0
  0
VISUALSTYLE
  5
33
102
{ACAD_REACTORS
330
29
102
}
330
29
100
AcDbVisualStyle
  2
Realistic
 70
     8
177
     3
291
     0
 70
    58
 90
        2
176
     1
 90
        3
176
     1
 90
        0
176
     1
 90
        2
176
     1
 40
0.6
176
     1
 40
30.0
176
     1
 62
     7
420
 16777215
176
     1
 90
        0
176
     1
 90
        0
176
     1
 62
     7
176
     1
 62
   257
176
     1
 90
        1
176
     1
 90
        1
176
     1
 40
1.0
176
     1
 90
        8
176
     1
 62
   257
176
     1
 40
1.0
176
     1
 90
        1
176
     1
 90
        6
176
     1
 90
        2
176
     1
 62
     7
176
     1
 90
        3
176
     1
 90
        0
176
     1
 90
        0
176
     1
290
     0
176
     1
 90
       13
176
     1
 40
0.0
176
     1
 90
        0
176
     1
290
     0
176
     1
290
     1
176
     1
290
     1
176
     1
290
     0
176
     1
290
     0
176
     1
290
     0
176
     1
290
     0
176
     1
290
     0
176
     1
290
     0
176
     1
 90
       50
176
     1
 40
0.0
176
     1
 40
1.0
176
     1
 90
        0
176
     1
 62
    18
420
        0
176
     1
 90
       50
176
     1
 90
        3
176
     1
 62
     5
420
      255
176
     1
290
     0
176
     1
 90
       50
176
     1
 90
       50
176
     1
 90
       50
176
     1
290
     0
176
     1
 90
       50
176
     1
 62
   256
176
     0
 40
1.0
176
     0
 90
        2
176
     1
  1
strokes_ogs.tif
176
     1
290
     0
176
     1
 40
1.0
176
     1
 40
1.0
176
     1
  0
VISUALSTYLE
  5
3E
102
{ACAD_REACTORS
330
29
102
}
330
29
100
AcDbVisualStyle
  2
Shaded
 70
    27
177
     3
291
     0
 70
    58
 90
        2
176
     1
 90
        2
176
     1
 90
        1
176
     1
 90
        2
176
     1
 40
0.6
176
     1
 40
30.0
176
     1
 62
     7
420
 16777215
176
     1
 90
        0
176
     1
 90
        4
176
     1
 62
     7
176
     1
 62
   257
176
     1
 90
        1
176
     1
 90
        1
176
     1
 40
1.0
176
     1
 90
        8
176
     1
 62
   257
176
     1
 40
1.0
176
     1
 90
        1
176
     1
 90
        6
176
     1
 90
        2
176
     1
 62
     8
420
  7895160
176
     1
 90
        3
176
     1
 90
        0
176
     1
 90
        0
176
     1
290
     0
176
     1
 90
        5
176
     1
 40
0.0
176
     1
 90
        0
176
     1
290
     0
176
     1
290
     1
176
     1
290
     1
176
     1
290
     0
176
     1
290
     0
176
     1
290
     0
176
     1
290
     0
176
     1
290
     0
176
     1
290
     0
176
     1
 90
       50
176
     1
 40
0.0
176
     1
 40
1.0
176
     1
 90
        0
176
     1
 62
    18
420
        0
176
     1
 90
       50
176
     1
 90
        3
176
     1
 62
     5
420
      255
176
     1
290
     0
176
     1
 90
       50
176
     1
 90
       50
176
     1
 90
       50
176
     1
290
     0
176
     1
 90
       50
176
     1
 62
   256
176
     0
 40
1.0
176
     0
 90
        2
176
     1
  1
strokes_ogs.tif
176
     1
290
     0
176
     1
 40
1.0
176
     1
 40
1.0
176
     1
  0
VISUALSTYLE
  5
3D
102
{ACAD_REACTORS
330
29
102
}
330
29
100
AcDbVisualStyle
  2
Shaded with edges
 70
    26
177
     3
291
     0
 70
    58
 90
        2
176
     1
 90
        2
176
     1
 90
        1
176
     1
 90
        2
176
     1
 40
0.6
176
     1
 40
30.0
176
     1
 62
     7
420
 16777215
176
     1
 90
        1
176
     1
 90
        2
176
     1
 62
     7
176
     1
 62
   257
176
     1
 90
        2
176
     1
 90
        1
176
     1
 40
1.0
176
     1
 90
        8
176
     1
 62
   257
176
     1
 40
1.0
176
     1
 90
        1
176
     1
 90
        6
176
     1
 90
        2
176
     1
 62
     7
176
     1
 90
        3
176
     1
 90
        0
176
     1
 90
        0
176
     1
290
     0
176
     1
 90
        5
176
     1
 40
0.0
176
     1
 90
        0
176
     1
290
     0
176
     1
290
     1
176
     1
290
     1
176
     1
290
     0
176
     1
290
     0
176
     1
290
     0
176
     1
290
     0
176
     1
290
     0
176
     1
290
     0
176
     1
 90
       50
176
     1
 40
0.0
176
     1
 40
1.0
176
     1
 90
        0
176
     1
 62
    18
420
        0
176
     1
 90
       50
176
     1
 90
        3
176
     1
 62
     5
420
      255
176
     1
290
     0
176
     1
 90
       50
176
     1
 90
       50
176
     1
 90
       50
176
     1
290
     0
176
     1
 90
       50
176
     1
 62
   256
176
     0
 40
1.0
176
     0
 90
        2
176
     1
  1
strokes_ogs.tif
176
     1
290
     0
176
     1
 40
1.0
176
     1
 40
1.0
176
     1
  0
VISUALSTYLE
  5
3A
102
{ACAD_REACTORS
330
29
102
}
330
29
100
AcDbVisualStyle
  2
Shades of Gray
 70
    23
177
     3
291
     0
 70
    58
 90
        2
176
     1
 90
        2
176
     1
 90
        3
176
     1
 90
        0
176
     1
 40
0.6
176
     1
 40
30.0
176
     1
 62
     7
420
 16777215
176
     1
 90
        2
176
     1
 90
        2
176
     1
 62
     7
176
     1
 62
     7
176
     1
 90
        1
176
     1
 90
        1
176
     1
 40
40.0
176
     1
 90
        8
176
     1
 62
     7
176
     1
 40
1.0
176
     1
 90
        1
176
     1
 90
        6
176
     1
 90
        2
176
     1
 62
     7
176
     1
 90
        3
176
     1
 90
        0
176
     1
 90
        0
176
     1
290
     0
176
     1
 90
        1
176
     1
 40
0.0
176
     1
 90
        0
176
     1
290
     0
176
     1
290
     1
176
     1
290
     1
176
     1
290
     0
176
     1
290
     0
176
     1
290
     0
176
     1
290
     0
176
     1
290
     0
176
     1
290
     0
176
     1
 90
       50
176
     1
 40
0.0
176
     1
 40
1.0
176
     1
 90
        0
176
     1
 62
    18
420
        0
176
     1
 90
       50
176
     1
 90
        3
176
     1
 62
     5
420
      255
176
     1
290
     0
176
     1
 90
       50
176
     1
 90
       50
176
     1
 90
       50
176
     1
290
     0
176
     1
 90
       50
176
     1
 62
   256
176
     0
 40
1.0
176
     0
 90
        2
176
     1
  1
strokes_ogs.tif
176
     1
290
     0
176
     1
 40
1.0
176
     1
 40
1.0
176
     1
  0
VISUALSTYLE
  5
3B
102
{ACAD_REACTORS
330
29
102
}
330
29
100
AcDbVisualStyle
  2
Sketchy
 70
    24
177
     3
291
     0
 70
    58
 90
        1
176
     1
 90
        2
176
     1
 90
        2
176
     1
 90
        0
176
     1
 40
0.6
176
     1
 40
30.0
176
     1
 62
     7
420
 16777215
176
     1
 90
        2
176
     1
 90
        2
176
     1
 62
     7
176
     1
 62
     7
176
     1
 90
        1
176
     1
 90
        1
176
     1
 40
40.0
176
     1
 90
       11
176
     1
 62
     7
176
     1
 40
1.0
176
     1
 90
        1
176
     1
 90
        6
176
     1
 90
        2
176
     1
 62
     7
176
     1
 90
        6
176
     1
 90
        0
176
     1
 90
        0
176
     1
290
     0
176
     1
 90
        1
176
     1
 40
0.0
176
     1
 90
        0
176
     1
290
     0
176
     1
290
     1
176
     1
290
     1
176
     1
290
     0
176
     1
290
     0
176
     1
290
     0
176
     1
290
     0
176
     1
290
     0
176
     1
290
     0
176
     1
 90
       50
176
     1
 40
0.0
176
     1
 40
1.0
176
     1
 90
        0
176
     1
 62
    18
420
        0
176
     1
 90
       50
176
     1
 90
        3
176
     1
 62
     5
420
      255
176
     1
290
     0
176
     1
 90
       50
176
     1
 90
       50
176
     1
 90
       50
176
     1
290
     0
176
     1
 90
       50
176
     1
 62
   256
176
     0
 40
1.0
176
     0
 90
        2
176
     1
  1
strokes_ogs.tif
176
     1
290
     0
176
     1
 40
1.0
176
     1
 40
1.0
176
     1
  0
VISUALSTYLE
  5
36
102
{ACAD_REACTORS
330
29
102
}
330
29
100
AcDbVisualStyle
  2
Thicken
 70
    13
177
     3
291
     1
 70
    58
 90
        2
176
     1
 90
        2
176
     1
 90
        0
176
     1
 90
        0
176
     1
 40
0.6
176
     1
 40
30.0
176
     1
 62
     7
420
 16777215
176
     1
 90
        1
176
     1
 90
        4
176
     1
 62
     7
176
     1
 62
   257
176
     1
 90
        1
176
     1
 90
        1
176
     1
 40
1.0
176
     1
 90
       12
176
     1
 62
     7
176
     1
 40
1.0
176
     1
 90
        1
176
     1
 90
        6
176
     1
 90
        2
176
     1
 62
     7
176
     1
 90
        5
176
     1
 90
        0
176
     1
 90
        0
176
     1
290
     0
176
     1
 90
        1
176
     1
 40
0.0
176
     1
 90
        0
176
     1
290
     0
176
     1
290
     1
176
     1
290
     1
176
     1
290
     0
176
     1
290
     0
176
     1
290
     0
176
     1
290
     0
176
     1
290
     0
176
     1
290
     0
176
     1
 90
       50
176
     1
 40
0.0
176
     1
 40
1.0
176
     1
 90
        0
176
     1
 62
    18
420
        0
176
     1
 90
       50
176
     1
 90
        3
176
     1
 62
     5
420
      255
176
     1
290
     0
176
     1
 90
       50
176
     1
 90
       50
176
     1
 90
       50
176
     1
290
     0
176
     1
 90
       50
176
     1
 62
   256
176
     0
 40
1.0
176
     0
 90
        2
176
     1
  1
strokes_ogs.tif
176
     1
290
     0
176
     1
 40
1.0
176
     1
 40
1.0
176
     1
  0
VISUALSTYLE
  5
30
102
{ACAD_REACTORS
330
29
102
}
330
29
100
AcDbVisualStyle
  2
Wireframe
 70
     5
177
     3
291
     0
 70
    58
 90
        0
176
     1
 90
        2
176
     1
 90
        0
176
     1
 90
        0
176
     1
 40
0.6
176
     1
 40
30.0
176
     1
 62
     7
420
 16777215
176
     1
 90
        1
176
     1
 90
        4
176
     1
 62
     7
176
     1
 62
   257
176
     1
 90
        1
176
     1
 90
        1
176
     1
 40
1.0
176
     1
 90
        0
176
     1
 62
   257
176
     1
 40
1.0
176
     1
 90
        1
176
     1
 90
        6
176
     1
 90
        2
176
     1
 62
     7
176
     1
 90
        3
176
     1
 90
        0
176
     1
 90
        0
176
     1
290
     0
176
     1
 90
        1
176
     1
 40
0.0
176
     1
 90
        0
176
     1
290
     0
176
     1
290
     1
176
     1
290
     1
176
     1
290
     0
176
     1
290
     0
176
     1
290
     0
176
     1
290
     0
176
     1
290
     0
176
     1
290
     0
176
     1
 90
       50
176
     1
 40
0.0
176
     1
 40
1.0
176
     1
 90
        0
176
     1
 62
    18
420
        0
176
     1
 90
       50
176
     1
 90
        3
176
     1
 62
     5
420
      255
176
     1
290
     0
176
     1
 90
       50
176
     1
 90
       50
176
     1
 90
       50
176
     1
290
     0
176
     1
 90
       50
176
     1
 62
   256
176
     0
 40
1.0
176
     0
 90
        2
176
     1
  1
strokes_ogs.tif
176
     1
290
     0
176
     1
 40
1.0
176
     1
 40
1.0
176
     1
  0
VISUALSTYLE
  5
3C
102
{ACAD_REACTORS
330
29
102
}
330
29
100
AcDbVisualStyle
  2
X-Ray
 70
    25
177
     3
291
     0
 70
    58
 90
        2
176
     1
 90
        2
176
     1
 90
        1
176
     1
 90
        1
176
     1
 40
0.5
176
     1
 40
30.0
176
     1
 62
     7
420
 16777215
176
     1
 90
        1
176
     1
 90
        0
176
     1
 62
     7
176
     1
 62
   257
176
     1
 90
        1
176
     1
 90
        1
176
     1
 40
1.0
176
     1
 90
        8
176
     1
 62
     7
176
     1
 40
1.0
176
     1
 90
        1
176
     1
 90
        6
176
     1
 90
        2
176
     1
 62
     7
176
     1
 90
        3
176
     1
 90
        0
176
     1
 90
        0
176
     1
290
     0
176
     1
 90
       13
176
     1
 40
0.0
176
     1
 90
        0
176
     1
290
     0
176
     1
290
     1
176
     1
290
     1
176
     1
290
     0
176
     1
290
     0
176
     1
290
     0
176
     1
290
     0
176
     1
290
     0
176
     1
290
     0
176
     1
 90
       50
176
     1
 40
0.0
176
     1
 40
1.0
176
     1
 90
        0
176
     1
 62
    18
420
        0
176
     1
 90
       50
176
     1
 90
        3
176
     1
 62
     5
420
      255
176
     1
290
     0
176
     1
 90
       50
176
     1
 90
       50
176
     1
 90
       50
176
     1
290
     0
176
     1
 90
       50
176
     1
 62
   256
176
     0
 40
1.0
176
     0
 90
        2
176
     1
  1
strokes_ogs.tif
176
     1
290
     0
176
     1
 40
1.0
176
     1
 40
1.0
176
     1
  0
DICTIONARYVAR
  5
1A6
102
{ACAD_REACTORS
330
1A1
102
}
330
1A1
100
DictionaryVariables
280
     0
  1
1:1
  0
DICTIONARYVAR
  5
1A3
102
{ACAD_REACTORS
330
1A1
102
}
330
1A1
100
DictionaryVariables
280
     0
  1
STANDARD
  0
DICTIONARYVAR
  5
1A2
102
{ACAD_REACTORS
330
1A1
102
}
330
1A1
100
DictionaryVariables
280
     0
  1
STANDARD
  0
DICTIONARYVAR
  5
1A4
102
{ACAD_REACTORS
330
1A1
102
}
330
1A1
100
DictionaryVariables
280
     0
  1
Imperial24
  0
DICTIONARYVAR
  5
1A5
102
{ACAD_REACTORS
330
1A1
102
}
330
1A1
100
DictionaryVariables
280
     0
  1
Imperial24
  0
DICTIONARY
  5
1A
330
19
100
AcDbDictionary
280
     1
281
     1
  3
BUMPTILE
360
1C
  3
DIFFUSETILE
360
1B
  3
OPACITYTILE
360
1F
  3
REFLECTIONTILE
360
1E
  3
REFRACTIONTILE
360
20
  3
SPECULARTILE
360
1D
  0
DICTIONARY
  5
12
330
11
100
AcDbDictionary
280
     1
281
     1
  3
BUMPTILE
360
14
  3
DIFFUSETILE
360
13
  3
OPACITYTILE
360
17
  3
REFLECTIONTILE
360
16
  3
REFRACTIONTILE
360
18
  3
SPECULARTILE
360
15
  0
DICTIONARY
  5
22
330
21
100
AcDbDictionary
280
     1
281
     1
  3
BUMPTILE
360
24
  3
DIFFUSETILE
360
23
  3
OPACITYTILE
360
27
  3
REFLECTIONTILE
360
26
  3
REFRACTIONTILE
360
28
  3
SPECULARTILE
360
25
  0
DICTIONARY
  5
1A7
330
65
100
AcDbDictionary
280
     1
281
     1
  3
ACAD_ROUNDTRIP_2008_TABLESTYLE_CELLSTYLEMAP
360
1A8
  0
XRECORD
  5
1C
102
{ACAD_REACTORS
330
1A
102
}
330
1A
100
AcDbXrecord
280
     1
270
     1
271
     1
  0
XRECORD
  5
1B
102
{ACAD_REACTORS
330
1A
102
}
330
1A
100
AcDbXrecord
280
     1
270
     1
271
     1
  0
XRECORD
  5
1F
102
{ACAD_REACTORS
330
1A
102
}
330
1A
100
AcDbXrecord
280
     1
270
     1
271
     1
  0
XRECORD
  5
1E
102
{ACAD_REACTORS
330
1A
102
}
330
1A
100
AcDbXrecord
280
     1
270
     1
271
     1
  0
XRECORD
  5
20
102
{ACAD_REACTORS
330
1A
102
}
330
1A
100
AcDbXrecord
280
     1
270
     1
271
     1
  0
XRECORD
  5
1D
102
{ACAD_REACTORS
330
1A
102
}
330
1A
100
AcDbXrecord
280
     1
270
     1
271
     1
  0
XRECORD
  5
14
102
{ACAD_REACTORS
330
12
102
}
330
12
100
AcDbXrecord
280
     1
270
     1
271
     1
  0
XRECORD
  5
13
102
{ACAD_REACTORS
330
12
102
}
330
12
100
AcDbXrecord
280
     1
270
     1
271
     1
  0
XRECORD
  5
17
102
{ACAD_REACTORS
330
12
102
}
330
12
100
AcDbXrecord
280
     1
270
     1
271
     1
  0
XRECORD
  5
16
102
{ACAD_REACTORS
330
12
102
}
330
12
100
AcDbXrecord
280
     1
270
     1
271
     1
  0
XRECORD
  5
18
102
{ACAD_REACTORS
330
12
102
}
330
12
100
AcDbXrecord
280
     1
270
     1
271
     1
  0
XRECORD
  5
15
102
{ACAD_REACTORS
330
12
102
}
330
12
100
AcDbXrecord
280
     1
270
     1
271
     1
  0
XRECORD
  5
24
102
{ACAD_REACTORS
330
22
102
}
330
22
100
AcDbXrecord
280
     1
270
     1
271
     1
  0
XRECORD
  5
23
102
{ACAD_REACTORS
330
22
102
}
330
22
100
AcDbXrecord
280
     1
270
     1
271
     1
  0
XRECORD
  5
27
102
{ACAD_REACTORS
330
22
102
}
330
22
100
AcDbXrecord
280
     1
270
     1
271
     1
  0
XRECORD
  5
26
102
{ACAD_REACTORS
330
22
102
}
330
22
100
AcDbXrecord
280
     1
270
     1
271
     1
  0
XRECORD
  5
28
102
{ACAD_REACTORS
330
22
102
}
330
22
100
AcDbXrecord
280
     1
270
     1
271
     1
  0
XRECORD
  5
25
102
{ACAD_REACTORS
330
22
102
}
330
22
100
AcDbXrecord
280
     1
270
     1
271
     1
  0
CELLSTYLEMAP
  5
1A8
102
{ACAD_REACTORS
330
1A7
102
}
330
1A7
100
AcDbCellStyleMap
 90
        3
300
CELLSTYLE
  1
TABLEFORMAT_BEGIN
 90
        5
170
     1
 91
        0
 92
    32768
 62
   257
 93
        1
300
CONTENTFORMAT
  1
CONTENTFORMAT_BEGIN
 90
        0
 91
        0
 92
      512
 93
        0
300

 40
0.0
140
1.0
 94
        5
 62
     0
340
55
144
0.25
309
CONTENTFORMAT_END
171
     0
 94
        0
309
TABLEFORMAT_END
  1
CELLSTYLE_BEGIN
 90
        1
 91
        1
300
_TITLE
309
CELLSTYLE_END
300
CELLSTYLE
  1
TABLEFORMAT_BEGIN
 90
        5
170
     1
 91
        0
 92
        0
 62
   257
 93
        1
300
CONTENTFORMAT
  1
CONTENTFORMAT_BEGIN
 90
        0
 91
        0
 92
      512
 93
        0
300

 40
0.0
140
1.0
 94
        5
 62
     0
340
55
144
0.18
309
CONTENTFORMAT_END
171
     0
 94
        0
309
TABLEFORMAT_END
  1
CELLSTYLE_BEGIN
 90
        2
 91
        1
300
_HEADER
309
CELLSTYLE_END
300
CELLSTYLE
  1
TABLEFORMAT_BEGIN
 90
        5
170
     1
 91
        0
 92
        0
 62
   257
 93
        1
300
CONTENTFORMAT
  1
CONTENTFORMAT_BEGIN
 90
        0
 91
        0
 92
      512
 93
        0
300

 40
0.0
140
1.0
 94
        2
 62
     0
340
55
144
0.18
309
CONTENTFORMAT_END
171
     0
 94
        0
309
TABLEFORMAT_END
  1
CELLSTYLE_BEGIN
 90
        3
 91
        2
300
_DATA
309
CELLSTYLE_END
  0
ENDSEC
  0
EOF
